<svg width="136" height="235" viewBox="0 0 136 235" fill="none" xmlns="http://www.w3.org/2000/svg">
<g>
<path d="M29.4969 97.329C23.5595 97.9192 17.9424 99.7997 12.2553 101.52C7.52942 102.951 5.9975 105.691 5.92741 110.463C5.92741 110.463 3.93492 145.073 12.9262 159.788C15.199 163.509 25.3817 161.628 29.7071 160.018C33.5219 158.597 32.3304 154.796 32.0901 151.765C30.7084 134.5 29.4168 117.245 32.821 100.06C33.4218 97.0089 31.4994 97.179 29.5069 97.319L29.4969 97.329Z" fill="#DCDEE3"/>
<path d="M51.6946 156.617L82.1727 153.836C83.8248 153.786 84.1151 152.525 84.2053 151.065C85.0964 137.121 86.368 123.217 83.8548 109.253C81.1715 94.3181 80.9412 93.888 65.1514 93.958C57.0914 93.998 54.6884 94.018 53.8573 97.8592C53.7372 98.6794 53.6371 99.4096 53.557 100.02C53.4468 101.39 53.3867 103.081 53.3267 105.151L51.2741 134.51C50.6934 139.402 50.0025 148.094 49.2516 154.076C49.0713 155.506 50.2628 156.727 51.6946 156.597V156.617Z" fill="#DCDEE3"/>
<path d="M96.9312 25.1175C96.9912 24.3973 99.2741 23.517 100.616 23.3269C106.263 22.5467 111.94 22.0166 117.607 21.3864C112.841 18.4255 106.783 21.0463 102.678 18.0954C98.383 15.0045 94.8385 16.4649 90.9637 17.4152C85.5569 18.7356 85.3667 19.8559 89.1414 24.0072C89.602 24.5173 90.2328 25.4376 90.5031 26.0578C92.9962 31.7395 95.6596 32.1296 100.646 27.5282C99.184 26.938 96.7409 27.3782 96.9312 25.1175Z" fill="#F7BE68"/>
<path d="M117.026 30.089C119.74 29.4788 122.493 28.9986 125.247 29.3888C130.023 30.069 134.598 29.8789 135.8 25.4676C136.721 22.0966 134.418 20.096 131.775 18.5155C125.517 14.7744 118.798 12.3537 111.469 12.3437C107.564 12.3437 104.771 10.6432 101.507 8.7226C100.045 7.86234 98.6032 6.99208 97.1514 6.15183C88.5407 1.13034 79.8999 -2.87086 68.3454 2.71081C57.1915 8.10241 52.1452 19.6358 50.383 31.0893C49.7722 35.1005 48.771 39.0416 47.6195 42.9428L36.9762 77.7232C36.0751 81.2542 35.0138 84.7452 33.592 88.1463C33.562 88.1963 33.5519 88.2463 33.5319 88.2963C32.5307 90.657 31.6596 91.6073 29.4268 91.7073C21.1264 92.0674 13.5469 95.2484 5.80726 97.7991C2.62328 98.8494 1.15144 100.8 0.740929 104.271C-0.640798 115.955 0.0300405 127.308 1.80226 138.721C2.92366 145.873 4.73592 153.206 7.56946 159.978C8.44055 162.088 8.801 165.129 11.5745 165.459C18.5532 166.28 22.2979 165.409 28.7459 166.23L29.9875 169.621L32.4606 176.373C37.6671 189.677 44.2153 202.33 52.0451 214.234C55.0688 218.835 56.6408 222.886 53.5069 227.838C52.4556 229.518 52.4956 231.029 54.5482 231.959C60.806 234.81 67.174 236.27 73.7722 233.079C75.8348 232.079 77.9975 230.999 76.2653 228.058C75.8148 227.598 75.3642 227.148 74.9136 226.688C74.9136 226.688 86.5081 228.088 95.189 227.008C98.7034 226.568 101.537 229.368 104.721 231.779C104.721 231.779 113.292 239.411 134.518 231.199C137.212 230.169 132.956 227.428 130.934 226.347C125.957 223.687 120.691 221.546 115.725 218.445C114.403 217.615 114.173 215.774 115.244 214.644C119.199 210.513 122.543 206.131 125.076 201.08C132.265 186.756 134.188 171.781 134.238 156.607C134.288 144.473 133.126 132.359 131.114 120.396C127.9 96.7088 116.436 45.8337 113.962 34.9604C113.652 33.62 113.482 32.8898 113.482 32.8898C112.29 29.6088 115.134 30.5091 117.026 30.089ZM32.821 100.07C29.4168 117.255 30.7084 134.51 32.0901 151.775C32.3304 154.806 33.5319 158.607 29.7071 160.028C25.3917 161.638 15.199 163.509 12.9262 159.798C3.94493 145.073 5.92741 110.473 5.92741 110.473C6.00751 105.701 7.53943 102.961 12.2653 101.53C17.9524 99.8097 23.5595 97.9192 29.4969 97.329C31.4994 97.189 33.4218 97.0189 32.821 100.07ZM49.2516 154.096C50.0025 148.124 50.6934 139.432 51.2741 134.53L53.3267 105.171C53.3867 103.101 53.4368 101.41 53.5569 100.04C53.637 99.4196 53.7472 98.6994 53.8573 97.8692C54.6984 94.028 57.1014 94.008 65.1514 93.968C80.9512 93.898 81.1715 94.3281 83.8548 109.263C86.368 123.227 85.0964 137.131 84.2053 151.075C84.1151 152.525 83.8248 153.796 82.1627 153.846L51.6946 156.627C50.2528 156.757 49.0713 155.526 49.2516 154.096ZM127.139 159.998C125.687 180.894 122.814 200.61 104.691 214.774C94.9587 222.376 78.5982 222.866 69.0964 214.974C63.7497 210.533 60.796 202.96 52.6959 201.94C52.3655 201.9 52.1352 201.04 51.8648 200.56C47.0188 191.597 43.1039 182.234 39.99 172.541C39.7897 171.711 39.5194 170.821 40.9712 171.311C43.0138 171.361 44.6859 170.851 45.6971 169.621C46.2979 168.9 46.6683 167.92 46.7484 166.65L47.8198 162.298L84.1051 159.297C87.7697 159.117 89.7322 156.577 89.9725 152.956C91.1639 135.29 92.2153 117.645 88.0501 100.15C86.5181 93.7579 80.9512 89.0965 74.393 88.5864C68.4456 88.1263 62.4881 88.0562 56.5607 88.6764C56.04 88.7264 55.5695 88.7464 55.1589 88.7264C55.189 88.5364 55.209 88.3363 55.239 88.1463C55.7196 84.8353 56.2303 81.2542 56.7509 77.7232C59.0538 61.4383 66.0025 52.5457 70.0876 48.5845C72.4706 46.2738 74.5131 43.653 76.1552 40.7621C77.7271 38.0113 79.209 35.7907 82.2228 33.0498C82.8736 32.4697 84.1952 31.9495 84.9061 32.2096C91.5544 34.6503 98.7635 32.3296 105.432 34.7704C107.705 35.6006 108.055 37.4512 108.756 39.1417C108.756 39.1417 129.692 123.117 127.139 159.998ZM100.626 23.3269C99.2741 23.517 97.0012 24.3973 96.9312 25.1175C96.7409 27.3782 99.184 26.938 100.646 27.5282C95.6596 32.1296 92.9962 31.7395 90.5031 26.0578C90.2328 25.4376 89.602 24.5073 89.1414 24.0072C85.3667 19.8459 85.5569 18.7356 90.9637 17.4152C94.8385 16.4649 98.383 15.0045 102.678 18.0954C106.793 21.0563 112.841 18.4255 117.607 21.3864C111.94 22.0166 106.273 22.5567 100.626 23.3269Z" fill="black"/>
<path d="M127.139 159.998C125.687 180.894 122.814 200.61 104.691 214.774C94.9587 222.376 78.5983 222.866 69.0964 214.974C63.7497 210.533 60.796 202.96 52.6959 201.94C52.3655 201.9 52.1352 201.04 51.8648 200.56C47.0188 191.597 43.1039 182.234 39.99 172.541C39.7897 171.711 39.5194 170.821 40.9712 171.311C43.0138 171.361 44.6859 170.851 45.6971 169.621C46.2979 168.9 46.6683 167.92 46.7484 166.65L47.8198 162.298L84.1051 159.297C87.7697 159.117 89.7322 156.577 89.9725 152.956C91.164 135.29 92.2153 117.645 88.0501 100.15C86.5182 93.7579 80.9512 89.0965 74.393 88.5864C68.4456 88.1263 62.4881 88.0562 56.5607 88.6764C56.0401 88.7264 55.5695 88.7464 55.159 88.7264C55.189 88.5364 55.209 88.3363 55.239 88.1463C55.7197 84.8353 56.2303 81.2542 56.7509 77.7232C59.0538 61.4383 66.0025 52.5457 70.0876 48.5845C72.4706 46.2738 74.5131 43.653 76.1552 40.7621C77.7272 38.0113 79.209 35.7907 82.2228 33.0498C82.8736 32.4697 84.1953 31.9495 84.9061 32.2096C91.5544 34.6503 98.7635 32.3296 105.432 34.7704C107.705 35.6006 108.055 37.4512 108.756 39.1417C108.756 39.1417 129.692 123.117 127.139 159.998Z" fill="white"/>
</g>
<defs>
<clipPath id="clip0_428_6692">
<rect width="136" height="235" fill="white"/>
</clipPath>
</defs>
</svg>
