<svg width="154" height="243" viewBox="0 0 154 243" fill="none" xmlns="http://www.w3.org/2000/svg">
<g>
<path d="M133.543 110.002C133.713 108.503 134.083 107.104 134.413 105.925L134.703 104.915C135.122 103.456 135.552 101.947 135.892 100.448C136.491 97.8396 136.871 95.531 137.051 93.4023C137.201 91.6534 137.241 90.0244 137.171 88.4354C137.101 86.8364 136.921 85.2874 136.641 83.8382C135.992 80.4903 134.852 77.3523 133.233 74.534C133.044 74.1942 132.854 73.8444 132.674 73.5046L132.424 73.0449L131.684 71.6858C130.635 71.7457 129.746 71.9056 129.026 72.1255C127.237 72.6651 125.998 74.2742 125.938 76.143L125.019 106.434C124.949 108.723 126.468 110.772 128.696 111.341C129.646 111.581 130.835 111.871 132.304 112.191C132.684 112.261 133.024 112.301 133.383 112.351C133.393 112.141 133.403 111.921 133.423 111.711C133.453 111.151 133.483 110.582 133.543 110.002Z" fill="#FF4133"/>
<path d="M143.157 73.9643C141.918 73.4946 140.789 73.1349 139.709 72.8251C139.769 72.9949 139.819 73.1748 139.879 73.3447C140.109 74.0743 140.359 74.8338 140.559 75.5933C141.128 77.722 141.418 79.8907 141.408 82.0394C141.408 83.1886 141.368 84.1181 141.308 84.9775C141.218 86.2168 141.088 87.436 140.938 88.5953C140.809 89.5447 140.639 90.5541 140.399 91.7734C140.159 92.9626 139.909 94.1419 139.659 95.3212L139.379 96.6104C139.29 97.0301 139.2 97.4498 139.11 97.8696C138.92 98.7191 138.74 99.5685 138.57 100.428C138.34 101.607 138.13 102.827 137.95 104.066C137.83 104.855 137.741 105.695 137.681 106.564C137.581 107.983 137.581 109.213 137.701 110.322C137.791 111.161 137.91 111.821 138.08 112.411L138.13 112.581C144.396 112.121 145.516 108.423 145.516 108.423C145.516 108.423 145.985 87.0263 145.985 81.1999C145.985 75.3735 143.157 73.9643 143.157 73.9643V73.9643Z" fill="#FF4133"/>
<path d="M79.8881 184.786C81.3472 184.766 82.5464 183.627 82.6263 182.168L85.6744 128.211C85.7143 125.343 83.5857 122.904 80.7476 122.554L68.6854 121.085C66.7467 120.845 64.9078 122.005 64.2683 123.854C61.8898 130.749 59.2615 137.525 57.6925 138.984C56.7431 141.283 55.374 143.681 52.8157 147.579C46.3599 157.383 51.6864 171.524 49.6178 174.103C47.5491 176.681 41.1033 174.362 41.1033 174.362C20.2269 169.086 19.8771 119.636 19.8771 119.636C19.8071 117.398 19.4474 117.018 17.1788 117.018L11.4226 116.608C11.4226 116.608 8.58442 116.088 7.80493 122.285C7.04542 128.321 4.08734 153.145 7.28526 174.952C7.28526 174.972 7.28526 174.982 7.28526 175.002C7.63504 177.291 9.51382 179.039 11.7724 179.529C18.2282 180.928 41.1932 185.186 79.8881 184.776V184.786Z" fill="#DCDEE3"/>
<path d="M153.83 86.9963C152.831 84.4978 148.883 86.0969 148.883 86.0969L148.813 79.6408C148.813 79.6408 149.433 76.6227 147.584 73.4447C146.185 71.0461 143.717 69.4471 140.998 68.8875C126.178 65.8294 123.5 71.7957 123.5 71.7957C122.78 72.6551 122.371 73.9743 122.271 75.1236L122.071 82.5091C122.031 83.8183 120.512 84.4978 119.502 83.6684C114.686 79.6608 103.453 70.8663 91.4606 65.2997C87.9229 63.6607 85.0448 60.8724 83.2759 57.4046C81.4671 53.8667 79.2186 49.4595 77.7595 46.6512C74.7814 40.9347 81.9868 40.1352 81.9868 40.1352C89.312 39.1059 97.6866 45.8617 102.573 47.9704C105.092 49.0497 107.76 46.3814 106.461 43.9729L106.431 43.9129C106.431 43.9129 92.2501 30.6111 90.7711 29.4218C89.292 28.2426 88.9422 25.2044 88.9422 25.2044C88.8723 24.375 88.8623 23.5155 89.0422 22.696C89.6918 19.6779 88.2527 16.7697 86.4838 14.4911C84.3952 11.8027 81.587 9.78396 78.479 8.4248C70.864 5.10685 51.8064 -2.62837 47.3193 0.909442C46.5598 1.40913 45.6404 1.66897 44.8409 2.12869C44.8409 2.12869 29.5708 4.93695 15.2001 109.672C15.1702 109.922 14.7504 110.362 14.4606 110.412C14.3707 110.412 5.58638 110.412 3.72759 114.289C3.72759 114.289 3.61766 114.709 3.42778 115.509C2.1686 121.105 -2.58831 145.47 1.8588 179.349C1.8588 179.349 1.57898 183.267 7.95484 185.456C11.3326 186.605 13.6411 189.753 13.6012 193.321C13.6012 193.321 12.5918 194.85 11.4026 196.918C9.28398 200.626 6.60572 206.093 8.19468 207.672C9.38391 208.871 13.0215 209.331 16.4693 209.501C19.5473 217.006 25.7033 224.322 37.7055 227.819C37.8954 227.869 35.2571 231.157 34.0779 232.337C32.6188 233.796 31.1798 235.235 30.1204 237.074C29.6907 237.823 29.4409 238.463 29.4209 239.262C29.4209 239.902 29.6308 240.502 29.9905 241.041C30.83 242.32 32.329 243 33.858 243L85.5045 242.86C87.3333 242.84 88.7024 241.931 89.7817 240.631C90.1914 240.142 90.5112 239.992 91.0509 240.012C91.7804 240.052 92.5099 240.122 93.2494 240.142C94.8284 240.192 96.0776 239.562 96.4774 238.543C97.027 237.134 96.5773 235.035 95.428 234.175C94.8684 233.756 94.1189 233.586 93.5293 233.206C91.4206 231.837 89.0722 232.646 86.8436 232.367C86.8436 232.367 75.5609 229.099 71.7834 230.318C71.4336 230.428 71.2138 229.638 70.9339 229.268C132.644 214.538 107.011 126.342 107.011 126.342C117.634 122.864 126.998 114.969 126.998 114.969C140.679 117.398 145.545 114.789 145.545 114.789C147.324 114.299 148.534 112.67 148.604 110.832L149.113 98.1194C149.183 97.7796 149.213 97.21 149.213 96.8602C149.233 95.2012 150.013 93.8521 151.012 92.6028C151.731 91.7134 152.481 90.8339 153.221 89.9645C153.92 89.145 154.22 88.0057 153.83 86.9963V86.9963ZM11.7724 179.549C9.50383 179.059 7.63505 177.311 7.28528 175.022C7.27528 175.002 7.27528 174.982 7.27528 174.972C4.07736 153.165 7.04543 128.341 7.79494 122.305C8.57444 116.108 11.4126 116.628 11.4126 116.628L17.1689 117.038C19.4374 117.038 19.7971 117.418 19.8671 119.656C19.8671 119.656 20.2169 169.116 41.0933 174.382C41.0933 174.382 47.5491 176.711 49.6078 174.123C51.6764 171.544 46.3499 157.403 52.8057 147.599C55.3641 143.711 56.7332 141.313 57.6825 139.004C59.2515 137.545 61.8798 130.769 64.2583 123.874C64.8979 122.025 66.7367 120.865 68.6754 121.105L80.7376 122.564C83.5857 122.914 85.7143 125.353 85.6744 128.221L82.6263 182.178C82.5364 183.627 81.3372 184.776 79.8781 184.796C41.1833 185.206 18.2182 180.948 11.7724 179.549V179.549ZM59.5713 224.242C59.5713 224.242 55.374 224.461 56.1935 225.971C56.5233 226.58 55.374 227.28 53.5652 227.639C48.3586 228.669 43.2519 225.451 41.513 220.434C37.6855 209.361 41.1133 201.715 45.3006 196.918C49.1981 192.451 53.7351 190.442 53.7351 190.442L80.2779 189.023C86.4139 189.093 86.6038 185.016 86.6038 185.016C89.6818 178.67 91.3407 135.836 90.871 122.674C90.7611 119.476 88.3426 116.838 85.1747 116.418L78.2392 115.509L68.2457 114.2C75.531 96.8002 68.3456 80.6402 68.3456 80.6402C68.0458 79.431 67.5361 78.3117 66.9465 77.2223C62.5194 68.9874 64.0884 45.6118 64.0884 45.6118C64.1184 44.9622 64.2983 44.2027 64.0384 43.683C63.2389 42.074 62.3295 40.515 61.3502 39.0159C60.2609 37.337 59.1316 35.718 58.4221 33.7891C57.3628 30.861 57.8225 28.0627 58.9617 25.4043C59.5613 24.0052 60.7306 22.746 61.9198 21.7466C63.4288 20.4674 65.2476 19.6079 67.3063 19.478C70.2544 19.2981 72.7827 20.3374 75.1212 22.0764C77.04 23.4955 78.469 25.0945 78.9088 27.573C79.3585 35.2882 75.3111 36.5774 72.1132 36.4275C70.6441 36.3476 69.6348 37.9366 70.3643 39.2158C87.3433 68.8275 97.3568 112.271 99.7252 123.364C100.075 125.003 100.485 126.602 100.964 128.211C105.082 142.162 124.339 217.846 59.5713 224.242V224.242ZM145.516 108.423C145.516 108.423 144.396 112.111 138.13 112.571C136.801 112.67 135.222 112.61 133.383 112.351C133.024 112.301 132.684 112.261 132.304 112.201C130.825 111.871 129.646 111.591 128.686 111.351C126.468 110.782 124.949 108.743 125.019 106.444L125.938 76.153C125.998 74.2841 127.237 72.6651 129.026 72.1355C129.746 71.9156 130.645 71.7657 131.685 71.6957C133.673 71.5758 136.301 71.8357 139.699 72.8251C140.779 73.1349 141.918 73.4946 143.157 73.9643C143.157 73.9643 145.985 75.3835 145.985 81.1999C145.985 87.0163 145.516 108.423 145.516 108.423V108.423Z" fill="black"/>
<path d="M59.5713 224.242C59.5713 224.242 55.3741 224.461 56.1935 225.971C56.5233 226.58 55.3741 227.28 53.5652 227.639C48.3586 228.669 43.2519 225.451 41.5131 220.434C37.6855 209.361 41.1133 201.715 45.3006 196.918C49.1981 192.451 53.7351 190.442 53.7351 190.442L80.2779 189.023C86.4139 189.093 86.6038 185.016 86.6038 185.016C89.6818 178.67 91.3407 135.836 90.871 122.674C90.7611 119.476 88.3427 116.838 85.1747 116.418L78.2392 115.509L68.2457 114.2C75.531 96.8002 68.3456 80.6402 68.3456 80.6402C68.0458 79.431 67.5362 78.3117 66.9465 77.2223C62.5194 68.9874 64.0884 45.6118 64.0884 45.6118C64.1184 44.9622 64.2983 44.2027 64.0384 43.683C63.239 42.074 62.3295 40.515 61.3502 39.0159C60.2609 37.337 59.1316 35.718 58.4221 33.7891C57.3628 30.861 57.8225 28.0627 58.9617 25.4043C59.5613 24.0052 60.7306 22.746 61.9198 21.7466C63.4288 20.4674 65.2476 19.6079 67.3063 19.478C70.2544 19.2981 72.7828 20.3374 75.1212 22.0764C77.04 23.4955 78.4691 25.0945 78.9088 27.573C79.3585 35.2882 75.3111 36.5774 72.1132 36.4275C70.6441 36.3476 69.6348 37.9366 70.3643 39.2158C87.3433 68.8275 97.3568 112.271 99.7253 123.364C100.075 125.003 100.485 126.602 100.964 128.211C105.082 142.162 124.339 217.846 59.5713 224.242V224.242Z" fill="white"/>
</g>
<defs>
<clipPath id="clip0_428_6761">
<rect width="154" height="243" fill="white"/>
</clipPath>
</defs>
</svg>
