<svg width="151" height="302" viewBox="0 0 151 302" fill="none" xmlns="http://www.w3.org/2000/svg">
<g>
<path d="M118.896 40.5085C122.694 37.8527 125.9 34.7259 128.445 31.2082C131.04 27.6103 132.423 23.792 132.674 19.5427C132.734 18.5706 132.814 17.5985 132.894 16.6263C132.954 15.9348 133.004 15.2433 133.054 14.5518C133.225 12.1165 133.986 9.72124 135.389 7.22579L135.77 6.5443L130.519 4.19917C128.555 3.67804 126.511 4.58001 125.539 6.36391C123.706 9.74129 119.127 17.9091 114.668 25.2151C114.187 25.8665 113.736 26.5681 113.325 27.3899C112.113 29.3441 110.92 31.1882 109.828 32.7917C107.794 35.7782 107.894 39.0353 111.101 40.6989L111.251 40.7791L115.299 42.8837L117.443 41.4606C117.934 41.1399 118.415 40.8292 118.886 40.4885L118.896 40.5085Z" fill="#FF4133"/>
<path d="M143.154 9.85153L142.734 9.66112L141.07 11.0341C139.708 12.1566 138.796 13.6198 137.744 15.6141C136.832 17.3579 136.441 19.2721 136.14 21.6072L135.82 24.1127C135.609 25.7262 135.409 27.3498 135.179 28.9633C134.557 33.423 132.664 37.6022 129.387 41.7312C127.704 43.8558 125.77 45.6297 124.127 47.0328C126.471 47.3134 128.856 46.221 130.078 44.0463C135.7 34.0244 143.004 21.8578 145.279 13.3993C145.699 11.8459 144.708 10.2624 143.154 9.85153V9.85153Z" fill="#FF4133"/>
<path d="M90.9808 60.8029L90.3495 62.677L90.9808 60.8029Z" fill="#F7BE68"/>
<path d="M85.3496 67.3572C85.5901 67.0565 85.8406 66.7559 86.081 66.4552C85.8305 66.7559 85.5901 67.0565 85.3496 67.3572Z" fill="#F7BE68"/>
<path d="M87.9447 64.2705C87.5038 64.7615 87.093 65.2526 86.6822 65.7337C87.083 65.2526 87.5038 64.7615 87.9447 64.2705Z" fill="#F7BE68"/>
<path d="M90.3495 62.677C88.7563 68.0788 87.2734 73.5407 83.6762 78.1007C89.0669 78.3111 94.628 73.9717 98.9766 73.21C99.5277 73.5808 98.3253 74.9638 97.6941 76.0262C97.6039 76.1865 97.4837 76.3569 97.3634 76.5272C95.5498 79.3434 92.9547 81.2877 90.4397 83.4123C89.5479 84.1639 90.3595 84.0136 91.6521 83.5827C94.4376 82.6506 96.9526 81.0672 99.0468 79.0127C102.434 75.6854 107.554 69.9729 110.199 63.599C110.419 63.0578 110.209 62.4264 109.718 62.1057C109.147 61.7249 108.375 61.8852 107.985 62.4565C104.628 67.4374 100.86 65.5032 94.7783 68.5398L94.4577 68.7001C94.0168 61.1637 101.231 47.143 101.231 47.143C101.652 45.7299 100.981 45.279 100.219 45.3391C96.2713 48.3557 94.1971 51.9435 92.5739 55.9823L90.9607 60.8129L90.3295 62.697L90.3495 62.677Z" fill="black"/>
<path d="M29.5186 164.069C23.5768 164.66 17.9557 166.544 12.2644 168.268C7.53497 169.701 6.00193 172.447 5.93179 177.227C5.93179 177.227 3.93782 211.903 12.9357 226.645C15.2102 230.373 25.4005 228.489 29.7291 226.876C33.5467 225.453 32.3543 221.644 32.1138 218.608C30.7311 201.31 29.4385 184.022 32.8453 166.805C33.4465 163.748 31.5226 163.918 29.5287 164.059L29.5186 164.069Z" fill="#DCDEE3"/>
<path d="M51.7328 223.468L82.2334 220.682C83.8867 220.632 84.1772 219.369 84.2674 217.906C85.1592 203.936 86.4317 190.005 83.9167 176.015C81.2314 161.052 81.0009 160.621 65.1995 160.691C57.1335 160.731 54.7287 160.751 53.8971 164.6C53.7768 165.422 53.6767 166.153 53.5965 166.764C53.4863 168.137 53.4261 169.831 53.366 171.906L51.312 201.32C50.7308 206.221 50.0394 214.93 49.2879 220.923C49.1076 222.356 50.2999 223.579 51.7328 223.448V223.468Z" fill="#DCDEE3"/>
<path d="M86.091 66.4552C85.8405 66.7559 85.59 67.0565 85.3596 67.3572C85.1892 67.5677 85.0189 67.7781 84.8586 67.9886C83.8867 69.2113 82.9648 70.3938 82.043 71.5163C81.9127 71.6666 81.7925 71.827 81.6622 71.9773C81.4318 72.2579 81.1913 72.5285 80.9608 72.7991C80.8005 72.9795 80.6402 73.1499 80.4899 73.3303C80.2695 73.5808 80.039 73.8314 79.8086 74.0619C78.8967 75.0139 77.9348 75.9059 76.8727 76.7277C76.3717 77.1085 75.8407 77.5495 75.3798 78.0205C75.2695 78.1408 75.1693 78.251 75.0691 78.3713C75.0391 78.4114 75.009 78.4514 74.979 78.4815C74.9088 78.5717 74.8487 78.6619 74.7886 78.7421C74.7585 78.7822 74.7385 78.8223 74.7084 78.8624C74.6383 78.9826 74.5681 79.1029 74.508 79.2131C74.508 79.2131 74.508 79.2231 74.508 79.2332C74.4479 79.3534 74.4078 79.4737 74.3778 79.5939C74.3677 79.634 74.3577 79.6641 74.3577 79.7042C74.3377 79.7944 74.3277 79.8846 74.3277 79.9648C74.3277 80.0048 74.3277 80.0349 74.3277 80.075C74.3277 80.1953 74.3477 80.3055 74.3778 80.4258C74.4178 80.536 74.478 80.6463 74.5481 80.7565C74.5681 80.7866 74.5982 80.8166 74.6182 80.8567C74.6784 80.9369 74.7485 81.0171 74.8387 81.0872C74.8687 81.1173 74.9088 81.1473 74.9389 81.1774C75.0591 81.2776 75.1994 81.3778 75.3697 81.468C75.5401 81.5582 75.7405 81.6484 75.9509 81.7386C76.011 81.7687 76.0812 81.7887 76.1513 81.8088C76.3216 81.8689 76.512 81.929 76.7124 81.9892C76.7926 82.0092 76.8727 82.0393 76.9529 82.0593C77.2435 82.1295 77.5441 82.1996 77.8847 82.2598C79.548 82.5604 81.061 83.4123 81.4117 85.3966C81.5821 86.3587 81.9528 87.1104 83.0951 87.2908C85.3896 86.7596 87.5239 85.6973 89.3475 84.204C92.1932 81.8589 95.8304 78.7721 97.4135 76.5072C97.5238 76.3368 97.634 76.1765 97.7442 76.0061C98.3654 74.9338 99.5778 73.5608 99.0267 73.19C94.6781 73.9516 89.1271 78.2911 83.7263 78.0806C87.3235 73.5207 88.8064 68.0587 90.3996 62.6569L91.0308 60.7728C90.2593 62.1057 89.2673 63.3585 87.9948 64.2404C87.5539 64.7315 87.1431 65.2225 86.7323 65.7036C86.5319 65.9441 86.3315 66.1846 86.1411 66.4252L86.091 66.4552Z" fill="#F7BE68"/>
<path d="M97.3735 76.5272C97.4937 76.3569 97.6039 76.1865 97.7041 76.0262C97.6039 76.1965 97.4837 76.3569 97.3735 76.5272Z" fill="#F7BE68"/>
<path d="M74.508 80.7665C74.4379 80.6563 74.3778 80.546 74.3377 80.4358C74.3778 80.546 74.4379 80.6563 74.508 80.7665Z" fill="#F7BE68"/>
<path d="M77.8547 82.2798C77.514 82.2197 77.2034 82.1495 76.9228 82.0794C77.2134 82.1495 77.514 82.2197 77.8547 82.2798Z" fill="#F7BE68"/>
<path d="M75.3297 81.4781C75.1593 81.3879 75.019 81.2877 74.8988 81.1874C75.019 81.2877 75.1593 81.3879 75.3297 81.4781Z" fill="#F7BE68"/>
<path d="M74.7986 81.0972C74.7185 81.0171 74.6383 80.9469 74.5782 80.8667C74.6383 80.9469 74.7084 81.0271 74.7986 81.0972Z" fill="#F7BE68"/>
<path d="M75.9208 81.7587C75.7004 81.6685 75.51 81.5883 75.3397 81.4881C75.51 81.5783 75.7104 81.6685 75.9208 81.7587Z" fill="#F7BE68"/>
<path d="M76.6824 82.0092C76.482 81.9491 76.3016 81.889 76.1212 81.8288C76.2916 81.889 76.482 81.9491 76.6824 82.0092Z" fill="#F7BE68"/>
<path d="M82.033 71.5163C82.9548 70.3938 83.8767 69.2113 84.8486 67.9886C83.8767 69.2113 82.9548 70.3938 82.033 71.5163Z" fill="#F7BE68"/>
<path d="M80.9508 72.7991C81.1913 72.5285 81.4218 72.2579 81.6522 71.9773C81.4218 72.2579 81.1813 72.5285 80.9508 72.7991Z" fill="#F7BE68"/>
<path d="M80.4699 73.3202C80.2494 73.5708 80.019 73.8213 79.7885 74.0518C80.019 73.8113 80.2394 73.5608 80.4699 73.3202Z" fill="#F7BE68"/>
<path d="M74.3377 80.4258C74.2976 80.3155 74.2876 80.1953 74.2876 80.075C74.2876 80.1953 74.3076 80.3055 74.3377 80.4258Z" fill="#F7BE68"/>
<path d="M75.3597 78.0105C75.2495 78.1307 75.1493 78.241 75.0491 78.3613C75.1493 78.241 75.2495 78.1207 75.3597 78.0105Z" fill="#F7BE68"/>
<path d="M74.3477 79.594C74.3778 79.4737 74.4179 79.3534 74.478 79.2332C74.4179 79.3534 74.3778 79.4737 74.3477 79.594Z" fill="#F7BE68"/>
<path d="M74.2876 79.9648C74.2876 79.8746 74.2976 79.7844 74.3177 79.7042C74.2976 79.7944 74.2876 79.8846 74.2876 79.9648Z" fill="#F7BE68"/>
<path d="M74.488 79.2131C74.5481 79.0929 74.6082 78.9726 74.6884 78.8624C74.6183 78.9826 74.5481 79.1029 74.488 79.2131Z" fill="#F7BE68"/>
<path d="M74.7585 78.7421C74.8186 78.6519 74.8788 78.5617 74.9489 78.4815C74.8788 78.5717 74.8186 78.6619 74.7585 78.7421Z" fill="#F7BE68"/>
<path d="M74.6784 95.3484C72.1033 100.289 68.7766 104.889 68.0652 110.602C67.6544 113.909 64.1975 114.621 62.915 117.487C61.8228 119.942 60.8208 122.428 59.8589 124.923C59.0273 129.002 56.893 143.564 55.2798 154.858C55.2498 155.049 55.2197 155.249 55.1997 155.44C55.6205 155.46 56.0814 155.44 56.6025 155.39C62.5342 154.778 68.4961 154.838 74.4479 155.299C81.011 155.811 86.592 160.481 88.1151 166.885C92.2833 184.403 91.2313 202.092 90.0489 219.79C89.8084 223.418 87.8445 225.964 84.1772 226.144L47.8651 229.151L46.803 233.51C46.7228 234.783 46.3421 235.765 45.7509 236.497C44.7389 237.73 43.0756 238.241 41.0215 238.181C39.5686 237.689 39.8391 238.581 40.0295 239.413C43.1557 249.124 47.0735 258.505 51.9232 267.485C52.1837 267.976 52.4242 268.838 52.7548 268.878C60.8509 269.9 63.8168 277.476 69.1674 281.936C78.6763 289.843 95.0488 289.352 104.788 281.736C122.924 267.545 126.652 247.842 127.253 226.856C128.105 197.151 122.704 168.228 116.592 139.264C114.227 128.03 108.185 118.91 104.688 108.487C103.446 104.779 100.319 102.083 97.8043 99.0765C96.652 97.6935 95.3394 96.3205 94.4076 94.7872C93.7763 93.7449 93.5559 92.5623 93.6962 91.4398C91.5619 91.8507 87.1431 92.2215 79.8787 90.7884C77.4739 91.2895 75.9609 92.9231 74.6884 95.3584L74.6784 95.3484Z" fill="white"/>
<path d="M149.477 8.79923C148.114 7.38614 146.351 6.41402 144.497 5.77262L136.291 2.1046L134.407 1.26276C131.531 -0.410895 125.69 -0.781705 124.056 2.47541C120.73 9.11993 116.521 13.7901 112.804 20.2342L104.768 34.796C103.926 36.3194 103.886 38.0632 104.478 39.5665C104.938 40.739 105.76 41.7713 106.942 42.4428L122.734 51.3522C122.163 53.5971 121.551 55.6917 120.9 57.666C112.213 84.0337 96.8424 87.2206 96.8424 87.2206C95.0288 87.9622 93.9066 89.6259 93.6962 91.4298C93.5659 92.5523 93.7863 93.7349 94.4076 94.7771C95.3294 96.3105 96.652 97.6835 97.8043 99.0665C100.309 102.073 103.446 104.769 104.688 108.477C108.185 118.9 114.227 128.02 116.592 139.254C122.704 168.228 128.105 197.141 127.253 226.846C126.652 247.832 122.924 267.535 104.788 281.726C95.0488 289.342 78.6763 289.843 69.1674 281.926C63.8168 277.476 60.8609 269.89 52.7548 268.868C52.4242 268.828 52.1837 267.966 51.9232 267.475C47.0735 258.495 43.1557 249.124 40.0295 239.403C39.8291 238.571 39.5586 237.679 41.0215 238.171C43.0656 238.231 44.7389 237.72 45.7509 236.487C46.3521 235.755 46.7228 234.773 46.803 233.5L47.8651 229.141L84.1772 226.134C87.8445 225.954 89.8084 223.408 90.0489 219.78C91.2313 202.082 92.2833 184.403 88.1151 166.875C86.592 160.471 81.011 155.8 74.4479 155.289C68.4961 154.828 62.5342 154.768 56.6025 155.38C56.0814 155.43 55.6105 155.45 55.1997 155.43C55.2297 155.239 55.2598 155.039 55.2798 154.848C56.893 143.554 59.0273 128.992 59.8589 124.913C60.8208 122.418 61.8228 119.932 62.915 117.477C64.1975 114.6 67.6444 113.889 68.0652 110.592C68.7766 104.889 72.1033 100.279 74.6784 95.3384C75.9509 92.903 77.4539 91.2695 79.8687 90.7684C80.52 90.6281 81.2314 90.5679 82.033 90.608C83.8867 90.7082 86.8926 90.9788 86.8526 88.1827C86.8125 85.2764 84.3877 87.5113 83.065 87.3008C81.9228 87.1204 81.552 86.3788 81.3817 85.4067C81.041 83.4223 79.518 82.5705 77.8547 82.2698C77.514 82.2097 77.2034 82.1395 76.9228 82.0694C76.8326 82.0493 76.7625 82.0293 76.6823 81.9992C76.4819 81.9391 76.3016 81.8789 76.1212 81.8188C76.0511 81.7988 75.981 81.7687 75.9208 81.7487C75.7004 81.6585 75.51 81.5783 75.3397 81.4781C75.1693 81.3879 75.0291 81.2877 74.9088 81.1874C74.8687 81.1574 74.8387 81.1273 74.8086 81.0972C74.7285 81.0171 74.6483 80.9469 74.5882 80.8667C74.5682 80.8367 74.5381 80.8066 74.5181 80.7665C74.4479 80.6563 74.3878 80.546 74.3477 80.4358C74.3076 80.3256 74.2976 80.2053 74.2976 80.085C74.2976 80.0449 74.2976 80.0149 74.2976 79.9748C74.2976 79.8846 74.3076 79.7944 74.3277 79.7142C74.3277 79.6741 74.3377 79.6441 74.3477 79.604C74.3778 79.4837 74.4179 79.3634 74.478 79.2432C74.478 79.2432 74.478 79.2332 74.478 79.2231C74.5381 79.1029 74.5982 78.9826 74.6784 78.8724C74.6984 78.8323 74.7285 78.7922 74.7585 78.7521C74.8186 78.6619 74.8788 78.5717 74.9489 78.4915C74.979 78.4515 75.009 78.4114 75.0391 78.3813C75.1393 78.261 75.2395 78.1408 75.3497 78.0305C75.8507 77.4994 76.4519 76.9983 77.003 76.5774C78.015 75.8057 78.9168 74.9739 79.7785 74.0819C80.009 73.8414 80.2294 73.5908 80.4599 73.3503C80.6202 73.1799 80.7805 72.9995 80.9308 72.8191C81.1713 72.5486 81.4017 72.278 81.6322 71.9973C81.7624 71.847 81.8827 71.6967 82.0129 71.5363C82.9348 70.4139 83.8566 69.2313 84.8285 68.0086C84.9989 67.7982 85.1592 67.5877 85.3295 67.3773C85.57 67.0766 85.8205 66.7759 86.061 66.4753C86.2614 66.2348 86.4518 65.9942 86.6522 65.7537C87.063 65.2727 87.4738 64.7816 87.9147 64.2905C87.9447 64.2504 87.9748 64.2103 88.0149 64.1803C74.3577 63.3484 62.2336 58.8185 51.5123 71.1154C44.1978 79.5038 40.771 88.2829 43.4163 98.0443C45.791 106.813 44.809 113.979 42.2439 122.428C39.0075 133.081 37.9754 144.396 33.5767 154.889C33.5567 154.939 33.5366 154.989 33.5166 155.039C32.5146 157.404 31.6429 158.356 29.4184 158.446C21.1019 158.817 13.5269 161.994 5.78149 164.55C2.59516 165.602 1.12223 167.556 0.711415 171.034C-0.671332 182.739 1.51198e-06 194.114 1.77352 205.549C2.88573 212.715 4.70936 220.061 7.53497 226.856C8.41672 228.97 8.76742 232.017 11.553 232.348C18.5268 233.17 22.2743 232.298 28.7371 233.119L29.9796 236.517L32.4445 243.282C37.6548 256.611 44.2078 269.288 52.0434 281.225C55.0694 285.825 56.6425 289.894 53.5063 294.854C52.4542 296.528 52.4843 298.041 54.5384 298.983C60.8108 301.84 67.1735 303.303 73.7866 300.106C75.8507 299.104 78.015 298.021 76.2815 295.075C75.8307 294.624 75.3798 294.163 74.9289 293.712C74.9289 293.712 86.5319 295.115 95.2192 294.033C98.7362 293.592 101.572 296.398 104.758 298.813C104.758 298.813 113.335 306.46 134.577 298.242C137.263 297.2 133.004 294.453 130.99 293.381C126.01 290.715 120.74 288.561 115.77 285.464C114.447 284.632 114.217 282.788 115.289 281.666C119.247 277.516 122.594 273.137 125.129 268.066C132.323 253.725 134.237 238.712 134.297 223.508C134.347 211.352 133.175 199.215 131.161 187.229L124.938 150.188C124.267 146.22 124.638 142.151 126.04 138.372C131.852 122.748 137.082 88.9344 140.479 63.0277C142.984 43.8959 144.497 29.0635 144.497 29.0635C147.844 22.7798 147.754 19.7031 150.349 14.3714C151.471 12.0664 150.92 10.4027 149.417 8.85937L149.477 8.79923ZM32.8453 166.815C29.4385 184.042 30.7411 201.33 32.1138 218.618C32.3543 221.654 33.5467 225.463 29.7291 226.886C25.4105 228.499 15.2102 230.373 12.9357 226.655C3.93783 211.913 5.93179 177.237 5.93179 177.237C6.00193 172.457 7.53497 169.711 12.2644 168.278C17.9557 166.554 23.5668 164.67 29.5186 164.079C31.5126 163.938 33.4465 163.768 32.8352 166.825L32.8453 166.815ZM83.9167 176.025C86.4217 190.015 85.1592 203.946 84.2674 217.916C84.1772 219.369 83.8867 220.642 82.2334 220.692L51.7328 223.478C50.2899 223.609 49.1076 222.386 49.2879 220.953C50.0394 214.96 50.7308 206.251 51.3119 201.35L53.366 171.936C53.4261 169.861 53.4762 168.168 53.5965 166.795C53.6867 166.173 53.7869 165.452 53.8971 164.63C54.7287 160.781 57.1435 160.751 65.1995 160.721C81.0009 160.651 81.2314 161.082 83.9167 176.045V176.025ZM145.279 13.3993C143.004 21.8478 135.7 34.0244 130.078 44.0463C128.856 46.221 126.471 47.3134 124.127 47.0328C123.425 46.9526 122.714 46.7522 122.052 46.4014L117.273 43.916L115.309 42.8937L111.261 40.7891L111.111 40.709C107.904 39.0453 107.804 35.7882 109.838 32.8017C110.93 31.1882 112.123 29.3441 113.335 27.3999C113.736 26.5781 114.197 25.8766 114.678 25.2251C119.137 17.9292 123.706 9.75131 125.549 6.37393C126.521 4.59003 128.565 3.68806 130.529 4.2092L135.78 6.55433L136.872 7.0454L140.76 8.78921L142.744 9.67114L143.164 9.86156C144.718 10.2725 145.709 11.8559 145.289 13.4093L145.279 13.3993Z" fill="black"/>
</g>
<defs>
<clipPath id="clip0_428_6700">
<rect width="151" height="302" fill="white"/>
</clipPath>
</defs>
</svg>
