<svg width="224" height="165" viewBox="0 0 224 165" fill="none" xmlns="http://www.w3.org/2000/svg">
<g>
<path d="M113.764 149.217L197.665 148.11C197.665 148.11 201.663 148.26 202.682 144.728C204.251 139.261 217.064 78.3448 218.233 72.748L127.666 71.7803C125.857 71.7604 124.268 72.9675 123.808 74.7134L105.729 149.088C106.398 149.227 106.898 149.437 107.398 149.437C109.516 149.407 111.645 149.367 113.754 149.227L113.764 149.217Z" fill="#DCDEE3"/>
<path d="M223.45 69.2962C222.381 67.3209 220.242 67.3309 218.253 67.1313H218.233L125.797 66.0239C125.797 66.0239 122.739 66.1038 120.41 63.8591C119.091 62.602 118.011 60.6067 117.842 57.4243C117.832 57.2447 118.041 57.125 118.191 57.2247L122.919 60.4372C124.818 62.0533 129.125 63.5199 129.235 61.7441C129.575 56.3368 122.589 44.8241 121.699 43.8264C120.82 42.8387 121.999 40.0853 121.999 40.0853C122.919 35.6358 122.569 31.3559 121.569 27.485C118.921 17.0996 111.245 8.73934 101.361 4.5692C67.0411 -9.87665 52.8993 13.947 49.931 20.6612C49.4013 21.8583 48.7417 22.9857 47.9921 24.0631C44.8639 28.6124 36.209 42.5993 25.715 71.7305C23.2765 78.4945 4.66726 146.803 0.219846 152.46C0.219846 152.46 -2.98829 161.828 14.8414 161.329C22.5769 161.109 32.4012 162.935 45.4136 161.099C46.8328 160.91 48.222 161.818 49.6512 161.997C58.4161 163.095 67.3409 161.468 76.0658 163.972C79.5738 164.98 83.4316 164.94 87.1394 165C90.2676 165.05 93.3958 164.481 96.524 164.322C97.2735 164.282 98.0231 164.262 98.7627 164.232C101.221 164.162 103.69 164.152 106.148 164.112C138.23 163.573 163.675 165.269 195.736 163.114C197.585 162.995 199.434 162.486 201.203 161.937C202.752 161.468 203.842 159.044 203.242 157.887C202.183 155.802 200.294 155.243 198.155 156.321C197.825 156.49 197.465 156.62 197.096 156.65C192.768 156.989 188.441 157.588 184.103 157.607C158.728 157.737 139.999 157.737 114.613 157.807C113.354 157.807 112.735 157.258 112.335 155.951C112.974 155.852 113.514 155.712 114.054 155.692C125.067 155.303 136.071 154.774 147.095 154.595L203.442 153.437C206.95 153.318 206.97 150.095 206.97 150.025L223.93 72.6184C224.1 71.4112 223.95 70.224 223.45 69.2962ZM69.6995 33.4011C71.3186 29.9592 72.9676 26.4874 75.9359 23.9434C77.7848 22.3671 79.6438 20.3419 82.4221 22.417L94.2952 28.9216C94.2952 28.9216 94.3252 28.9416 94.3352 28.9516C95.6445 30.2186 97.7932 30.9967 97.3535 33.4609C96.9837 35.5759 100.791 38.1498 103.1 39.5465C103.6 39.8458 103.8 40.4644 103.57 40.9931C103.34 41.5318 102.76 41.8112 102.201 41.6516C99.972 41.023 95.8044 39.5864 94.4152 39.3769C92.7661 39.1275 91.0671 39.1574 89.8578 40.624C88.8784 41.8211 87.5592 42.9385 87.0994 44.3352C86.3599 46.5699 85.2305 49.0042 86.6997 51.3786C87.4692 52.6057 88.4087 53.7829 89.4581 54.7705C90.8972 56.1174 92.4663 57.3046 94.5751 55.7881C94.5751 55.7881 106.068 49.5629 110.196 54.8204C110.366 55.0399 110.706 55.4988 110.906 55.8879C111.565 57.1649 112.245 58.4319 112.844 59.7388C113.474 61.1056 114.224 62.4624 114.773 63.8591C114.983 64.4078 115.173 64.9565 115.303 65.5151C115.843 67.8696 116.942 69.4359 119.191 70.234L118.891 72.4288C118.891 72.4288 118.841 72.4887 118.831 72.5286L98.7627 148.818L98.3329 150.474C98.3029 150.594 98.183 150.664 98.0631 150.634L95.5945 150.025C95.5345 149.966 95.4846 149.916 95.4246 149.856C91.3869 125.553 77.8748 105.431 76.9453 104.084C76.9353 104.014 76.9353 103.974 76.9253 103.914L80.0335 91.7731C82.592 81.1282 81.8225 63.021 81.8225 62.9213C82.1723 61.4547 82.4321 60.0481 82.4321 58.7013C82.4321 56.6162 81.8025 54.6708 79.9136 52.9149C76.0958 49.3633 72.5679 45.5124 70.0193 40.9133C69.3497 39.6862 68.7201 38.2795 68.6301 36.9227C68.5602 35.7655 69.1698 34.5084 69.6995 33.4011ZM74.2469 152.14C70.7289 152.619 67.191 152.968 63.663 153.338C59.1756 153.816 54.6882 154.315 50.2008 154.704C49.4213 154.774 48.3319 154.605 47.8422 154.106C46.2731 152.49 44.2843 151.961 42.2555 151.432C41.8857 151.332 41.5359 151.143 41.1761 151.003C41.1061 150.814 41.0462 150.634 40.9862 150.454C42.3854 149.706 43.7746 148.918 45.1937 148.22C47.7123 146.993 50.3408 145.965 52.7494 144.558C54.1485 143.75 55.4678 143.621 56.827 144.069C58.9358 144.768 60.9546 145.736 63.0534 146.494C64.8324 147.132 66.6513 147.691 68.4902 148.16C71.7383 148.988 75.0064 149.706 78.2546 150.474C78.2845 150.684 78.3045 150.883 78.3345 151.083C76.9753 151.452 75.6261 151.961 74.2469 152.14ZM98.7627 157.208C93.1759 157.997 85.2705 158.017 83.9313 156.819C85.7702 156.67 87.3193 156.55 88.8584 156.4C92.1565 156.071 95.4646 155.712 98.7627 155.413C99.3023 155.363 99.842 155.303 100.382 155.263C101.521 155.173 102.69 155.463 104.219 155.622C103.56 156.291 101.421 156.839 98.7627 157.208ZM202.672 144.718C201.663 148.25 197.655 148.1 197.655 148.1L113.754 149.217C111.645 149.357 109.516 149.397 107.398 149.427C106.898 149.437 106.388 149.227 105.719 149.078L123.798 74.7034C124.258 72.9575 125.857 71.7504 127.656 71.7704L218.233 72.7381C217.054 78.3348 204.251 139.251 202.672 144.718Z" fill="black"/>
<path d="M78.3345 151.083C76.9753 151.452 75.6261 151.961 74.2469 152.14C70.7289 152.619 67.191 152.968 63.663 153.338C59.1757 153.816 54.6883 154.315 50.2009 154.704C49.4213 154.774 48.3319 154.605 47.8422 154.106C46.2731 152.49 44.2843 151.961 42.2555 151.432C41.8857 151.332 41.5359 151.143 41.1761 151.003C41.1061 150.814 41.0462 150.634 40.9862 150.454C42.3854 149.706 43.7746 148.918 45.1938 148.22C47.7123 146.993 50.3408 145.965 52.7494 144.558C54.1486 143.75 55.4678 143.621 56.827 144.069C58.9358 144.768 60.9546 145.736 63.0534 146.494C64.8324 147.132 66.6513 147.691 68.4902 148.16C71.7384 148.988 75.0065 149.706 78.2546 150.474C78.2846 150.684 78.3045 150.883 78.3345 151.083Z" fill="white"/>
<path d="M119.191 70.234L118.891 72.4288C118.891 72.4288 118.841 72.4887 118.831 72.5286L98.7627 148.818L98.3329 150.474C98.3029 150.594 98.183 150.664 98.0631 150.634L95.5945 150.025C95.5345 149.966 95.4846 149.916 95.4246 149.856C91.3869 125.553 77.8748 105.431 76.9453 104.084C76.9353 104.014 76.9353 103.974 76.9253 103.914L80.0335 91.7731C82.592 81.1282 81.8225 63.021 81.8225 62.9213C82.1723 61.4547 82.4321 60.0481 82.4321 58.7013C82.4321 56.6162 81.8025 54.6708 79.9136 52.9149C76.0958 49.3633 72.5679 45.5124 70.0193 40.9133C69.3497 39.6862 68.7201 38.2795 68.6301 36.9227C68.5602 35.7655 69.1698 34.5084 69.6995 33.401C71.3186 29.9592 72.9676 26.4874 75.9359 23.9434C77.7848 22.3671 79.6438 20.3419 82.4221 22.417L94.2952 28.9216C94.2952 28.9216 94.3252 28.9416 94.3352 28.9516C95.6445 30.2186 97.7932 30.9967 97.3535 33.4609C96.9837 35.5759 100.791 38.1498 103.1 39.5465C103.6 39.8458 103.8 40.4644 103.57 40.9931C103.34 41.5318 102.76 41.8112 102.201 41.6516C99.972 41.023 95.8044 39.5864 94.4152 39.3769C92.7661 39.1275 91.0671 39.1574 89.8578 40.624C88.8784 41.8211 87.5592 42.9385 87.0994 44.3352C86.3599 46.5699 85.2305 49.0042 86.6997 51.3786C87.4692 52.6057 88.4087 53.7829 89.4581 54.7705C90.8972 56.1174 92.4663 57.3046 94.5751 55.7881C94.5751 55.7881 106.068 49.5629 110.196 54.8204C110.366 55.0399 110.706 55.4988 110.906 55.8879C111.565 57.1649 112.245 58.4319 112.844 59.7388C113.474 61.1056 114.224 62.4624 114.773 63.8591C114.983 64.4078 115.173 64.9565 115.303 65.5151C115.843 67.8696 116.942 69.4359 119.191 70.234Z" fill="white"/>
</g>
<defs>
<clipPath id="clip0_428_6769">
<rect width="224" height="165" fill="white"/>
</clipPath>
</defs>
</svg>
