<svg width="24" height="24" viewBox="0 0 24 24" fill="none" xmlns="http://www.w3.org/2000/svg" data-karrot-ui-icon="true">
  <path fill-rule="evenodd" clip-rule="evenodd" d="M12.4999 3.5999C17.4741 3.5999 21.3999 7.22895 21.3999 11.5805C21.3999 14.0754 20.1207 16.3197 18.0855 17.7932C17.9297 17.9061 17.8374 18.0868 17.8374 18.2792V20.9272C17.6365 20.8045 17.4157 20.6702 17.1892 20.5333C16.3911 20.0509 15.461 19.4985 15.1235 19.3448C15.0031 19.29 14.8679 19.2765 14.739 19.3064C14.0244 19.4726 13.2741 19.5612 12.4999 19.5612C7.52566 19.5612 3.5999 15.9321 3.5999 11.5805C3.5999 7.22895 7.52566 3.5999 12.4999 3.5999ZM18.1215 22.51C18.3065 22.6246 18.5392 22.63 18.7293 22.5241C18.9195 22.4182 19.0374 22.2176 19.0374 21.9999V18.5796C21.2049 16.9054 22.5999 14.3991 22.5999 11.5805C22.5999 6.45422 18.0191 2.3999 12.4999 2.3999C6.98074 2.3999 2.3999 6.45422 2.3999 11.5805C2.3999 16.7069 6.98074 20.7612 12.4999 20.7612C13.289 20.7612 14.0578 20.6789 14.7961 20.5229C15.1592 20.7171 15.8696 21.1378 16.5684 21.5602C16.9751 21.806 17.3634 22.0435 17.6503 22.2197C17.7937 22.3077 17.9116 22.3804 17.9936 22.431L18.1215 22.51Z" fill="currentColor"/>
  <path fill-rule="evenodd" clip-rule="evenodd" d="M16.3534 8.51502C16.6211 8.71025 16.6799 9.08558 16.4847 9.35333L12.1097 15.3533C12.0076 15.4933 11.8501 15.5823 11.6776 15.5975C11.505 15.6127 11.3343 15.5526 11.2094 15.4327L8.08437 12.4327C7.84533 12.2032 7.83757 11.8233 8.06706 11.5843C8.29654 11.3453 8.67636 11.3375 8.91541 11.567L11.5448 14.0912L15.5151 8.64632C15.7103 8.37857 16.0856 8.31978 16.3534 8.51502Z" fill="currentColor"/>
</svg>
