<svg width="24" height="24" viewBox="0 0 24 24" fill="none" xmlns="http://www.w3.org/2000/svg" data-karrot-ui-icon="true">
  <path d="M14.2499 7.6499C13.9185 7.6499 13.6499 7.91853 13.6499 8.2499C13.6499 8.58127 13.9185 8.8499 14.2499 8.8499H17.7499C18.0813 8.8499 18.3499 8.58127 18.3499 8.2499C18.3499 7.91853 18.0813 7.6499 17.7499 7.6499H14.2499Z" fill="currentColor"/>
  <path d="M14.2499 9.84985C13.9185 9.84985 13.6499 10.1185 13.6499 10.4499C13.6499 10.7812 13.9185 11.0499 14.2499 11.0499H17.7499C18.0813 11.0499 18.3499 10.7812 18.3499 10.4499C18.3499 10.1185 18.0813 9.84985 17.7499 9.84985H14.2499Z" fill="currentColor"/>
  <path fill-rule="evenodd" clip-rule="evenodd" d="M12.5119 15.5992C12.2818 15.7391 11.9873 15.5733 11.9873 15.3037L11.9717 13.3016C10.5689 12.2857 9.8999 10.7523 9.8999 8.99514C9.8999 5.93262 12.631 3.44995 15.9999 3.44995C19.3688 3.44995 22.0999 5.93262 22.0999 8.99514C22.0999 12.0577 19.3688 14.5403 15.9999 14.5403C15.5486 14.5403 15.1087 14.4958 14.6853 14.4112L12.5119 15.5992ZM14.4925 13.1491L14.9203 13.2345C15.2665 13.3036 15.6277 13.3403 15.9999 13.3403C18.8163 13.3403 20.8999 11.2898 20.8999 8.99514C20.8999 6.70048 18.8163 4.64995 15.9999 4.64995C13.1835 4.64995 11.0999 6.70048 11.0999 8.99514C11.0999 10.4291 11.6311 11.5733 12.6755 12.3298L13.1669 12.6856L13.1761 13.8686L14.4925 13.1491Z" fill="currentColor"/>
  <path d="M14.0927 16.9409C13.9123 16.6293 14.0005 16.2179 14.3164 16.0452C14.5807 15.9008 14.9136 15.9761 15.069 16.234C15.7232 17.3205 16.0999 18.596 16.0999 19.9599C16.0999 20.2912 15.8313 20.5599 15.4999 20.5599H2.4999C2.16853 20.5599 1.8999 20.2912 1.8999 19.9599C1.8999 17.1821 3.45578 14.7799 5.7354 13.5839C4.58599 12.6315 3.8499 11.1833 3.8499 9.56513C3.8499 6.69455 6.14622 4.35986 8.9999 4.35986C9.23064 4.35986 9.45773 4.37513 9.68025 4.4047C10.0985 4.46028 10.2344 4.96232 9.98965 5.30593C9.85098 5.50059 9.61452 5.6006 9.3766 5.57781C9.25259 5.56594 9.12694 5.55986 8.9999 5.55986C6.82258 5.55986 5.0499 7.34359 5.0499 9.56513C5.0499 11.1461 5.96091 12.5133 7.26971 13.1585C7.48845 13.2664 7.62016 13.4959 7.6029 13.7392C7.58563 13.9825 7.42283 14.1911 7.19104 14.2669C5.00009 14.9841 3.3647 16.9573 3.12914 19.3599H14.8705C14.7843 18.4838 14.5113 17.6638 14.0927 16.9409Z" fill="currentColor"/>
</svg>
