<svg width="24" height="24" viewBox="0 0 24 24" fill="none" xmlns="http://www.w3.org/2000/svg" data-karrot-ui-icon="true">
  <path fill-rule="evenodd" clip-rule="evenodd" d="M6 8.29995C6 7.14015 6.9402 6.19995 8.1 6.19995C9.2598 6.19995 10.2 7.14015 10.2 8.29995C10.2 9.45975 9.2598 10.4 8.1 10.4C6.9402 10.4 6 9.45975 6 8.29995ZM8.1 7.39995C7.60294 7.39995 7.2 7.80289 7.2 8.29995C7.2 8.79701 7.60294 9.19995 8.1 9.19995C8.59706 9.19995 9 8.79701 9 8.29995C9 7.8029 8.59706 7.39995 8.1 7.39995Z" fill="currentColor"/>
  <path fill-rule="evenodd" clip-rule="evenodd" d="M4.9999 2.3999C3.56396 2.3999 2.3999 3.56396 2.3999 4.9999V15.9999C2.3999 17.4358 3.56396 18.5999 4.9999 18.5999H15.9999C17.4358 18.5999 18.5999 17.4358 18.5999 15.9999V4.9999C18.5999 3.56396 17.4358 2.3999 15.9999 2.3999H4.9999ZM3.5999 4.9999C3.5999 4.2267 4.2267 3.5999 4.9999 3.5999H15.9999C16.7731 3.5999 17.3999 4.2267 17.3999 4.9999V13.5516L14.224 10.3757C14.1114 10.2632 13.9588 10.2 13.7997 10.2C13.6406 10.2 13.488 10.2632 13.3754 10.3757L9.70302 14.0481L7.4506 12.051C7.22157 11.8479 6.8764 11.8498 6.6496 12.0553L3.5999 14.8195V4.9999ZM3.63324 16.305C3.77249 16.9315 4.33149 17.3999 4.9999 17.3999H15.9999C16.7731 17.3999 17.3999 16.7731 17.3999 15.9999V15.2474C17.3916 15.2399 17.3834 15.2322 17.3754 15.2242L13.7997 11.6485L10.6025 14.8457L11.398 15.551C11.6459 15.7708 11.6687 16.15 11.4488 16.398C11.229 16.6459 10.8498 16.6687 10.6018 16.4488L7.05694 13.3057L3.90285 16.1645C3.82366 16.2362 3.73054 16.2829 3.63324 16.305Z" fill="currentColor"/>
  <path d="M20.9999 6.3999C21.3313 6.3999 21.5999 6.66853 21.5999 6.9999V18.9999C21.5999 20.4358 20.4358 21.5999 18.9999 21.5999H6.9999C6.66853 21.5999 6.3999 21.3313 6.3999 20.9999C6.3999 20.6685 6.66853 20.3999 6.9999 20.3999H18.9999C19.7731 20.3999 20.3999 19.7731 20.3999 18.9999V6.9999C20.3999 6.66853 20.6685 6.3999 20.9999 6.3999Z" fill="currentColor"/>
</svg>
