<svg width="24" height="24" viewBox="0 0 24 24" fill="none" xmlns="http://www.w3.org/2000/svg" data-karrot-ui-icon="true">
  <path fill-rule="evenodd" clip-rule="evenodd" d="M18.5757 20.1757C18.8101 20.4101 19.1899 20.4101 19.4243 20.1757C19.6586 19.9414 19.6586 19.5615 19.4243 19.3272L17.629 17.5319L17.6308 17.5309L16.755 16.655L16.7531 16.6561L14.9017 14.8047L14.9032 14.8032L9.24832 9.14837L9.24683 9.14978L7.44019 7.34314L7.4421 7.34215L6.5607 6.46075L6.55885 6.4618L4.27279 4.17574C4.03848 3.94142 3.65858 3.94142 3.42426 4.17574C3.18995 4.41005 3.18995 4.78995 3.42426 5.02426L5.52255 7.12255C4.20954 8.06001 3.16212 9.21979 2.38031 10.6019C1.87323 11.4983 1.87322 12.6047 2.38034 13.5011C3.21005 14.9678 4.33891 16.1839 5.76692 17.1494C7.64153 18.4175 9.71922 19.0515 12 19.0515C13.604 19.0515 15.1076 18.7379 16.5107 18.1107L18.5757 20.1757ZM15.5961 17.1961L13.9467 15.5467C13.3705 15.8683 12.7067 16.0515 12 16.0515C9.79086 16.0515 8 14.2607 8 12.0515C8 11.3448 8.18325 10.681 8.50483 10.1048L6.37924 7.97924C5.11707 8.84132 4.12959 9.91347 3.40134 11.2009C3.10399 11.7266 3.104 12.3765 3.40134 12.9021C4.13716 14.2028 5.13761 15.2835 6.41866 16.1497C8.09731 17.2852 9.94785 17.8515 12 17.8515C13.2741 17.8515 14.4704 17.6333 15.5961 17.1961Z" fill="currentColor"/>
  <path d="M21.6197 13.5011C20.8725 14.8218 19.8829 15.9393 18.6506 16.8536L17.797 16C18.9751 15.16 19.9047 14.1288 20.5987 12.9021C20.896 12.3765 20.896 11.7266 20.5987 11.2009C19.8628 9.9001 18.8624 8.81907 17.5813 7.95245C15.9027 6.81747 14.0523 6.25152 12 6.25152C10.8079 6.25152 9.68389 6.44252 8.62207 6.82506L7.69816 5.90116C9.04135 5.33473 10.4753 5.05152 12 5.05152C14.2808 5.05152 16.3585 5.68526 18.2331 6.95272C19.6611 7.91871 20.79 9.1351 21.6197 10.6019C22.1268 11.4983 22.1268 12.6047 21.6197 13.5011Z" fill="currentColor"/>
  <path d="M16 12.0515C16 12.6789 15.8556 13.2726 15.5981 13.8011L13.7266 11.9296C13.9701 12.0087 14.2301 12.0515 14.5 12.0515C15.0501 12.0515 15.5588 11.8738 15.9716 11.5727C15.9904 11.7297 16 11.8895 16 12.0515Z" fill="currentColor"/>
  <path d="M12 9.55152C12 9.82145 12.0428 10.0814 12.1219 10.3249L10.2504 8.45343C10.7789 8.19597 11.3726 8.05152 12 8.05152C12.162 8.05152 12.3218 8.06116 12.4788 8.07988C12.1777 8.49275 12 9.00138 12 9.55152Z" fill="currentColor"/>
</svg>
