<svg width="24" height="24" viewBox="0 0 24 24" fill="none" xmlns="http://www.w3.org/2000/svg" data-karrot-ui-icon="true">
  <path fill-rule="evenodd" clip-rule="evenodd" d="M8.69509 1.30469C7.76812 1.25265 6.93997 1.64376 6.33128 2.20848C5.76975 2.72945 5.33408 3.47012 5.30173 4.3496C5.26889 5.2422 5.65557 6.15778 6.5105 7.00731C6.61522 7.11137 6.72733 7.20881 6.84537 7.30005L2.9998 7.30005C2.06092 7.30005 1.2998 8.06117 1.2998 9.00005V12.0001C1.2998 12.9389 2.06092 13.7001 2.99981 13.7001H3.2998L3.29981 21.0001C3.29981 21.9389 4.06092 22.7001 4.99981 22.7001H9.99858L9.99981 22.7001H18.9998C19.9387 22.7001 20.6998 21.9389 20.6998 21.0001L20.6998 13.7001H20.9998C21.9387 13.7001 22.6998 12.9389 22.6998 12.0001V9.00006C22.6998 8.06117 21.9387 7.30006 20.9998 7.30006L17.1544 7.30006C17.2725 7.20881 17.3846 7.11137 17.4893 7.00731C18.3442 6.15778 18.7309 5.2422 18.6981 4.3496C18.6657 3.47012 18.2301 2.72945 17.6685 2.20848C17.0598 1.64376 16.2317 1.25265 15.3047 1.30469C14.3649 1.35744 13.4447 1.85846 12.6505 2.84496C12.3847 3.17506 12.1713 3.52486 11.9999 3.88297C11.8285 3.52486 11.6151 3.17506 11.3493 2.84496C10.5551 1.85846 9.63491 1.35744 8.69509 1.30469ZM15.3832 2.70249C15.8552 2.67599 16.326 2.87263 16.7163 3.2348C17.0676 3.56067 17.2832 3.96988 17.299 4.40106C17.3144 4.81911 17.1462 5.37458 16.5025 6.01423C16.0434 6.47039 15.2422 6.80593 14.3258 7.02068C13.7559 7.1542 13.1856 7.23106 12.7075 7.26922C12.7395 6.10966 12.9051 4.7611 13.741 3.72291C14.3455 2.97203 14.924 2.72826 15.3832 2.70249ZM7.28347 3.2348C7.67383 2.87263 8.1446 2.67599 8.61663 2.70249C9.07581 2.72826 9.65432 2.97203 10.2588 3.72291C11.0947 4.7611 11.2604 6.10966 11.2923 7.26922C10.8142 7.23106 10.2439 7.1542 9.67405 7.02068C8.75757 6.80593 7.95636 6.47039 7.4973 6.01423C6.85359 5.37458 6.6854 4.81911 6.70078 4.40106C6.71664 3.96988 6.93223 3.56067 7.28347 3.2348ZM2.69981 9.00005C2.69981 8.83437 2.83412 8.70005 2.9998 8.70005L9.2998 8.70005L9.29981 12.3001L2.99981 12.3001C2.83412 12.3001 2.69981 12.1657 2.69981 12.0001L2.69981 9.00005ZM10.6998 12.3001L10.6998 8.70005H11.9794L11.9998 8.70008L12.0206 8.70005L13.2998 8.70005L13.2998 12.3001H10.6998ZM14.6998 12.3001L14.6998 8.70006L20.9998 8.70006C21.1655 8.70006 21.2998 8.83437 21.2998 9.00006V12.0001C21.2998 12.1657 21.1655 12.3001 20.9998 12.3001H14.6998ZM4.69981 21.0001L4.6998 13.7001L9.29981 13.7001L9.29981 21.3001H4.99981C4.83412 21.3001 4.69981 21.1657 4.69981 21.0001ZM10.6998 21.3001L10.6998 13.7001L13.2998 13.7001L13.2998 21.3001H10.6998ZM14.6998 21.3001L14.6998 13.7001L19.2998 13.7001V21.0001C19.2998 21.1657 19.1655 21.3001 18.9998 21.3001H14.6998Z" fill="currentColor"/>
</svg>
