<svg width="24" height="24" viewBox="0 0 24 24" fill="none" xmlns="http://www.w3.org/2000/svg" data-karrot-ui-icon="true">
  <path fill-rule="evenodd" clip-rule="evenodd" d="M19.74 3.419C18.3636 4.45132 17.1087 4.69324 15.8962 4.56781C14.6437 4.43824 13.4165 3.91757 12.0864 3.34751L12.0445 3.32955C10.7614 2.77959 9.37789 2.18661 7.9274 2.03656C6.42382 1.88102 4.86913 2.20019 3.24867 3.41253C3.22835 3.42723 3.20899 3.44317 3.1907 3.46024C3.14496 3.50281 3.10718 3.55127 3.07764 3.60355C3.02822 3.69076 3 3.79157 3 3.89897C3 3.89893 3 3.899 3 3.89897V15.1494C3 15.1494 3 15.1494 3 15.1494V21.3633C3 21.6946 3.26863 21.9633 3.6 21.9633C3.93137 21.9633 4.2 21.6946 4.2 21.3633V15.4561C5.48293 14.5697 6.66224 14.3621 7.80392 14.4802C9.05638 14.6098 10.2836 15.1304 11.6137 15.7005L11.6556 15.7184C12.9387 16.2684 14.3222 16.8614 15.7727 17.0114C17.2789 17.1673 18.8365 16.8467 20.46 15.629C20.6111 15.5157 20.7 15.3379 20.7 15.149V3.899C20.7 3.67173 20.5716 3.46398 20.3684 3.36234C20.1651 3.26071 19.9218 3.28264 19.74 3.419ZM4.2 14.0462C5.48046 13.3427 6.7204 13.1617 7.9274 13.2866C9.37789 13.4366 10.7614 14.0296 12.0445 14.5796L12.0864 14.5975C13.4165 15.1676 14.6437 15.6882 15.8962 15.8178C17.0378 15.9359 18.2171 15.7283 19.5 14.8419V5.00184C18.2196 5.70525 16.9797 5.8863 15.7727 5.76144C14.3222 5.61139 12.9387 5.0184 11.6556 4.46844L11.6137 4.45048C10.2836 3.88043 9.05638 3.35975 7.80392 3.23019C6.66224 3.11208 5.48293 3.31967 4.2 4.20611V14.0462Z" fill="currentColor"/>
</svg>
