<svg width="24" height="24" viewBox="0 0 24 24" fill="none" xmlns="http://www.w3.org/2000/svg" data-karrot-ui-icon="true">
  <path d="M15.8989 16.4002C16.4018 15.8139 16.8097 15.1524 17.1078 14.4399H14.6356C14.9537 15.1542 15.3798 15.8154 15.8989 16.4002Z" fill="currentColor"/>
  <path fill-rule="evenodd" clip-rule="evenodd" d="M13.2622 1H3.33173C2.04395 1 1 2.04395 1 3.33173V13.2622C1 14.55 2.04395 15.5939 3.33173 15.5939H8.84172V20.8861C8.84172 22.0536 9.78815 23 10.9556 23H20.8861C22.0536 23 23 22.0536 23 20.8861V10.9556C23 9.78815 22.0536 8.84172 20.8861 8.84172H15.5939V3.33173C15.5939 2.04395 14.55 1 13.2622 1ZM14.287 8.84172V3.33173C14.287 2.76574 13.8282 2.30692 13.2622 2.30692H3.33173C2.76574 2.30692 2.30692 2.76574 2.30692 3.33173V13.2622C2.30692 13.8282 2.76574 14.287 3.33173 14.287H8.84172V10.9556C8.84172 10.8251 8.85355 10.6973 8.87621 10.5733H6.85946L6.33669 12.0109L6.27134 12.1961H4.64859L4.79017 11.8258L7.49113 4.58326L7.55648 4.39811H9.03765L9.103 4.58326L10.697 8.85739C10.7817 8.84705 10.8681 8.84172 10.9556 8.84172H14.287ZM7.39311 9.13569L8.29707 6.66344L9.20102 9.13569H7.39311ZM17.0207 17.4131C17.9534 18.0894 19.0186 18.5608 20.1464 18.7963L20.4187 18.818L20.1682 19.0685C19.8838 19.3705 19.6386 19.7072 19.4385 20.0705L19.3731 20.2012H19.2207C17.9667 19.8866 16.7961 19.3032 15.79 18.4913C14.8052 19.2733 13.6873 19.871 12.49 20.2556H12.3267L12.2613 20.1141C12.0797 19.7637 11.8645 19.4318 11.6188 19.123L11.4336 18.8943L11.695 18.7963C12.7868 18.5526 13.8243 18.1095 14.7554 17.4893C14.0176 16.5746 13.4362 15.5442 13.0346 14.4399H11.7059V12.9805H15.1474V11.5864H16.6177V12.9805H20.1464V14.4399H18.7633C18.3638 15.5267 17.7737 16.5335 17.0207 17.4131Z" fill="currentColor"/>
</svg>
