<svg width="24" height="24" viewBox="0 0 24 24" fill="none" xmlns="http://www.w3.org/2000/svg" data-karrot-ui-icon="true">
  <path d="M16.3002 4.27885C14.0183 2.96142 11.4607 2.75797 9.09916 3.55162C8.68035 3.69238 8.45494 4.14599 8.5957 4.5648C8.73645 4.98361 9.19006 5.20902 9.60887 5.06826C11.5454 4.41743 13.6251 4.58193 15.5002 5.6645C18.928 7.64358 20.1146 12.072 18.1356 15.4999L18.1011 15.5596L17.8688 14.6928C17.7545 14.2661 17.3158 14.0128 16.889 14.1272C16.4623 14.2415 16.209 14.6802 16.3234 15.1069L17.0554 17.839C17.1698 18.2658 17.6084 18.519 18.0352 18.4047L20.7673 17.6726C21.194 17.5583 21.4473 17.1196 21.3329 16.6928C21.2186 16.2661 20.7799 16.0128 20.3531 16.1272L19.4869 16.3593L19.5212 16.2999C21.9421 12.1067 20.4933 6.69977 16.3002 4.27885Z" fill="currentColor"/>
  <path d="M4.31329 7.44043L3.44671 7.67263C3.01993 7.78698 2.58126 7.53372 2.46691 7.10694C2.35256 6.68017 2.60582 6.2415 3.0326 6.12715L5.76465 5.3951C6.19142 5.28074 6.63009 5.53401 6.74444 5.96078L7.47649 8.69283C7.59085 9.11961 7.33758 9.55828 6.91081 9.67263C6.48404 9.78698 6.04537 9.53372 5.93101 9.10694L5.69886 8.24055L5.6646 8.2999C3.68551 11.7278 4.8721 16.1562 8.29998 18.1353C10.175 19.2178 12.2547 19.3824 14.1913 18.7315C14.6101 18.5908 15.0637 18.8162 15.2045 19.235C15.3452 19.6538 15.1198 20.1074 14.701 20.2482C12.3395 21.0418 9.78184 20.8384 7.49998 19.5209C3.30684 17.1 1.85805 11.693 4.27896 7.4999L4.31329 7.44043Z" fill="currentColor"/>
</svg>
