<svg width="24" height="24" viewBox="0 0 24 24" fill="none" xmlns="http://www.w3.org/2000/svg" data-karrot-ui-icon="true">
  <path fill-rule="evenodd" clip-rule="evenodd" d="M5.80005 8.3C5.80005 7.02975 6.82979 6 8.10005 6C9.3703 6 10.4 7.02974 10.4 8.3C10.4 9.57026 9.3703 10.6 8.10005 10.6C6.82979 10.6 5.80005 9.57026 5.80005 8.3ZM8.10005 7.6C7.71345 7.6 7.40005 7.9134 7.40005 8.3C7.40005 8.6866 7.71345 9 8.10005 9C8.48665 9 8.80005 8.6866 8.80005 8.3C8.80005 7.9134 8.48665 7.6 8.10005 7.6Z" fill="currentColor"/>
  <path fill-rule="evenodd" clip-rule="evenodd" d="M4.99995 2.19995C3.45355 2.19995 2.19995 3.45355 2.19995 4.99995V16C2.19995 17.5463 3.45355 18.8 4.99995 18.8H16C17.5463 18.8 18.8 17.5463 18.8 16V4.99995C18.8 3.45355 17.5463 2.19995 16 2.19995H4.99995ZM3.79995 4.99995C3.79995 4.33721 4.33721 3.79995 4.99995 3.79995H16C16.6627 3.79995 17.2 4.33721 17.2 4.99995V13.0688L14.3654 10.2343C14.2154 10.0843 14.0119 10 13.7998 10C13.5876 10 13.3841 10.0843 13.2341 10.2343L9.69483 13.7736L7.58334 11.9014C7.27797 11.6306 6.81773 11.6331 6.51534 11.9072L3.79995 14.3683V4.99995ZM3.87757 16.4254C4.04928 16.8782 4.48704 17.2 4.99995 17.2H16C16.6627 17.2 17.2 16.6627 17.2 16V15.3316L13.7998 11.9314L10.8942 14.837L11.5307 15.4014C11.8613 15.6945 11.8917 16.2001 11.5985 16.5307C11.3054 16.8613 10.7998 16.8917 10.4692 16.5985L7.05846 13.5743L4.03721 16.3127C3.98764 16.3576 3.93398 16.3952 3.87757 16.4254Z" fill="currentColor"/>
  <path d="M21 6.19995C21.4418 6.19995 21.7999 6.55812 21.7999 6.99995V19C21.7999 20.5463 20.5463 21.7999 19 21.7999H6.99995C6.55812 21.7999 6.19995 21.4418 6.19995 21C6.19995 20.5581 6.55812 20.2 6.99995 20.2H19C19.6627 20.2 20.2 19.6627 20.2 19V6.99995C20.2 6.55812 20.5581 6.19995 21 6.19995Z" fill="currentColor"/>
</svg>
