<svg width="24" height="24" viewBox="0 0 24 24" fill="none" xmlns="http://www.w3.org/2000/svg" data-karrot-ui-icon="true">
  <path d="M13.6001 8.10005C13.6001 7.65822 13.9583 7.30005 14.4001 7.30005H17.9001C18.3419 7.30005 18.7001 7.65822 18.7001 8.10005C18.7001 8.54188 18.3419 8.90005 17.9001 8.90005H14.4001C13.9583 8.90005 13.6001 8.54188 13.6001 8.10005Z" fill="currentColor"/>
  <path d="M13.6001 10.3C13.6001 9.85817 13.9583 9.5 14.4001 9.5H17.9001C18.3419 9.5 18.7001 9.85817 18.7001 10.3C18.7001 10.7418 18.3419 11.1 17.9001 11.1H14.4001C13.9583 11.1 13.6001 10.7418 13.6001 10.3Z" fill="currentColor"/>
  <path fill-rule="evenodd" clip-rule="evenodd" d="M12.662 15.4993C12.4319 15.6393 12.1375 15.4734 12.1375 15.2039L12.1218 13.2018C10.719 12.1858 10.05 10.6525 10.05 8.89529C10.05 5.83276 12.7811 3.3501 16.15 3.3501C19.519 3.3501 22.25 5.83276 22.25 8.89529C22.25 11.9578 19.519 14.4405 16.15 14.4405C15.6987 14.4405 15.2589 14.3959 14.8355 14.3114L12.662 15.4993ZM14.5784 12.6285L15.1487 12.7424C15.4692 12.8063 15.8042 12.8405 16.15 12.8405C18.7823 12.8405 20.65 10.934 20.65 8.89529C20.65 6.85658 18.7823 4.9501 16.15 4.9501C13.5178 4.9501 11.65 6.85658 11.65 8.89529C11.65 10.2215 12.1353 11.236 13.0603 11.906L13.7154 12.3804L13.721 13.0971L14.5784 12.6285Z" fill="currentColor"/>
  <path d="M14.6958 19.05C14.6018 18.3624 14.3883 17.7138 14.0775 17.126C13.8533 16.7021 13.9683 16.153 14.3891 15.923C14.7409 15.7307 15.1851 15.8313 15.3833 16.1797C15.9984 17.2611 16.35 18.5144 16.35 19.85C16.35 20.2919 15.9918 20.65 15.55 20.65H2.55C2.10817 20.65 1.75 20.2919 1.75 19.85C1.75 17.1001 3.23428 14.7073 5.43902 13.4365C4.37153 12.4501 3.7 11.0301 3.7 9.45531C3.7 6.47656 6.08359 4.05005 9.05 4.05005C9.23182 4.05005 9.41145 4.05916 9.58848 4.07697C10.1446 4.13288 10.3115 4.80354 9.99285 5.26269C9.81164 5.52378 9.5008 5.66364 9.18318 5.6524C9.13897 5.65084 9.09457 5.65005 9.05 5.65005C6.9854 5.65005 5.3 7.34195 5.3 9.45531C5.3 10.958 6.16584 12.2569 7.40824 12.8693C7.6999 13.0131 7.87551 13.3192 7.85249 13.6435C7.82947 13.9679 7.6124 14.246 7.30336 14.3472C5.25414 15.0179 3.70684 16.8269 3.404 19.05H14.6958Z" fill="currentColor"/>
</svg>
