<svg width="24" height="24" viewBox="0 0 24 24" fill="none" xmlns="http://www.w3.org/2000/svg" data-karrot-ui-icon="true">
  <path fill-rule="evenodd" clip-rule="evenodd" d="M13.2865 8.28571C13.2865 8.45126 13.2552 8.60951 13.1982 8.75485C13.118 8.95963 12.9866 9.1388 12.82 9.27673C12.6942 9.38078 12.5484 9.46136 12.3891 9.51176C12.4821 9.68224 12.5843 9.85737 12.6953 10.0326C12.8037 10.2036 12.9204 10.3747 13.0452 10.5417C13.7616 11.5005 14.7427 12.3238 15.9177 12.2135C16.0967 12.1967 16.2802 12.1582 16.468 12.0953C16.6202 12.0442 16.7753 11.9771 16.933 11.8923C16.9929 11.8601 17.0532 11.8253 17.1139 11.788C16.955 11.6365 16.8348 11.4448 16.7697 11.2292C16.7588 11.1928 16.7493 11.1558 16.7416 11.1181C16.7242 11.0338 16.7151 10.9465 16.7151 10.8571C16.7151 10.1471 17.2907 9.57143 18.0008 9.57143C18.7109 9.57143 19.2865 10.1471 19.2865 10.8571C19.2865 11.2319 19.1261 11.5693 18.8703 11.8043C18.6414 12.0145 18.3361 12.1429 18.0008 12.1429C17.9008 12.1429 17.8035 12.1314 17.71 12.1098L16.5008 16.4286H7.5008L6.29156 12.1098C6.19813 12.1314 6.1008 12.1429 6.0008 12.1429C5.66552 12.1429 5.36021 12.0145 5.13132 11.8043C4.87546 11.5693 4.71509 11.2319 4.71509 10.8571C4.71509 10.1471 5.29072 9.57143 6.0008 9.57143C6.71088 9.57143 7.28652 10.1471 7.28652 10.8571C7.28652 10.9465 7.27739 11.0338 7.26002 11.1181C7.25225 11.1558 7.24284 11.1928 7.23185 11.2292C7.16678 11.4448 7.04661 11.6365 6.88772 11.788C6.94839 11.8253 7.00868 11.8601 7.06859 11.8923C7.22631 11.9771 7.38137 12.0442 7.53363 12.0953C7.7214 12.1582 7.90491 12.1967 8.08393 12.2135C9.2589 12.3238 10.24 11.5005 10.9564 10.5417C11.0812 10.3747 11.1979 10.2036 11.3063 10.0326C11.4173 9.85737 11.5195 9.68224 11.6125 9.51176C11.4532 9.46136 11.3074 9.38078 11.1816 9.27673C11.015 9.1388 10.8837 8.95963 10.8034 8.75485C10.7464 8.60951 10.7151 8.45126 10.7151 8.28571C10.7151 7.57563 11.2907 7 12.0008 7C12.7109 7 13.2865 7.57563 13.2865 8.28571ZM12.0008 11.1469C12.4254 11.7346 12.9579 12.3189 13.5997 12.7479C14.1354 13.1061 14.781 13.3784 15.5197 13.4184C15.7139 13.429 15.9084 13.4231 16.1024 13.4008L15.5906 15.2286H8.41095L7.89917 13.4008C8.09324 13.4231 8.28767 13.429 8.48195 13.4184C9.22055 13.3784 9.86623 13.1061 10.4019 12.7479C11.0437 12.3189 11.5762 11.7346 12.0008 11.1469Z" fill="currentColor"/>
  <path fill-rule="evenodd" clip-rule="evenodd" d="M10.7143 0.742455C11.5099 0.283114 12.4901 0.283114 13.2857 0.742455L21.1066 5.25784C21.9022 5.71718 22.3923 6.56608 22.3923 7.48476V16.5155C22.3923 17.4342 21.9022 18.2831 21.1066 18.7425L13.2857 23.2578C12.4901 23.7172 11.5099 23.7172 10.7143 23.2578L2.89338 18.7425C2.09778 18.2831 1.60767 17.4342 1.60767 16.5155V7.48476C1.60767 6.56608 2.09778 5.71718 2.89338 5.25784L10.7143 0.742455ZM12.6857 1.78169L20.5066 6.29707C20.9309 6.54205 21.1923 6.9948 21.1923 7.48476V16.5155C21.1923 17.0055 20.9309 17.4582 20.5066 17.7032L12.6857 22.2186C12.2614 22.4636 11.7386 22.4636 11.3143 22.2186L3.49338 17.7032C3.06906 17.4582 2.80767 17.0055 2.80767 16.5155V7.48476C2.80767 6.9948 3.06906 6.54205 3.49338 6.29707L11.3143 1.78169C11.7386 1.5367 12.2614 1.5367 12.6857 1.78169Z" fill="currentColor"/>
</svg>
