<svg width="24" height="24" viewBox="0 0 24 24" fill="none" xmlns="http://www.w3.org/2000/svg" data-karrot-ui-icon="true">
  <path d="M8.02944 1.65763C8.31896 1.27228 8.86606 1.1946 9.25141 1.48412C10.0172 2.05945 10.9678 2.40004 12.0004 2.40004C13.0331 2.40004 13.9837 2.05945 14.7495 1.48412C15.1348 1.1946 15.6819 1.27228 15.9714 1.65763C16.261 2.04299 16.1833 2.59008 15.7979 2.8796C14.7402 3.67425 13.4241 4.1455 12.0004 4.1455C10.5768 4.1455 9.26063 3.67425 8.20296 2.8796C7.81761 2.59008 7.73992 2.04299 8.02944 1.65763Z" fill="currentColor"/>
  <path d="M5.82613 4.41435C6.09912 4.01711 6.64244 3.91638 7.03968 4.18937C8.45014 5.15865 10.1575 5.72586 11.9999 5.72586C13.8424 5.72586 15.5497 5.15865 16.9602 4.18937C17.3574 3.91638 17.9008 4.01711 18.1737 4.41435C18.4467 4.81159 18.346 5.35491 17.9488 5.62789C16.2567 6.79069 14.2065 7.47131 11.9999 7.47131C9.79339 7.47131 7.74318 6.79069 6.05111 5.62789C5.65387 5.35491 5.55315 4.81159 5.82613 4.41435Z" fill="currentColor"/>
  <path fill-rule="evenodd" clip-rule="evenodd" d="M3.2196 16.6118C3.31028 16.5719 3.401 16.529 3.49077 16.4839V21.8182C3.49077 22.3002 3.8815 22.6909 4.36349 22.6909C4.84549 22.6909 5.23622 22.3002 5.23622 21.8182V16.8709C5.73204 17.3437 6.07386 17.9051 6.31022 18.4425C6.50627 18.8883 6.62228 19.3022 6.68875 19.6035C6.72181 19.7533 6.74214 19.8731 6.75389 19.9522C6.75835 19.9822 6.76155 20.0062 6.76375 20.0237V21.8179C6.76375 22.2999 7.15448 22.6906 7.63647 22.6906C8.11847 22.6906 8.5092 22.2999 8.5092 21.8179V19.9748C8.5092 19.9484 8.50799 19.9219 8.50559 19.8955L8.50544 19.894L8.50527 19.8921L8.50482 19.8874L8.50348 19.8742L8.49888 19.8331C8.49489 19.7994 8.48893 19.7531 8.48039 19.6957C8.46334 19.5809 8.43592 19.421 8.39321 19.2274C8.30812 18.8417 8.16043 18.3138 7.90796 17.7398C7.61029 17.063 7.15635 16.3004 6.47224 15.6375C8.23611 15.2607 10.1118 15.0545 12.0559 15.0545C13.9841 15.0545 15.8047 15.2669 17.5274 15.6381C16.8436 16.3009 16.3899 17.0632 16.0923 17.7398C15.8398 18.3138 15.6921 18.8417 15.6071 19.2274C15.5643 19.421 15.5369 19.5809 15.5199 19.6957C15.5113 19.7531 15.5054 19.7994 15.5014 19.8331L15.4968 19.8742L15.4954 19.8874L15.495 19.8921L15.4948 19.894L15.4947 19.8955C15.4923 19.9219 15.4911 19.9484 15.4911 19.9748V21.8179C15.4911 22.2999 15.8818 22.6906 16.3638 22.6906C16.8458 22.6906 17.2365 22.2999 17.2365 21.8179V20.0237C17.2387 20.0062 17.2419 19.9822 17.2464 19.9522C17.2581 19.8731 17.2784 19.7533 17.3115 19.6035C17.378 19.3022 17.494 18.8883 17.69 18.4425C17.9263 17.9053 18.268 17.3442 18.7635 16.8714V21.8182C18.7635 22.3002 19.1542 22.6909 19.6362 22.6909C20.1182 22.6909 20.5089 22.3002 20.5089 21.8182V16.5833C20.5908 16.6295 20.6734 16.6736 20.756 16.7149C21.053 16.8634 21.3856 16.9939 21.7069 17.0398C22.0196 17.0844 22.4364 17.062 22.7493 16.7491C22.8516 16.6468 22.909 16.5081 22.909 16.3634C22.909 15.9547 22.6305 15.6725 22.4209 15.5132C22.1904 15.338 21.896 15.1974 21.5968 15.0877C21.2581 14.9635 20.8732 14.8646 20.4917 14.8021C20.2509 11.5274 17.5178 8.94545 14.1817 8.94545H9.81804C6.48471 8.94545 3.75342 11.523 3.50862 14.7938C3.13427 14.8483 2.75648 14.9339 2.42331 15.0414C2.12722 15.137 1.83537 15.2596 1.60575 15.4132C1.41177 15.5429 1.09082 15.8094 1.09082 16.2326C1.09082 16.3893 1.15825 16.5385 1.27592 16.642C1.58699 16.9158 1.98694 16.9311 2.28386 16.8938C2.59608 16.8545 2.92323 16.7422 3.2196 16.6118ZM12.0559 13.3091C9.72477 13.3091 7.4808 13.5878 5.38921 14.0942C5.90925 12.1348 7.69502 10.6909 9.81804 10.6909H14.1817C16.3053 10.6909 18.0915 12.1356 18.6109 14.0959C16.566 13.5995 14.3847 13.3091 12.0559 13.3091Z" fill="currentColor"/>
</svg>
