<svg width="24" height="24" viewBox="0 0 24 24" fill="none" xmlns="http://www.w3.org/2000/svg" data-karrot-ui-icon="true">
  <path d="M12 1.5293C12.3603 1.5293 12.6524 1.82142 12.6524 2.18177V5.4545C12.6524 5.81485 12.3603 6.10697 12 6.10697C11.6396 6.10697 11.3475 5.81485 11.3475 5.4545V2.18177C11.3475 1.82142 11.6396 1.5293 12 1.5293Z" fill="currentColor"/>
  <path fill-rule="evenodd" clip-rule="evenodd" d="M6.98384 12C6.98384 9.22964 9.22963 6.98384 12 6.98384C14.7703 6.98384 17.0161 9.22964 17.0161 12C17.0161 14.7703 14.7703 17.0161 12 17.0161C9.22963 17.0161 6.98384 14.7703 6.98384 12ZM12 8.28879C9.95034 8.28879 8.28879 9.95034 8.28879 12C8.28879 14.0496 9.95034 15.7111 12 15.7111C14.0496 15.7111 15.7111 14.0496 15.7111 12C15.7111 9.95034 14.0496 8.28879 12 8.28879Z" fill="currentColor"/>
  <path d="M12.6524 18.5454C12.6524 18.1851 12.3603 17.8929 12 17.8929C11.6396 17.8929 11.3475 18.1851 11.3475 18.5454V21.8181C11.3475 22.1785 11.6396 22.4706 12 22.4706C12.3603 22.4706 12.6524 22.1785 12.6524 21.8181V18.5454Z" fill="currentColor"/>
  <path d="M17.8929 12C17.8929 11.6396 18.1851 11.3475 18.5454 11.3475H21.8181C22.1785 11.3475 22.4706 11.6396 22.4706 12C22.4706 12.3603 22.1785 12.6524 21.8181 12.6524H18.5454C18.1851 12.6524 17.8929 12.3603 17.8929 12Z" fill="currentColor"/>
  <path d="M2.18177 11.3475C1.82142 11.3475 1.5293 11.6396 1.5293 12C1.5293 12.3603 1.82142 12.6524 2.18177 12.6524H5.4545C5.81485 12.6524 6.10697 12.3603 6.10697 12C6.10697 11.6396 5.81485 11.3475 5.4545 11.3475H2.18177Z" fill="currentColor"/>
  <path d="M16.9931 16.9931C17.2479 16.7383 17.6611 16.7383 17.9159 16.9931L19.5522 18.6295C19.807 18.8843 19.807 19.2974 19.5522 19.5522C19.2974 19.807 18.8843 19.807 18.6295 19.5522L16.9931 17.9159C16.7383 17.6611 16.7383 17.2479 16.9931 16.9931Z" fill="currentColor"/>
  <path d="M5.37041 4.44767C5.11561 4.19287 4.70248 4.19287 4.44767 4.44767C4.19287 4.70248 4.19287 5.11561 4.44767 5.37041L6.08404 7.00678C6.33885 7.26158 6.75197 7.26158 7.00678 7.00678C7.26158 6.75197 7.26158 6.33885 7.00678 6.08404L5.37041 4.44767Z" fill="currentColor"/>
  <path d="M19.5522 4.44767C19.807 4.70248 19.807 5.11561 19.5522 5.37041L17.9159 7.00678C17.6611 7.26158 17.2479 7.26158 16.9931 7.00678C16.7383 6.75197 16.7383 6.33885 16.9931 6.08404L18.6295 4.44767C18.8843 4.19287 19.2974 4.19287 19.5522 4.44767Z" fill="currentColor"/>
  <path d="M7.00678 17.9159C7.26158 17.6611 7.26158 17.2479 7.00678 16.9931C6.75197 16.7383 6.33885 16.7383 6.08404 16.9931L4.44767 18.6295C4.19287 18.8843 4.19287 19.2974 4.44767 19.5522C4.70248 19.807 5.11561 19.807 5.37041 19.5522L7.00678 17.9159Z" fill="currentColor"/>
</svg>
