<svg width="24" height="24" viewBox="0 0 24 24" fill="none" xmlns="http://www.w3.org/2000/svg" data-karrot-ui-icon="true">
  <path d="M2.74014 12.0001C2.74014 7.27806 6.5681 3.4501 11.2901 3.4501C12.9752 3.4501 14.5442 3.93674 15.867 4.77685C16.24 5.01372 16.7343 4.90338 16.9712 4.53041C17.2081 4.15744 17.0977 3.66307 16.7248 3.42621C15.1531 2.42806 13.2879 1.8501 11.2901 1.8501C5.68445 1.8501 1.14014 6.39441 1.14014 12.0001C1.14014 17.6058 5.68445 22.1501 11.2901 22.1501C16.8958 22.1501 21.4401 17.6058 21.4401 12.0001C21.4401 11.6546 21.4228 11.3128 21.389 10.9757C21.3449 10.5361 20.9528 10.2155 20.5132 10.2596C20.0735 10.3037 19.7529 10.6958 19.797 11.1354C19.8255 11.4195 19.8401 11.708 19.8401 12.0001C19.8401 16.7221 16.0122 20.5501 11.2901 20.5501C6.5681 20.5501 2.74014 16.7221 2.74014 12.0001Z" fill="currentColor"/>
  <path d="M22.6367 4.60481C22.9431 4.28649 22.9335 3.78005 22.6152 3.47364C22.2968 3.16723 21.7904 3.17688 21.484 3.4952L11.7463 13.6113L7.92301 9.83116C7.60883 9.52052 7.1023 9.5234 6.79166 9.83758C6.48102 10.1518 6.48389 10.6583 6.79808 10.9689L11.1979 15.3191C11.3501 15.4696 11.5562 15.5528 11.7702 15.5501C11.9843 15.5475 12.1883 15.4592 12.3367 15.305L22.6367 4.60481Z" fill="currentColor"/>
</svg>
