<svg width="24" height="24" viewBox="0 0 24 24" fill="none" xmlns="http://www.w3.org/2000/svg" data-karrot-ui-icon="true">
  <path fill-rule="evenodd" clip-rule="evenodd" d="M16.3381 8.45698C16.6651 8.74897 16.6892 9.24603 16.392 9.56721L11.392 14.9706C11.2448 15.1296 11.0377 15.2225 10.819 15.2276C10.6003 15.2327 10.389 15.1496 10.2343 14.9976L7.23431 12.0503C6.9219 11.7434 6.9219 11.2458 7.23431 10.9389C7.54673 10.6319 8.05327 10.6319 8.36569 10.9389L10.7724 13.3033L15.208 8.50985C15.5053 8.18867 16.0112 8.165 16.3381 8.45698Z" fill="currentColor"/>
  <path fill-rule="evenodd" clip-rule="evenodd" d="M11.8893 2.59257C11.8331 2.56499 11.7669 2.56499 11.7107 2.59257L3.71068 6.51571C3.64285 6.54897 3.6 6.61704 3.6 6.69151V8.90726C3.6 12.2982 4.33254 14.8251 5.6768 16.7862C7.02309 18.7502 9.03533 20.2234 11.7338 21.4144C11.7759 21.433 11.8241 21.4322 11.8629 21.4149C14.5385 20.2217 16.5598 18.6103 17.9165 16.5659C19.2726 14.5225 20 11.9934 20 8.90726V6.69151C20 6.61704 19.9571 6.54897 19.8893 6.51571L11.8893 2.59257ZM10.9961 1.18616C11.5023 0.937946 12.0977 0.937945 12.6039 1.18616L20.6039 5.10931C21.2143 5.40865 21.6 6.02128 21.6 6.69151V8.90726C21.6 12.2431 20.8106 15.0831 19.2568 17.4244C17.7035 19.765 15.4216 21.5541 12.5243 22.8462C12.0639 23.0515 11.536 23.0503 11.0781 22.8482C8.20394 21.5797 5.91321 19.9451 4.34968 17.6642C2.78412 15.3802 2 12.5248 2 8.90726V6.69151C2 6.02128 2.38569 5.40865 2.99609 5.10931L10.9961 1.18616Z" fill="currentColor"/>
</svg>
