<svg width="24" height="24" viewBox="0 0 24 24" fill="none" xmlns="http://www.w3.org/2000/svg" data-karrot-ui-icon="true">
  <path fill-rule="evenodd" clip-rule="evenodd" d="M12.4999 3.79995C17.3834 3.79995 21.1999 7.35812 21.1999 11.5806C21.1999 14.0038 19.9579 16.1907 17.9683 17.6313C17.7605 17.7817 17.6374 18.0227 17.6374 18.2793V20.5712C17.5254 20.503 17.4098 20.4329 17.2927 20.3622C16.5007 19.8835 15.5575 19.3227 15.2064 19.1628C15.0459 19.0897 14.8656 19.0717 14.6938 19.1117C13.9939 19.2744 13.2589 19.3612 12.4999 19.3612C7.61652 19.3612 3.79995 15.8031 3.79995 11.5806C3.79995 7.35812 7.61652 3.79995 12.4999 3.79995ZM18.0162 22.6801C18.263 22.8329 18.5731 22.8401 18.8267 22.6989C19.0803 22.5577 19.2374 22.2902 19.2374 22V18.6773C21.4039 16.9699 22.7999 14.4342 22.7999 11.5806C22.7999 6.32515 18.1099 2.19995 12.4999 2.19995C6.88997 2.19995 2.19995 6.32515 2.19995 11.5806C2.19995 16.836 6.88997 20.9612 12.4999 20.9612C13.2774 20.9612 14.0357 20.8827 14.7654 20.7336C15.1332 20.9345 15.7982 21.3284 16.465 21.7315C16.8711 21.9769 17.2591 22.2142 17.5457 22.3902C17.6889 22.4781 17.8067 22.5507 17.8886 22.6012L18.0162 22.6801Z" fill="currentColor"/>
  <path fill-rule="evenodd" clip-rule="evenodd" d="M16.4713 8.3536C16.8283 8.61391 16.9067 9.11434 16.6464 9.47134L12.2714 15.4713C12.1353 15.6579 11.9252 15.7766 11.6952 15.7969C11.4651 15.8172 11.2375 15.7371 11.0709 15.5771L7.94595 12.5771C7.62722 12.2711 7.61689 11.7647 7.92287 11.446C8.22885 11.1273 8.73527 11.1169 9.054 11.4229L11.5182 13.7886L15.3536 8.52867C15.6139 8.17167 16.1143 8.09329 16.4713 8.3536Z" fill="currentColor"/>
</svg>
