<svg width="24" height="24" viewBox="0 0 24 24" fill="none" xmlns="http://www.w3.org/2000/svg" data-karrot-ui-icon="true">
  <path d="M12.0001 6.12004C12.3601 6.12004 12.6501 5.83004 12.6501 5.47004V2.19004C12.6501 1.83004 12.3601 1.54004 12.0001 1.54004C11.6401 1.54004 11.3501 1.83004 11.3501 2.19004V5.47004C11.3501 5.83004 11.6401 6.12004 12.0001 6.12004Z" fill="currentColor"/>
  <path d="M13.1483 16.9006C15.8467 16.2637 17.5178 13.56 16.881 10.8617C16.2441 8.16337 13.5404 6.49222 10.8421 7.12908C8.14373 7.76595 6.47258 10.4697 7.10944 13.168C7.74631 15.8663 10.45 17.5375 13.1483 16.9006Z" fill="currentColor"/>
  <path d="M11.3501 18.5499C11.3501 18.1899 11.6401 17.8999 12.0001 17.8999C12.3601 17.8999 12.6501 18.1899 12.6501 18.5499V21.8199C12.6501 22.1799 12.3601 22.4699 12.0001 22.4699C11.6401 22.4699 11.3501 22.1799 11.3501 21.8199V18.5499Z" fill="currentColor"/>
  <path d="M21.8201 11.3599H18.5501C18.1901 11.3599 17.9001 11.6499 17.9001 12.0099C17.9001 12.3699 18.1901 12.6599 18.5501 12.6599H21.8201C22.1801 12.6599 22.4701 12.3699 22.4701 12.0099C22.4701 11.6499 22.1801 11.3599 21.8201 11.3599Z" fill="currentColor"/>
  <path d="M5.46003 11.3599C5.82003 11.3599 6.11003 11.6499 6.11003 12.0099C6.11003 12.3699 5.82003 12.6599 5.46003 12.6599H2.18003C1.82003 12.6599 1.53003 12.3699 1.53003 12.0099C1.53003 11.6499 1.82003 11.3599 2.18003 11.3599H5.46003Z" fill="currentColor"/>
  <path d="M17.92 17C17.67 16.75 17.25 16.75 17 17C16.75 17.25 16.75 17.67 17 17.92L18.64 19.56C18.89 19.81 19.31 19.81 19.56 19.56C19.81 19.31 19.81 18.89 19.56 18.64L17.92 17Z" fill="currentColor"/>
  <path d="M6.99994 7.01996C6.74994 7.26996 6.32994 7.26996 6.07994 7.01996L4.43994 5.37996C4.18994 5.12996 4.18994 4.70996 4.43994 4.45996C4.68994 4.20996 5.10994 4.20996 5.35994 4.45996L6.99994 6.09996C7.24994 6.34996 7.24994 6.76996 6.99994 7.01996Z" fill="currentColor"/>
  <path d="M17.92 7.01996L19.56 5.37996C19.81 5.12996 19.81 4.70996 19.56 4.45996C19.31 4.20996 18.89 4.20996 18.64 4.45996L17 6.09996C16.75 6.34996 16.75 6.76996 17 7.01996C17.25 7.26996 17.67 7.26996 17.92 7.01996Z" fill="currentColor"/>
  <path d="M4.43994 18.64L6.07994 17C6.32994 16.75 6.74994 16.75 6.99994 17C7.24994 17.25 7.24994 17.67 6.99994 17.92L5.35994 19.56C5.10994 19.81 4.68994 19.81 4.43994 19.56C4.18994 19.31 4.18994 18.89 4.43994 18.64Z" fill="currentColor"/>
</svg>
