<svg width="24" height="24" viewBox="0 0 24 24" fill="none" xmlns="http://www.w3.org/2000/svg" data-karrot-ui-icon="true">
  <path d="M8.18172 8.18196C8.18172 7.5051 8.4216 6.9268 8.90135 6.44705C9.3811 5.96729 9.95941 5.72742 10.6363 5.72742C11.3131 5.72742 11.8914 5.96729 12.3712 6.44705C12.8509 6.9268 13.0908 7.5051 13.0908 8.18196H8.18172ZM5.72718 10.6365C5.05032 10.6365 4.47201 10.3966 3.99226 9.91688C3.51251 9.43713 3.27263 8.85882 3.27263 8.18196H8.18172C8.18172 8.85882 7.94184 9.43713 7.46209 9.91688C6.98234 10.3966 6.40403 10.6365 5.72718 10.6365ZM8.18172 8.18196C7.50486 8.18196 6.92656 7.94209 6.4468 7.46234C5.96705 6.98258 5.72718 6.40428 5.72718 5.72742C5.72718 5.05056 5.96705 4.47225 6.4468 3.9925C6.92656 3.51275 7.50486 3.27287 8.18172 3.27287V8.18196ZM8.18172 13.0911V8.18196C8.85858 8.18196 9.43689 8.42184 9.91664 8.90159C10.3964 9.38134 10.6363 9.95965 10.6363 10.6365C10.6363 11.3134 10.3964 11.8917 9.91664 12.3714C9.43689 12.8512 8.85858 13.0911 8.18172 13.0911Z" fill="currentColor"/>
  <path fill-rule="evenodd" clip-rule="evenodd" d="M19.1709 3.73093C18.1816 3.46583 17.1647 4.05295 16.8996 5.04229L14.3144 14.6902C14.0844 15.5487 13.3065 16.1456 12.4177 16.1456H5.9999C4.97567 16.1456 4.14536 16.9759 4.14536 18.0001C4.14536 19.0244 4.97567 19.8547 5.9999 19.8547L16.6166 19.8547C16.7154 19.8547 16.8019 19.7883 16.8274 19.6928L20.4821 6.00305C20.7472 5.01371 20.1603 3.99602 19.1709 3.73093ZM15.2136 4.59053C15.7282 2.67005 17.7022 1.53036 19.6227 2.04495C21.5432 2.55954 22.6829 4.53355 22.1683 6.45403L18.5138 20.1431C18.2844 21.0024 17.506 21.6002 16.6166 21.6002L5.9999 21.6001C4.01168 21.6001 2.3999 19.9884 2.3999 18.0001C2.3999 16.0119 4.01168 14.4001 5.9999 14.4001H12.4177C12.5165 14.4001 12.6029 14.3338 12.6285 14.2384L15.2136 4.59053Z" fill="currentColor"/>
</svg>
