<svg width="24" height="24" viewBox="0 0 24 24" fill="none" xmlns="http://www.w3.org/2000/svg" data-karrot-ui-icon="true">
  <path d="M10.34 8.23431C10.6524 7.9219 11.159 7.9219 11.4714 8.23431L14.4057 11.1686L17.34 8.23431C17.6524 7.9219 18.159 7.9219 18.4714 8.23431C18.7838 8.54673 18.7838 9.05327 18.4714 9.36569L15.5371 12.3L18.4714 15.2343C18.7838 15.5467 18.7838 16.0533 18.4714 16.3657C18.159 16.6781 17.6524 16.6781 17.34 16.3657L14.4057 13.4314L11.4714 16.3657C11.159 16.6781 10.6524 16.6781 10.34 16.3657C10.0276 16.0533 10.0276 15.5467 10.34 15.2343L13.2743 12.3L10.34 9.36569C10.0276 9.05327 10.0276 8.54673 10.34 8.23431Z" fill="currentColor"/>
  <path fill-rule="evenodd" clip-rule="evenodd" d="M6.48534 4.92396C7.01624 4.33573 7.77152 4 8.56391 4H20.9056C22.452 4 23.7056 5.2536 23.7056 6.8V17.8C23.7056 19.3464 22.452 20.6 20.9056 20.6H8.56391C7.77152 20.6 7.01624 20.2643 6.48534 19.676L1.52123 14.176C0.559329 13.1103 0.559328 11.4897 1.52123 10.424L6.48534 4.92396ZM8.56391 5.6C8.22431 5.6 7.90062 5.74389 7.67309 5.99598L2.70899 11.496C2.29674 11.9527 2.29674 12.6473 2.70899 13.104L7.67309 18.604C7.90062 18.8561 8.22431 19 8.56391 19H20.9056C21.5684 19 22.1056 18.4627 22.1056 17.8V6.8C22.1056 6.13726 21.5684 5.6 20.9056 5.6H8.56391Z" fill="currentColor"/>
</svg>
