<svg width="24" height="24" viewBox="0 0 24 24" fill="none" xmlns="http://www.w3.org/2000/svg" data-karrot-ui-icon="true">
  <path fill-rule="evenodd" clip-rule="evenodd" d="M14.2 2.0002C14.2 1.55837 14.5581 1.2002 15 1.2002H19C19.1084 1.2002 19.2119 1.22178 19.3062 1.2609C19.3998 1.29965 19.4876 1.35696 19.5639 1.43282L19.5673 1.43621C19.7111 1.58084 19.8 1.78014 19.8 2.0002V6.0002C19.8 6.44202 19.4418 6.8002 19 6.8002C18.5581 6.8002 18.2 6.44202 18.2 6.0002V3.93157L16.3408 5.79075C17.2546 6.94858 17.8 8.4107 17.8 10.0002C17.8 13.4851 15.1785 16.3577 11.8 16.7536V18.2002H15C15.4418 18.2002 15.8 18.5584 15.8 19.0002C15.8 19.442 15.4418 19.8002 15 19.8002H11.8V22.0002C11.8 22.442 11.4418 22.8002 11 22.8002C10.5581 22.8002 10.2 22.442 10.2 22.0002V19.8002H6.99995C6.55812 19.8002 6.19995 19.442 6.19995 19.0002C6.19995 18.5584 6.55812 18.2002 6.99995 18.2002H10.2V16.7536C6.82142 16.3577 4.19995 13.4851 4.19995 10.0002C4.19995 6.24466 7.24442 3.2002 11 3.2002C12.5894 3.2002 14.0516 3.74556 15.2094 4.65938L17.0686 2.8002H15C14.5581 2.8002 14.2 2.44202 14.2 2.0002ZM11 15.2002C13.8718 15.2002 16.2 12.8721 16.2 10.0002C16.2 7.12831 13.8718 4.8002 11 4.8002C8.12807 4.8002 5.79995 7.12831 5.79995 10.0002C5.79995 12.8721 8.12807 15.2002 11 15.2002Z" fill="currentColor"/>
</svg>
