<svg width="24" height="24" viewBox="0 0 24 24" fill="none" xmlns="http://www.w3.org/2000/svg" data-karrot-ui-icon="true">
  <path fill-rule="evenodd" clip-rule="evenodd" d="M5.56006 8.34009C4.05751 9.57362 2.37584 11.4783 2.09944 13.5315C2.07346 13.7143 2.06006 13.9007 2.06006 14.0901L2.06007 14.1001L2.06006 14.1104C2.07189 16.4482 4.12687 18.3401 6.66006 18.3401C9.20057 18.3401 11.2601 16.4373 11.2601 14.0901C11.2601 11.7429 9.20057 9.84009 6.66006 9.84009C6.27094 9.84009 5.8931 9.88473 5.53222 9.96876C7.14148 8.23624 9.20863 7.10596 10.6166 6.56776C10.8336 6.4848 10.9317 6.22856 10.817 6.02647C10.7516 5.91127 10.6295 5.83822 10.4977 5.85169C9.2869 5.97552 7.10291 7.07346 5.56006 8.34009ZM6.66006 17.1401C8.62901 17.1401 10.0601 15.6869 10.0601 14.0901C10.0601 12.4933 8.62901 11.0401 6.66006 11.0401C4.69111 11.0401 3.26006 12.4933 3.26006 14.0901C3.26006 15.6869 4.69111 17.1401 6.66006 17.1401Z" fill="currentColor"/>
  <path fill-rule="evenodd" clip-rule="evenodd" d="M16.2414 8.34009C14.7389 9.57362 13.0572 11.4783 12.7808 13.5315C12.7548 13.7143 12.7414 13.9007 12.7414 14.0901L12.7415 14.1001L12.7414 14.1104C12.7533 16.4482 14.8083 18.3401 17.3414 18.3401C19.882 18.3401 21.9414 16.4373 21.9414 14.0901C21.9414 11.7429 19.882 9.84009 17.3414 9.84009C16.9523 9.84009 16.5745 9.88473 16.2136 9.96876C17.8229 8.23624 19.89 7.10596 21.298 6.56776C21.515 6.4848 21.6131 6.22856 21.4984 6.02647C21.433 5.91127 21.3109 5.83822 21.1791 5.85169C19.9683 5.97552 17.7843 7.07346 16.2414 8.34009ZM17.3414 17.1401C19.3104 17.1401 20.7414 15.6869 20.7414 14.0901C20.7414 12.4933 19.3104 11.0401 17.3414 11.0401C15.3725 11.0401 13.9414 12.4933 13.9414 14.0901C13.9414 15.6869 15.3725 17.1401 17.3414 17.1401Z" fill="currentColor"/>
</svg>
