<svg width="24" height="24" viewBox="0 0 24 24" fill="none" xmlns="http://www.w3.org/2000/svg" data-karrot-ui-icon="true">
  <path d="M9 5.1001L11 2.1001L13 5.1001H11.9239C11.8015 5.40329 11.778 5.68827 11.8179 5.90902C11.8561 6.12025 11.9921 6.33419 12.2772 6.7148L12.3258 6.77941C12.5672 7.0998 12.919 7.56668 13.0603 8.13557C13.23 8.81837 13.1933 9.58313 12.6397 10.3202C12.3743 10.6735 11.8728 10.7447 11.5195 10.4794C11.1663 10.214 11.095 9.71254 11.3603 9.35927C11.5635 9.08881 11.5882 8.84608 11.5075 8.52138C11.45 8.28985 11.2923 8.06888 10.9965 7.67389L10.9799 7.6518C10.7289 7.31686 10.3568 6.82032 10.2435 6.19384C10.1794 5.83974 10.1869 5.46828 10.2605 5.1001H9Z" fill="currentColor"/>
  <path d="M15.9239 5.1001H17L15 2.1001L13 5.1001H14.2605C14.1869 5.46828 14.1794 5.83974 14.2435 6.19384C14.3568 6.82032 14.7289 7.31686 14.9799 7.6518L14.9965 7.67389C15.2923 8.06888 15.45 8.28985 15.5075 8.52138C15.5882 8.84608 15.5635 9.08881 15.3603 9.35927C15.095 9.71254 15.1663 10.214 15.5195 10.4794C15.8728 10.7447 16.3743 10.6735 16.6397 10.3202C17.1933 9.58313 17.23 8.81837 17.0603 8.13557C16.919 7.56668 16.5672 7.0998 16.3258 6.77941L16.2772 6.7148C15.9921 6.33419 15.8561 6.12025 15.8179 5.90902C15.778 5.68827 15.8015 5.40329 15.9239 5.1001Z" fill="currentColor"/>
  <path fill-rule="evenodd" clip-rule="evenodd" d="M8.51853 8.75752C8.88174 8.50593 8.97222 8.00755 8.72064 7.64435C8.46906 7.28114 7.97067 7.19065 7.60747 7.44224C5.54901 8.86808 4.19995 11.2683 4.19995 13.9843C4.19995 18.3435 7.67983 21.8999 12 21.8999C16.3201 21.8999 19.8 18.3435 19.8 13.9843C19.8 12.8619 19.5693 11.7919 19.1525 10.8221C18.978 10.4162 18.5075 10.2286 18.1016 10.403C17.6957 10.5775 17.508 11.048 17.6825 11.4539C18.0149 12.2274 18.2 13.0826 18.2 13.9843C18.2 14.7359 18.0714 15.456 17.8357 16.1233L14.7582 14.5846C14.7857 14.4273 14.8 14.2655 14.8 14.1003C14.8 12.5539 13.5463 11.3003 12 11.3003C10.4536 11.3003 9.19995 12.5539 9.19995 14.1003C9.19995 14.2655 9.21425 14.4273 9.24169 14.5846L6.16422 16.1234C5.92852 15.456 5.79995 14.7359 5.79995 13.9843C5.79995 11.8083 6.87902 9.89316 8.51853 8.75752ZM14.0424 16.0156C13.5316 16.5601 12.8055 16.9003 12 16.9003C11.1944 16.9003 10.4683 16.5601 9.95749 16.0156L6.88336 17.5527C8.0027 19.2141 9.88104 20.2999 12 20.2999C14.1189 20.2999 15.9972 19.2141 17.1166 17.5526L14.0424 16.0156ZM10.8 14.1003C10.8 13.4376 11.3372 12.9003 12 12.9003C12.6627 12.9003 13.2 13.4376 13.2 14.1003C13.2 14.763 12.6627 15.3003 12 15.3003C11.3372 15.3003 10.8 14.763 10.8 14.1003Z" fill="currentColor"/>
</svg>
