<svg width="24" height="24" viewBox="0 0 24 24" fill="none" xmlns="http://www.w3.org/2000/svg" data-karrot-ui-icon="true">
  <path fill-rule="evenodd" clip-rule="evenodd" d="M4.80917 2.19995C4.06682 2.19995 3.40062 2.65568 3.13156 3.34755L0.877571 9.14352C0.737187 9.50451 0.699027 9.95076 0.882704 10.381C1.08261 10.8493 1.62879 11.9194 2.7002 12.4657V20C2.7002 20.9941 3.50608 21.8 4.5002 21.8H19.5002C20.4943 21.8 21.3002 20.9941 21.3002 20V12.4656C22.3715 11.9193 22.9176 10.8493 23.1175 10.381C23.3012 9.95076 23.263 9.50451 23.1226 9.14352L20.8686 3.34755C20.5996 2.65568 19.9334 2.19995 19.191 2.19995H4.80917ZM19.7002 12.7955C18.5291 12.7359 17.7444 12.0827 17.2501 11.4408C16.7316 12.1142 15.8935 12.8 14.6251 12.8C13.3567 12.8 12.5186 12.1142 12.0001 11.4408C11.4816 12.1142 10.6435 12.8 9.3751 12.8C8.10667 12.8 7.26864 12.1142 6.7501 11.4408C6.25581 12.0827 5.4712 12.7359 4.3002 12.7955V20C4.3002 20.1104 4.38974 20.2 4.5002 20.2H8.7002V17.5C8.7002 15.6774 10.1777 14.2 12.0002 14.2C13.8227 14.2 15.3002 15.6774 15.3002 17.5V20.2H19.5002C19.6107 20.2 19.7002 20.1104 19.7002 20V12.7955ZM4.62277 3.92746C4.65266 3.85059 4.72669 3.79995 4.80917 3.79995H19.191C19.2735 3.79995 19.3475 3.85059 19.3774 3.92746L21.6314 9.72344C21.6389 9.74262 21.6411 9.75611 21.6417 9.76288C21.3849 10.3595 20.8362 11.2 19.8751 11.2C18.9103 11.2 18.3611 10.3532 18.1053 9.75535C17.919 9.31992 17.5024 9.20106 17.2501 9.20107C16.9978 9.20107 16.5812 9.31992 16.3949 9.75535C16.1391 10.3532 15.5899 11.2 14.6251 11.2C13.6603 11.2 13.1111 10.3532 12.8553 9.75535C12.669 9.31992 12.2524 9.20106 12.0001 9.20107C11.7478 9.20107 11.3312 9.31992 11.1449 9.75535C10.8891 10.3532 10.3399 11.2 9.3751 11.2C8.41032 11.2 7.86106 10.3532 7.60529 9.75535C7.41901 9.31992 7.00236 9.20106 6.7501 9.20107C6.49784 9.20107 6.0812 9.31992 5.89491 9.75535C5.63914 10.3532 5.08989 11.2 4.1251 11.2C3.16402 11.2 2.61531 10.3595 2.35852 9.76288C2.35911 9.75612 2.36132 9.74262 2.36878 9.72344L4.62277 3.92746ZM13.7002 17.5V20.2H10.3002V17.5C10.3002 16.5611 11.0613 15.8 12.0002 15.8C12.9391 15.8 13.7002 16.5611 13.7002 17.5Z" fill="currentColor"/>
</svg>
