<svg width="24" height="24" viewBox="0 0 24 24" fill="none" xmlns="http://www.w3.org/2000/svg" data-karrot-ui-icon="true">
  <path fill-rule="evenodd" clip-rule="evenodd" d="M6.0002 20.5998H11.0984C10.8912 20.4838 10.6407 20.3386 10.3582 20.1654C9.54159 19.6648 8.45029 18.9261 7.35614 17.9745C5.19007 16.0905 2.8999 13.2719 2.8999 9.73303C2.8999 4.78819 6.98537 0.799805 11.9999 0.799805C17.0144 0.799805 21.0999 4.78819 21.0999 9.73303C21.0999 13.2719 18.8097 16.0905 16.6437 17.9745C15.5495 18.9261 14.4582 19.6648 13.6416 20.1654C13.3591 20.3386 13.1086 20.4838 12.9014 20.5998H18.0002C18.442 20.5998 18.8002 20.958 18.8002 21.3998C18.8002 21.8417 18.442 22.1998 18.0002 22.1998H6.0002C5.55837 22.1998 5.2002 21.8417 5.2002 21.3998C5.2002 20.958 5.55837 20.5998 6.0002 20.5998ZM12 12.8998C13.6569 12.8998 15 11.5567 15 9.89981C15 8.24296 13.6569 6.89981 12 6.89981C10.3431 6.89981 9 8.24296 9 9.89981C9 11.5567 10.3431 12.8998 12 12.8998Z" fill="currentColor"/>
</svg>
