<svg width="24" height="24" viewBox="0 0 24 24" fill="none" xmlns="http://www.w3.org/2000/svg" data-karrot-ui-icon="true">
  <path d="M12.8999 2.9999C12.8999 2.66853 12.6313 2.3999 12.2999 2.3999C11.9685 2.3999 11.6999 2.66853 11.6999 2.9999L11.6999 5.9999C11.6999 6.33127 11.9685 6.5999 12.2999 6.5999C12.6313 6.5999 12.8999 6.33127 12.8999 5.9999V2.9999Z" fill="currentColor"/>
  <path d="M18.5454 5.07856C18.311 4.84425 17.9311 4.84425 17.6968 5.07856L15.5755 7.19988C15.3412 7.4342 15.3412 7.81409 15.5755 8.04841C15.8098 8.28272 16.1897 8.28272 16.424 8.04841L18.5454 5.92709C18.7797 5.69277 18.7797 5.31288 18.5454 5.07856Z" fill="currentColor"/>
  <path d="M6.86714 5.07881C6.63282 4.84449 6.25292 4.84449 6.01861 5.07881C5.78429 5.31312 5.78429 5.69302 6.01861 5.92733L8.13993 8.04865C8.37424 8.28297 8.75414 8.28297 8.98846 8.04865C9.22277 7.81434 9.22277 7.43444 8.98846 7.20013L6.86714 5.07881Z" fill="currentColor"/>
  <path d="M21.3999 11.4002C21.3999 11.7316 21.1313 12.0002 20.7999 12.0002H17.7999C17.4685 12.0002 17.1999 11.7316 17.1999 11.4002C17.1999 11.0689 17.4685 10.8002 17.7999 10.8002L20.7999 10.8002C21.1313 10.8002 21.3999 11.0689 21.3999 11.4002Z" fill="currentColor"/>
  <path d="M3.9999 10.8499C3.66853 10.8499 3.3999 11.1185 3.3999 11.4499C3.3999 11.7812 3.66853 12.0499 3.9999 12.0499H6.9999C7.33127 12.0499 7.5999 11.7812 7.5999 11.4499C7.5999 11.1185 7.33127 10.8499 6.9999 10.8499H3.9999Z" fill="currentColor"/>
  <path d="M8.92417 15.6742C9.15848 15.4399 9.15848 15.06 8.92417 14.8256C8.68985 14.5913 8.30995 14.5913 8.07564 14.8256L2.07564 20.8256C1.84132 21.06 1.84132 21.4399 2.07564 21.6742C2.30995 21.9085 2.68985 21.9085 2.92417 21.6742L8.92417 15.6742Z" fill="currentColor"/>
  <path d="M17.9327 17.7713C18.167 18.0056 18.5469 18.0056 18.7812 17.7713C19.0155 17.537 19.0155 17.1571 18.7812 16.9228L16.6599 14.8014C16.4256 14.5671 16.0457 14.5671 15.8113 14.8014C15.577 15.0358 15.577 15.4157 15.8113 15.65L17.9327 17.7713Z" fill="currentColor"/>
  <path d="M12.3002 20.4502C11.9688 20.4502 11.7002 20.1816 11.7002 19.8502V16.8502C11.7002 16.5188 11.9688 16.2502 12.3002 16.2502C12.6316 16.2502 12.9002 16.5188 12.9002 16.8502V19.8502C12.9002 20.1816 12.6316 20.4502 12.3002 20.4502Z" fill="currentColor"/>
</svg>
