<svg width="24" height="24" viewBox="0 0 24 24" fill="none" xmlns="http://www.w3.org/2000/svg" data-karrot-ui-icon="true">
  <path fill-rule="evenodd" clip-rule="evenodd" d="M10.909 8.62043C10.5487 8.62043 10.2566 8.91255 10.2566 9.2729V14.7274C10.2566 15.0878 10.5487 15.3799 10.909 15.3799C11.2694 15.3799 11.5615 15.0878 11.5615 14.7274V13.1981H12.5454C13.8095 13.1981 14.8342 12.1734 14.8342 10.9093C14.8342 9.64518 13.8095 8.62043 12.5454 8.62043H10.909ZM11.5615 11.8932V9.92538H12.5454C13.0888 9.92538 13.5293 10.3659 13.5293 10.9093C13.5293 11.4527 13.0888 11.8932 12.5454 11.8932H11.5615Z" fill="currentColor"/>
  <path fill-rule="evenodd" clip-rule="evenodd" d="M12 4.80225C8.02465 4.80225 4.80202 8.02487 4.80202 12.0002C4.80202 15.9755 8.02465 19.1981 12 19.1981C15.9753 19.1981 19.1979 15.9755 19.1979 12.0002C19.1979 8.02487 15.9753 4.80225 12 4.80225ZM6.10697 12.0002C6.10697 8.74557 8.74535 6.1072 12 6.1072C15.2546 6.1072 17.8929 8.74557 17.8929 12.0002C17.8929 15.2548 15.2546 17.8932 12 17.8932C8.74535 17.8932 6.10697 15.2548 6.10697 12.0002Z" fill="currentColor"/>
  <path d="M19.2399 4.93654C19.5261 4.71758 19.9356 4.7721 20.1546 5.0583C21.6024 6.9508 22.4706 9.44229 22.4706 12.142C22.4706 14.7064 21.6933 17.0712 20.3805 18.923C20.1721 19.217 19.7649 19.2864 19.4709 19.078C19.1769 18.8696 19.1076 18.4623 19.316 18.1683C20.4676 16.5438 21.1657 14.4443 21.1657 12.142C21.1657 9.71879 20.3858 7.50816 19.1181 5.85121C18.8992 5.56501 18.9537 5.1555 19.2399 4.93654Z" fill="currentColor"/>
  <path d="M4.7607 4.93704C5.04663 5.15636 5.10062 5.56594 4.8813 5.85187C3.60384 7.51727 2.83425 9.66254 2.83425 12.0002C2.83425 14.3379 3.60384 16.4831 4.8813 18.1485C5.10062 18.4345 5.04663 18.8441 4.7607 19.0634C4.47478 19.2827 4.0652 19.2287 3.84588 18.9428C2.39389 17.0498 1.5293 14.6255 1.5293 12.0002C1.5293 9.37493 2.39389 6.95058 3.84588 5.05764C4.0652 4.77172 4.47478 4.71772 4.7607 4.93704Z" fill="currentColor"/>
</svg>
