<svg width="24" height="24" viewBox="0 0 24 24" fill="none" xmlns="http://www.w3.org/2000/svg" data-karrot-ui-icon="true">
  <path fill-rule="evenodd" clip-rule="evenodd" d="M2 3.60005C2 2.05365 3.2536 0.800049 4.8 0.800049H18.8C20.3464 0.800049 21.6 2.05365 21.6 3.60005V11.6C21.6 12.0419 21.2418 12.4 20.8 12.4C20.3582 12.4 20 12.0419 20 11.6V3.60005C20 2.93731 19.4627 2.40005 18.8 2.40005H4.8C4.13726 2.40005 3.6 2.93731 3.6 3.60005V19.6C3.6 20.2628 4.13726 20.8 4.8 20.8H12.8C13.2418 20.8 13.6 21.1582 13.6 21.6C13.6 22.0419 13.2418 22.4 12.8 22.4H4.8C3.2536 22.4 2 21.1464 2 19.6V3.60005Z" fill="currentColor"/>
  <path fill-rule="evenodd" clip-rule="evenodd" d="M7 6.60005C7 6.15822 7.35817 5.80005 7.8 5.80005H15.8C16.2418 5.80005 16.6 6.15822 16.6 6.60005C16.6 7.04188 16.2418 7.40005 15.8 7.40005H7.8C7.35817 7.40005 7 7.04188 7 6.60005Z" fill="currentColor"/>
  <path fill-rule="evenodd" clip-rule="evenodd" d="M7 10.6C7 10.1582 7.35817 9.80005 7.8 9.80005H15.8C16.2418 9.80005 16.6 10.1582 16.6 10.6C16.6 11.0419 16.2418 11.4 15.8 11.4H7.8C7.35817 11.4 7 11.0419 7 10.6Z" fill="currentColor"/>
  <path fill-rule="evenodd" clip-rule="evenodd" d="M7 14.6C7 14.1582 7.35817 13.8 7.8 13.8H11.8C12.2418 13.8 12.6 14.1582 12.6 14.6C12.6 15.0419 12.2418 15.4 11.8 15.4H7.8C7.35817 15.4 7 15.0419 7 14.6Z" fill="currentColor"/>
  <path fill-rule="evenodd" clip-rule="evenodd" d="M17.8 15.4C16.585 15.4 15.6 16.385 15.6 17.6C15.6 18.8151 16.585 19.8 17.8 19.8C19.015 19.8 20 18.8151 20 17.6C20 16.385 19.015 15.4 17.8 15.4ZM14 17.6C14 15.5014 15.7013 13.8 17.8 13.8C19.8987 13.8 21.6 15.5014 21.6 17.6C21.6 19.6987 19.8987 21.4 17.8 21.4C15.7013 21.4 14 19.6987 14 17.6Z" fill="currentColor"/>
  <path fill-rule="evenodd" clip-rule="evenodd" d="M19.7343 19.5344C20.0467 19.2219 20.5533 19.2219 20.8657 19.5344L22.3657 21.0344C22.6781 21.3468 22.6781 21.8533 22.3657 22.1657C22.0533 22.4782 21.5467 22.4782 21.2343 22.1657L19.7343 20.6657C19.4219 20.3533 19.4219 19.8468 19.7343 19.5344Z" fill="currentColor"/>
</svg>
