<svg width="24" height="24" viewBox="0 0 24 24" fill="none" xmlns="http://www.w3.org/2000/svg" data-karrot-ui-icon="true">
  <path fill-rule="evenodd" clip-rule="evenodd" d="M21.8499 9.29519C21.8499 12.3577 19.1188 14.8404 15.7499 14.8404C15.2986 14.8404 14.8587 14.7958 14.4353 14.7113L12.2619 15.8992C12.0318 16.0392 11.7373 15.8733 11.7373 15.6038L11.7217 13.6017C10.3189 12.5857 9.6499 11.0524 9.6499 9.29519C9.6499 6.23267 12.381 3.75 15.7499 3.75C19.1188 3.75 21.8499 6.23267 21.8499 9.29519ZM13.9883 7.94873C13.734 7.94873 13.5279 8.15508 13.5279 8.40963C13.5279 8.66418 13.734 8.87053 13.9883 8.87053H17.4411C17.6954 8.87053 17.9015 8.66418 17.9015 8.40963C17.9015 8.15508 17.6954 7.94873 17.4411 7.94873H13.9883ZM13.9883 10.2532C13.734 10.2532 13.5279 10.4596 13.5279 10.7141C13.5279 10.9687 13.734 11.175 13.9883 11.175H17.4411C17.6954 11.175 17.9015 10.9687 17.9015 10.7141C17.9015 10.4596 17.6954 10.2532 17.4411 10.2532H13.9883Z" fill="currentColor"/>
  <path d="M10.5262 14.1794L10.5374 15.61C10.5418 16.7973 11.8289 17.536 12.8541 16.9431L14.646 15.9637C14.8389 15.9908 15.0341 16.0108 15.2312 16.0236C15.8157 17.0608 16.1499 18.2618 16.1499 19.5428C16.1499 19.9334 15.8384 20.25 15.4543 20.25H2.84555C2.46136 20.25 2.1499 19.9334 2.1499 19.5428C2.1499 16.8555 3.61484 14.528 5.7731 13.3191C4.7139 12.3721 4.04121 10.9831 4.04121 9.43523C4.04121 6.56773 6.32711 4.25 9.1499 4.25C9.66927 4.25 10.1705 4.32846 10.6426 4.47437C9.30015 5.68268 8.44995 7.37376 8.44995 9.29524C8.44995 11.1712 9.10594 12.9188 10.5262 14.1794Z" fill="currentColor"/>
</svg>
