<svg width="24" height="24" viewBox="0 0 24 24" fill="none" xmlns="http://www.w3.org/2000/svg" data-karrot-ui-icon="true">
  <path fill-rule="evenodd" clip-rule="evenodd" d="M19.2728 2.28372C17.3524 1.76913 15.3783 2.90882 14.8638 4.8293L12.2786 14.4772C12.253 14.5726 12.1666 14.6389 12.0679 14.6389H5.65005C3.66182 14.6389 2.05005 16.2507 2.05005 18.2389C2.05005 20.2271 3.66182 21.8389 5.65005 21.8389L16.2667 21.839C17.1561 21.839 17.9345 21.2412 18.1639 20.3818L21.8184 6.6928C22.333 4.77232 21.1933 2.79831 19.2728 2.28372ZM16.5497 5.28106C16.8148 4.29172 17.8317 3.7046 18.8211 3.9697C19.8104 4.23479 20.3973 5.25248 20.1322 6.24181L16.4775 19.9316C16.452 20.0271 16.3655 20.0935 16.2667 20.0935L5.65005 20.0935C4.62581 20.0935 3.7955 19.2632 3.7955 18.2389C3.7955 17.2147 4.62581 16.3844 5.65005 16.3844H12.0679C12.9566 16.3844 13.7346 15.7874 13.9646 14.929L16.5497 5.28106Z" fill="currentColor"/>
  <path d="M5.10465 3.51154L2.92283 6.78427H4.29792C4.2176 7.18592 4.20947 7.59115 4.27935 7.97744C4.40298 8.66087 4.80894 9.20256 5.08277 9.56795L5.10083 9.59204C5.42352 10.0229 5.59558 10.264 5.65834 10.5166C5.74635 10.8708 5.71936 11.1356 5.49775 11.4306C5.20828 11.816 5.28604 12.3631 5.67143 12.6526C6.05682 12.942 6.6039 12.8643 6.89337 12.4789C7.4973 11.6749 7.53736 10.8406 7.35229 10.0957C7.19809 9.47509 6.8143 8.96576 6.55094 8.61625L6.49793 8.54576C6.18698 8.13055 6.03861 7.89716 5.99693 7.66673C5.95336 7.42591 5.97904 7.11502 6.11253 6.78427H7.28647H8.66156C8.58124 7.18592 8.57311 7.59115 8.64299 7.97744C8.76662 8.66087 9.17257 9.20256 9.44641 9.56795L9.46446 9.59204C9.78716 10.0229 9.95922 10.264 10.022 10.5166C10.11 10.8708 10.083 11.1356 9.86139 11.4306C9.57192 11.816 9.64967 12.3631 10.0351 12.6526C10.4205 12.942 10.9675 12.8643 11.257 12.4789C11.8609 11.6749 11.901 10.8406 11.7159 10.0957C11.5617 9.47509 11.1779 8.96576 10.9146 8.61625L10.8616 8.54576C10.5506 8.13055 10.4022 7.89716 10.3606 7.66673C10.317 7.42591 10.3427 7.11502 10.4762 6.78427H11.6501L9.46828 3.51154L7.28647 6.78427L5.10465 3.51154Z" fill="currentColor"/>
</svg>
