<svg width="24" height="24" viewBox="0 0 24 24" fill="none" xmlns="http://www.w3.org/2000/svg" data-karrot-ui-icon="true">
  <path fill-rule="evenodd" clip-rule="evenodd" d="M13.2865 8.28571C13.2865 8.3115 13.2858 8.33711 13.2843 8.36252C13.2626 8.7301 13.0865 9.05615 12.82 9.27673C12.6942 9.38078 12.5484 9.46136 12.3891 9.51176C12.5011 9.71713 12.6265 9.92924 12.7646 10.1402C12.8229 10.2292 12.8834 10.318 12.9462 10.406C13.0573 10.5619 13.1753 10.7152 13.3 10.8626C13.8824 11.5516 14.6094 12.1129 15.4511 12.2089C15.6362 12.2301 15.827 12.2287 16.0229 12.2012C16.315 12.1602 16.6187 12.0612 16.933 11.8923C16.9929 11.8601 17.0532 11.8253 17.1139 11.788C16.955 11.6365 16.8348 11.4448 16.7697 11.2292C16.7342 11.1114 16.7151 10.9865 16.7151 10.8571C16.7151 10.6457 16.7661 10.4463 16.8565 10.2703C17.0698 9.85533 17.5021 9.57143 18.0008 9.57143C18.7109 9.57143 19.2865 10.1471 19.2865 10.8571C19.2865 11.0872 19.2261 11.3031 19.1203 11.49C18.8994 11.8798 18.4808 12.1429 18.0008 12.1429C17.9008 12.1429 17.8035 12.1314 17.71 12.1098L16.5008 16.4286H7.5008L6.29156 12.1098C6.19813 12.1314 6.1008 12.1429 6.0008 12.1429C5.52077 12.1429 5.10218 11.8798 4.88134 11.49C4.77551 11.3031 4.71509 11.0872 4.71509 10.8571C4.71509 10.1471 5.29072 9.57143 6.0008 9.57143C6.49948 9.57143 6.93185 9.85533 7.1451 10.2703C7.2355 10.4463 7.28652 10.6457 7.28652 10.8571C7.28652 10.9865 7.26741 11.1114 7.23185 11.2292C7.16678 11.4448 7.04661 11.6365 6.88772 11.788C6.94839 11.8253 7.00868 11.8601 7.06859 11.8923C7.38287 12.0612 7.68659 12.1602 7.97868 12.2012C8.17463 12.2287 8.36536 12.2301 8.55054 12.2089C9.39222 12.1129 10.1192 11.5516 10.7016 10.8626C10.8263 10.7152 10.9443 10.5619 11.0554 10.406C11.1182 10.318 11.1787 10.2292 11.237 10.1402C11.3751 9.92924 11.5005 9.71713 11.6125 9.51176C11.4532 9.46136 11.3074 9.38078 11.1816 9.27673C10.9151 9.05615 10.739 8.7301 10.7173 8.36252C10.7158 8.33711 10.7151 8.3115 10.7151 8.28571C10.7151 7.57563 11.2907 7 12.0008 7C12.7109 7 13.2865 7.57563 13.2865 8.28571ZM12.0008 11.8027C12.3869 12.2733 12.845 12.7245 13.3773 13.0804C13.9581 13.4687 14.672 13.7731 15.498 13.8178C15.5218 13.8191 15.5456 13.8202 15.5694 13.821L15.2873 14.8286H8.71434L8.43223 13.821C8.45601 13.8202 8.4798 13.8191 8.5036 13.8178C9.32965 13.7731 10.0435 13.4687 10.6243 13.0804C11.1566 12.7245 11.6148 12.2733 12.0008 11.8027Z" fill="currentColor"/>
  <path fill-rule="evenodd" clip-rule="evenodd" d="M10.7143 0.742455C11.5099 0.283114 12.4901 0.283114 13.2857 0.742455L21.1066 5.25784C21.9022 5.71718 22.3923 6.56608 22.3923 7.48476V16.5155C22.3923 17.4342 21.9022 18.2831 21.1066 18.7425L13.2857 23.2578C12.4901 23.7172 11.5099 23.7172 10.7143 23.2578L2.89338 18.7425C2.09778 18.2831 1.60767 17.4342 1.60767 16.5155V7.48476C1.60767 6.56608 2.09778 5.71718 2.89338 5.25784L10.7143 0.742455ZM12.4857 2.1281L20.3066 6.64348C20.6071 6.81701 20.7923 7.1377 20.7923 7.48476V16.5155C20.7923 16.8626 20.6071 17.1833 20.3066 17.3568L12.4857 21.8722C12.1851 22.0457 11.8148 22.0457 11.5143 21.8722L3.69338 17.3568C3.39282 17.1833 3.20767 16.8626 3.20767 16.5155V7.48476C3.20767 7.1377 3.39282 6.81701 3.69338 6.64348L11.5143 2.1281C11.8148 1.95457 12.1851 1.95457 12.4857 2.1281Z" fill="currentColor"/>
</svg>
