<svg width="24" height="24" viewBox="0 0 24 24" fill="none" xmlns="http://www.w3.org/2000/svg" data-karrot-ui-icon="true">
  <path fill-rule="evenodd" clip-rule="evenodd" d="M2.19995 3.6C2.19995 2.16406 3.36401 1 4.79995 1H18.8C20.2359 1 21.4 2.16406 21.4 3.6V12.6C21.4 12.9314 21.1313 13.2 20.8 13.2C20.4686 13.2 20.2 12.9314 20.2 12.6V3.6C20.2 2.8268 19.5732 2.2 18.8 2.2H4.79995C4.02675 2.2 3.39995 2.8268 3.39995 3.6V19.6C3.39995 20.3732 4.02675 21 4.79995 21H12.7C13.0313 21 13.3 21.2686 13.3 21.6C13.3 21.9314 13.0313 22.2 12.7 22.2H4.79995C3.36401 22.2 2.19995 21.0359 2.19995 19.6V3.6Z" fill="currentColor"/>
  <path fill-rule="evenodd" clip-rule="evenodd" d="M7.19995 6.6C7.19995 6.26863 7.46858 6 7.79995 6H15.8C16.1313 6 16.4 6.26863 16.4 6.6C16.4 6.93137 16.1313 7.2 15.8 7.2H7.79995C7.46858 7.2 7.19995 6.93137 7.19995 6.6Z" fill="currentColor"/>
  <path fill-rule="evenodd" clip-rule="evenodd" d="M7.19995 10.6C7.19995 10.2686 7.46858 10 7.79995 10H15.8C16.1313 10 16.4 10.2686 16.4 10.6C16.4 10.9314 16.1313 11.2 15.8 11.2H7.79995C7.46858 11.2 7.19995 10.9314 7.19995 10.6Z" fill="currentColor"/>
  <path fill-rule="evenodd" clip-rule="evenodd" d="M7.19995 14.6C7.19995 14.2686 7.46858 14 7.79995 14H12.8C13.1313 14 13.4 14.2686 13.4 14.6C13.4 14.9314 13.1313 15.2 12.8 15.2H7.79995C7.46858 15.2 7.19995 14.9314 7.19995 14.6Z" fill="currentColor"/>
  <path fill-rule="evenodd" clip-rule="evenodd" d="M14.2 18.6C14.2 18.2686 14.4686 18 14.8 18H20.8C21.1313 18 21.4 18.2686 21.4 18.6C21.4 18.9314 21.1313 19.2 20.8 19.2H14.8C14.4686 19.2 14.2 18.9314 14.2 18.6Z" fill="currentColor"/>
  <path fill-rule="evenodd" clip-rule="evenodd" d="M17.8 22.2002C17.4686 22.2002 17.2 21.9316 17.2 21.6002V15.6002C17.2 15.2688 17.4686 15.0002 17.8 15.0002C18.1313 15.0002 18.4 15.2688 18.4 15.6002L18.4 21.6002C18.4 21.9316 18.1313 22.2002 17.8 22.2002Z" fill="currentColor"/>
</svg>
