<svg width="24" height="24" viewBox="0 0 24 24" fill="none" xmlns="http://www.w3.org/2000/svg" data-karrot-ui-icon="true">
  <path fill-rule="evenodd" clip-rule="evenodd" d="M16.3713 3.61429C16.8393 4.08853 17.1555 4.6701 17.1555 5.33324V10.8922C17.1555 11.555 16.8391 12.1362 16.3711 12.6099C15.9055 13.0811 15.2617 13.4779 14.5135 13.7982C13.015 14.4397 10.9867 14.8218 8.77768 14.8218C6.56867 14.8218 4.54033 14.4397 3.04183 13.7982C2.49611 13.5645 2.00589 13.2902 1.5999 12.976V16.4478C1.5999 16.7044 1.71883 16.9992 2.03793 17.3222C2.35956 17.6477 2.85476 17.9684 3.51409 18.2507C4.83059 18.8142 6.69114 19.1775 8.77768 19.1775C9.14276 19.1775 9.5015 19.1663 9.85212 19.1449C10.1829 19.1246 10.4674 19.3763 10.4877 19.7071C10.5079 20.0378 10.2562 20.3224 9.92546 20.3426C9.5503 20.3656 9.1671 20.3775 8.77768 20.3775C6.56867 20.3775 4.54033 19.9953 3.04183 19.3538C2.29366 19.0335 1.64983 18.6368 1.18431 18.1656C0.716253 17.6919 0.399902 17.1107 0.399902 16.4478V5.33113C0.400572 4.66887 0.716527 4.08803 1.18407 3.61429C1.64956 3.14263 2.29339 2.74539 3.04161 2.42473C4.54017 1.78248 6.5686 1.3999 8.77768 1.3999C10.9868 1.3999 13.0152 1.78248 14.5138 2.42473C15.262 2.74539 15.9058 3.14263 16.3713 3.61429ZM1.5999 5.33324C1.5999 5.0759 1.71905 4.78056 2.03817 4.45721C2.35983 4.13129 2.85503 3.81025 3.51431 3.5277C4.83075 2.96351 6.69122 2.5999 8.77768 2.5999C10.8641 2.5999 12.7246 2.96351 14.041 3.5277C14.7003 3.81025 15.1955 4.13129 15.5172 4.45721C15.8363 4.78056 15.9555 5.0759 15.9555 5.33324C15.9555 5.59057 15.8363 5.88591 15.5172 6.20926C15.1955 6.53518 14.7003 6.85622 14.041 7.13877C12.7246 7.70296 10.8641 8.06657 8.77768 8.06657C6.69122 8.06657 4.83075 7.70296 3.51431 7.13877C2.85503 6.85622 2.35983 6.53518 2.03817 6.20926C1.71905 5.88591 1.5999 5.59057 1.5999 5.33324ZM1.5999 10.8922C1.5999 11.1488 1.71883 11.4436 2.03793 11.7665C2.35956 12.0921 2.85476 12.4127 3.51409 12.695C4.83059 13.2586 6.69114 13.6218 8.77768 13.6218C10.8642 13.6218 12.7248 13.2586 14.0413 12.695C14.7006 12.4127 15.1958 12.0921 15.5174 11.7665C15.8365 11.4436 15.9555 11.1488 15.9555 10.8922V7.41887C15.5495 7.73333 15.0594 8.0079 14.5138 8.24174C13.0152 8.88399 10.9868 9.26657 8.77768 9.26657C6.5686 9.26657 4.54017 8.88399 3.04161 8.24174C2.49597 8.0079 2.00584 7.73333 1.5999 7.41887V10.8922Z" fill="currentColor"/>
  <path d="M18.3535 14.9086C18.5878 14.6743 18.9677 14.6743 19.202 14.9086L22.5353 18.242C22.7696 18.4763 22.7696 18.8562 22.5353 19.0905L19.202 22.4238C18.9677 22.6582 18.5878 22.6582 18.3535 22.4238C18.1192 22.1895 18.1192 21.8096 18.3535 21.5753L20.6619 19.2669H14.3334C14.002 19.2669 13.7334 18.9983 13.7334 18.6669C13.7334 18.3355 14.002 18.0669 14.3334 18.0669H20.6632L18.3535 15.7572C18.1192 15.5229 18.1192 15.143 18.3535 14.9086Z" fill="currentColor"/>
</svg>
