<svg width="24" height="24" viewBox="0 0 24 24" fill="none" xmlns="http://www.w3.org/2000/svg" data-karrot-ui-icon="true">
  <path fill-rule="evenodd" clip-rule="evenodd" d="M22 12C22 17.5228 17.5228 22 12 22C6.47715 22 2 17.5228 2 12C2 6.47715 6.47715 2 12 2C17.5228 2 22 6.47715 22 12ZM17.8643 18.5614C16.3077 19.9536 14.2527 20.8 12 20.8C7.13989 20.8 3.2 16.8601 3.2 12C3.2 9.73555 4.0553 7.67087 5.46046 6.11139C5.48887 6.1697 5.5273 6.22435 5.57574 6.27279L17.8643 18.5614ZM18.7025 17.7025L6.42426 5.42426C6.37952 5.37952 6.32947 5.34332 6.27614 5.31567C7.81492 3.99676 9.81441 3.2 12 3.2C16.8601 3.2 20.8 7.13989 20.8 12C20.8 14.1755 20.0106 16.1666 18.7025 17.7025Z" fill="currentColor"/>
</svg>
