<svg width="24" height="24" viewBox="0 0 24 24" fill="none" xmlns="http://www.w3.org/2000/svg" data-karrot-ui-icon="true">
  <path fill-rule="evenodd" clip-rule="evenodd" d="M1.3999 9.5C1.3999 5.55166 5.39908 2.5 9.9999 2.5C12.6744 2.5 15.1456 3.53121 16.7461 5.17031C20.0224 6.06355 22.6 8.60174 22.6 11.8C22.6 14.2753 21.077 16.603 18.7925 17.8711C19.2289 18.7604 19.6177 19.3912 19.9062 19.8091C20.0772 20.0568 20.2132 20.2299 20.3031 20.3378C20.3481 20.3917 20.3815 20.4294 20.4022 20.452C20.4125 20.4633 20.4196 20.4708 20.4233 20.4747L20.426 20.4775C20.5985 20.6517 20.6481 20.9137 20.5504 21.1388C20.4524 21.3648 20.2262 21.5079 19.98 21.4997L19.9288 21.4971C19.9004 21.4953 19.8608 21.4925 19.8108 21.4879C19.7107 21.4788 19.5689 21.4628 19.3912 21.4349C19.036 21.3791 18.5365 21.2755 17.941 21.0836C16.7925 20.7135 15.2855 20.0146 13.7701 18.6977C12.0068 18.6619 10.3982 18.2145 9.02613 17.4189C7.93259 18.1518 6.89336 18.5834 6.04731 18.8372C5.44981 19.0164 4.94863 19.1071 4.59204 19.1529C4.41367 19.1758 4.2712 19.1876 4.1706 19.1936L3.9999 19.2C3.75079 19.2 3.5276 19.0461 3.43907 18.8132C3.35113 18.5819 3.41425 18.3205 3.5976 18.1549L3.59862 18.1539L3.70961 18.0369C3.79588 17.94 3.92887 17.7795 4.09755 17.541C4.38449 17.1353 4.77514 16.5035 5.21485 15.5752C2.92616 14.3081 1.3999 11.978 1.3999 9.5ZM8.71586 16.1714C8.67018 16.1959 8.62735 16.2265 8.5887 16.2629C7.52076 17.02 6.50586 17.4467 5.70245 17.6878C5.59142 17.7211 5.48444 17.7508 5.38192 17.7774C5.71998 17.2426 6.12149 16.5133 6.54904 15.5416C6.68106 15.2416 6.54784 14.8911 6.24985 14.7545C4.03261 13.7383 2.59985 11.6335 2.59985 9.49995C2.59985 6.44829 5.80068 3.69995 9.99985 3.69995C12.4503 3.69995 14.5607 4.63583 15.8935 6.02173C15.9326 6.0833 15.9829 6.13783 16.0424 6.18199C16.9024 7.14096 17.3999 8.29689 17.3999 9.49995C17.3999 12.5516 14.199 15.3 9.99985 15.3C9.85163 15.3 9.70865 15.3548 9.59848 15.454C9.30294 15.72 9.00766 15.9581 8.71586 16.1714ZM10.0816 16.6242C11.2215 17.1886 12.5423 17.5 14 17.5C14.1482 17.5 14.2912 17.5549 14.4014 17.654C15.8287 18.9386 17.2508 19.6004 18.309 19.9414C18.4162 19.976 18.5197 20.0072 18.6191 20.0355C18.2833 19.5012 17.8824 18.7835 17.4545 17.85C17.3165 17.5488 17.4487 17.1926 17.75 17.0546C19.9672 16.0383 21.4 13.9336 21.4 11.8C21.4 9.78512 20.0647 7.96761 17.9975 6.92562C18.385 7.71767 18.5999 8.58474 18.5999 9.5C18.5999 13.3824 14.7332 16.3978 10.2299 16.4975C10.1805 16.5404 10.131 16.5826 10.0816 16.6242Z" fill="currentColor"/>
</svg>
