<svg width="24" height="24" viewBox="0 0 24 24" fill="none" xmlns="http://www.w3.org/2000/svg" data-karrot-ui-icon="true">
  <path d="M11.9967 4.43213C9.15971 4.43213 6.54186 5.00744 4.59551 5.98265C2.71149 6.92663 1.15576 8.41907 1.15576 10.3679C1.15576 12.1869 2.51701 13.6076 4.206 14.5441C5.62999 15.3336 7.46315 15.8907 9.49598 16.1433L8.00428 17.635C7.60488 18.0344 7.60488 18.682 8.00428 19.0814C8.40368 19.4808 9.05124 19.4808 9.45064 19.0814L12.5362 15.9958C12.9356 15.5964 12.9356 14.9489 12.5362 14.5495L9.45064 11.4639C9.05124 11.0645 8.40368 11.0645 8.00428 11.4639C7.60488 11.8633 7.60488 12.5109 8.00428 12.9103L9.11704 14.023C7.56055 13.7694 6.21569 13.3196 5.19787 12.7552C3.75066 11.9528 3.20122 11.0713 3.20122 10.3679C3.20122 9.61083 3.84408 8.647 5.51179 7.8114C7.11858 7.00632 9.40982 6.47758 11.9967 6.47758C14.5841 6.47758 16.8754 7.00457 18.482 7.80864C20.1486 8.64278 20.7921 9.60645 20.7921 10.3679C20.7921 10.9462 20.4365 11.6326 19.4916 12.3195C18.557 12.999 17.1693 13.5769 15.4649 13.9239C14.9114 14.0365 14.554 14.5766 14.6667 15.13C14.7794 15.6835 15.3194 16.0409 15.8729 15.9282C17.7715 15.5418 19.4568 14.8737 20.6944 13.974C21.921 13.0822 22.8376 11.8563 22.8376 10.3679C22.8376 8.41556 21.2825 6.92297 19.3974 5.97949C17.4509 5.00525 14.833 4.43213 11.9967 4.43213Z" fill="currentColor"/>
</svg>
