<svg width="24" height="24" viewBox="0 0 24 24" fill="none" xmlns="http://www.w3.org/2000/svg" data-karrot-ui-icon="true">
  <path d="M17.0785 14.3971C16.7789 15.1132 16.369 15.778 15.8636 16.3672C15.3418 15.7795 14.9136 15.115 14.5939 14.3971H17.0785Z" fill="currentColor"/>
  <path fill-rule="evenodd" clip-rule="evenodd" d="M13.2606 1H3.73434C2.22421 1 1 2.2242 1 3.73434V13.2606C1 14.7707 2.2242 15.995 3.73434 15.995H8.77121V20.8756C8.77121 22.0489 9.72236 23 10.8957 23H20.8756C22.0489 23 23 22.0489 23 20.8756V10.8957C23 9.72236 22.0489 8.77121 20.8756 8.77121H15.995V3.73434C15.995 2.2242 14.7707 1 13.2606 1ZM14.2437 8.77121V3.73434C14.2437 3.19139 13.8036 2.75124 13.2606 2.75124H3.73434C3.19139 2.75124 2.75124 3.19139 2.75124 3.73434V13.2606C2.75124 13.8036 3.19139 14.2437 3.73434 14.2437H8.77121V10.8957C8.77121 10.8586 8.77216 10.8217 8.77404 10.785H7.05271L6.52734 12.2298L6.46166 12.4159H4.83083L4.97311 12.0437L7.68753 4.76518L7.7532 4.57911H9.24175L9.30742 4.76518L10.8022 8.77323C10.8332 8.77189 10.8643 8.77121 10.8957 8.77121H14.2437ZM20.1322 18.7752C18.9988 18.5385 17.9283 18.0648 16.9909 17.3851C17.7477 16.5012 18.3407 15.4893 18.7422 14.3971H20.1322V12.9304H16.586V11.5294H15.1084V12.9304H11.6497V14.3971H12.985C13.3886 15.507 13.9729 16.5425 14.7143 17.4617C13.7786 18.085 12.736 18.5303 11.6387 18.7752L11.376 18.8737L11.5621 19.1035C11.8091 19.4139 12.0254 19.7474 12.2079 20.0995L12.2736 20.2418H12.4377C13.6409 19.8553 14.7644 19.2546 15.7541 18.4687C16.7653 19.2846 17.9417 19.8709 19.2019 20.1871H19.3551L19.4208 20.0558C19.6219 19.6906 19.8683 19.3523 20.1541 19.0488L20.4059 18.7971L20.1322 18.7752ZM8.49748 6.85571L7.58902 9.34028H9.40593L8.49748 6.85571Z" fill="currentColor"/>
</svg>
