<svg width="24" height="24" viewBox="0 0 24 24" fill="none" xmlns="http://www.w3.org/2000/svg" data-karrot-ui-icon="true">
  <path fill-rule="evenodd" clip-rule="evenodd" d="M12.6039 1.18616C12.0977 0.937945 11.5023 0.937946 10.9961 1.18616L2.99609 5.10929C2.38569 5.40863 2 6.02126 2 6.69149V8.90722C2 12.5248 2.78412 15.3802 4.34968 17.6641C5.91321 19.9451 8.20394 21.5796 11.0781 22.8481C11.536 23.0502 12.0639 23.0514 12.5243 22.8461C15.4216 21.554 17.7035 19.7649 19.2568 17.4244C20.8106 15.083 21.6 12.2431 21.6 8.90722V6.69149C21.6 6.02126 21.2143 5.40863 20.6039 5.10929L12.6039 1.18616ZM16.392 9.56759C16.6892 9.24642 16.6651 8.74935 16.3381 8.45737C16.0112 8.16539 15.5053 8.18906 15.208 8.51024L10.7724 13.3037L8.36569 10.9392C8.05327 10.6323 7.54673 10.6323 7.23431 10.9392C6.9219 11.2462 6.9219 11.7438 7.23431 12.0507L10.2343 14.998C10.389 15.15 10.6003 15.2331 10.819 15.2279C11.0377 15.2228 11.2448 15.1299 11.392 14.9709L16.392 9.56759Z" fill="currentColor"/>
</svg>
