<svg width="24" height="24" viewBox="0 0 24 24" fill="none" xmlns="http://www.w3.org/2000/svg" data-karrot-ui-icon="true">
  <path fill-rule="evenodd" clip-rule="evenodd" d="M7.50836 4.00552C7.52919 3.94999 7.5541 3.89607 7.5829 3.84422C7.70452 3.62524 7.86039 3.44655 8.05089 3.31883C8.28946 3.15874 8.55126 3.1001 8.8001 3.1001H15.4001C15.5331 3.1001 15.6672 3.11668 15.7969 3.15068C15.8854 3.17389 15.9699 3.20472 16.0493 3.24263C16.3522 3.38714 16.5805 3.65174 16.6792 3.97193L17.4773 6.1001H20.0001C21.321 6.1001 22.4001 7.17918 22.4001 8.5001V18.5001C22.4001 19.821 21.321 20.9001 20.0001 20.9001H4.0001C2.67918 20.9001 1.6001 19.821 1.6001 18.5001V8.5001C1.6001 7.17918 2.67918 6.1001 4.0001 6.1001H6.7229L7.50836 4.00552ZM8.71931 4.31543C8.7109 4.32104 8.67658 4.34652 8.63196 4.42687L7.74916 6.781C7.63207 7.09324 7.33357 7.3001 7.0001 7.3001H4.0001C3.34193 7.3001 2.8001 7.84192 2.8001 8.5001V18.5001C2.8001 19.1583 3.34193 19.7001 4.0001 19.7001H20.0001C20.6583 19.7001 21.2001 19.1583 21.2001 18.5001V8.5001C21.2001 7.84193 20.6583 7.3001 20.0001 7.3001H17.2001C16.8666 7.3001 16.5681 7.09324 16.451 6.781L15.551 4.38099C15.5442 4.36277 15.538 4.34431 15.5326 4.32565C15.5234 4.32128 15.5102 4.31607 15.4924 4.31142C15.4659 4.30446 15.4343 4.3001 15.4001 4.3001H8.8001C8.74198 4.3001 8.72437 4.31201 8.71931 4.31543Z" fill="currentColor"/>
  <path fill-rule="evenodd" clip-rule="evenodd" d="M10.4 6.6001C10.4 6.26873 10.6686 6.0001 11 6.0001H13C13.3314 6.0001 13.6 6.26873 13.6 6.6001C13.6 6.93147 13.3314 7.2001 13 7.2001H11C10.6686 7.2001 10.4 6.93147 10.4 6.6001Z" fill="currentColor"/>
  <path fill-rule="evenodd" clip-rule="evenodd" d="M12 16.9001C13.8225 16.9001 15.3 15.4226 15.3 13.6001C15.3 11.7776 13.8225 10.3001 12 10.3001C10.1775 10.3001 8.7 11.7776 8.7 13.6001C8.7 15.4226 10.1775 16.9001 12 16.9001ZM12 18.1001C14.4853 18.1001 16.5 16.0854 16.5 13.6001C16.5 11.1148 14.4853 9.1001 12 9.1001C9.51472 9.1001 7.5 11.1148 7.5 13.6001C7.5 16.0854 9.51472 18.1001 12 18.1001Z" fill="currentColor"/>
</svg>
