<svg width="24" height="24" viewBox="0 0 24 24" fill="none" xmlns="http://www.w3.org/2000/svg" data-karrot-ui-icon="true">
  <path d="M18 9.5001C18 13.0001 14.4 15.9001 10 15.9001C7.84973 17.8353 5.69946 18.3835 4.65387 18.5387C4.42649 18.5725 4.28999 18.287 4.42905 18.104C4.79608 17.6208 5.36468 16.744 6 15.3001C3.6 14.2001 2 11.9001 2 9.5001C2 6.0001 5.6 3.1001 10 3.1001C14.4 3.1001 18 6.0001 18 9.5001Z" fill="currentColor"/>
  <path d="M18.8508 6.71563C18.6403 6.58721 18.4031 6.82781 18.4997 7.05466C18.8225 7.81258 19.0001 8.63354 19.0001 9.50005C19.0001 13.6115 15.0032 16.6973 10.4528 16.8904C10.4079 16.8924 10.3646 16.909 10.3302 16.9379L10.2813 16.9788C10.138 17.0979 10.1641 17.3271 10.3363 17.3985C11.4365 17.8547 12.6692 18.1 14 18.1C16.1686 20.0517 18.3371 20.6449 19.3726 20.8237C19.596 20.8623 19.7339 20.593 19.5989 20.4108C19.2331 19.9171 18.6517 19.0218 18 17.6C20.4 16.5 22 14.2 22 11.8C22 9.70687 20.7498 7.8742 18.8508 6.71563Z" fill="currentColor"/>
</svg>
