<svg width="24" height="24" viewBox="0 0 24 24" fill="none" xmlns="http://www.w3.org/2000/svg" data-karrot-ui-icon="true">
  <path d="M3.33049 4.07007C2.87209 4.07007 2.50049 4.44167 2.50049 4.90007C2.50049 5.35846 2.87209 5.73007 3.33049 5.73007H20.1305C20.5889 5.73007 20.9605 5.35846 20.9605 4.90007C20.9605 4.44167 20.5889 4.07007 20.1305 4.07007H3.33049Z" fill="currentColor"/>
  <path d="M3.33049 11.0701C2.87209 11.0701 2.50049 11.4417 2.50049 11.9001C2.50049 12.3585 2.87209 12.7301 3.33049 12.7301H9.13049C9.58888 12.7301 9.96049 12.3585 9.96049 11.9001C9.96049 11.4417 9.58888 11.0701 9.13049 11.0701H3.33049Z" fill="currentColor"/>
  <path d="M3.33049 18.0701C2.87209 18.0701 2.50049 18.4417 2.50049 18.9001C2.50049 19.3585 2.87209 19.7301 3.33049 19.7301H9.13049C9.58888 19.7301 9.96049 19.3585 9.96049 18.9001C9.96049 18.4417 9.58888 18.0701 9.13049 18.0701H3.33049Z" fill="currentColor"/>
  <path fill-rule="evenodd" clip-rule="evenodd" d="M16.9949 12.0471C15.8744 10.9011 14.0651 10.9178 12.9647 12.0972C11.8189 13.3253 12.0988 15.0936 12.8947 16.2284L12.8957 16.2298C13.6548 17.3069 14.5749 18.1669 15.2941 18.7527C15.6559 19.0474 15.9721 19.2769 16.1999 19.4341C16.3139 19.5127 16.4061 19.5735 16.4712 19.6154C16.5037 19.6364 16.5295 19.6527 16.5479 19.6642L16.5698 19.6778L16.5765 19.6818L16.5787 19.6832L16.5799 19.6839C16.5799 19.6839 16.5802 19.6841 16.9949 19L16.5799 19.6839C16.8392 19.8411 17.1653 19.8383 17.4217 19.6765L16.9949 19C17.4217 19.6765 17.4217 19.6765 17.4217 19.6765L17.4231 19.6757L17.4252 19.6743L17.4315 19.6703L17.4525 19.6568C17.4701 19.6454 17.4948 19.6292 17.5261 19.6083C17.5887 19.5666 17.6775 19.506 17.7877 19.4277C18.0081 19.2711 18.3152 19.0424 18.6701 18.7491C19.3766 18.165 20.2886 17.3116 21.0817 16.2468L21.0829 16.2452C21.9349 15.0952 22.1593 13.3212 21.0268 12.0992L21.025 12.0972C19.9246 10.9178 18.1153 10.9011 16.9949 12.0471ZM16.9874 18.0323C17.1671 17.901 17.3946 17.7275 17.6507 17.5158C18.2952 16.9831 19.1055 16.2213 19.7978 15.292C20.3276 14.5763 20.3204 13.6919 19.8542 13.1877C19.3706 12.6705 18.6005 12.6707 18.1172 13.1883L17.5806 13.7652C17.4293 13.9279 17.2171 14.0203 16.9949 14.0203C16.7726 14.0203 16.5604 13.9279 16.4091 13.7652L15.8729 13.1887C15.3893 12.6707 14.6181 12.6705 14.1346 13.1887C13.6808 13.6751 13.6751 14.5541 14.2041 15.3089C14.8505 16.226 15.6527 16.9812 16.3046 17.5121C16.5672 17.7261 16.802 17.9008 16.9874 18.0323Z" fill="currentColor"/>
</svg>
