<svg width="24" height="24" viewBox="0 0 24 24" fill="none" xmlns="http://www.w3.org/2000/svg" data-karrot-ui-icon="true">
  <path d="M4.8 2.2002H6.99999V3.4002H4.8C4.0268 3.4002 3.4 4.027 3.4 4.8002V7.00018H2.2V4.8002C2.2 3.36425 3.36406 2.2002 4.8 2.2002Z" fill="currentColor"/>
  <path d="M20.2 4.8002V7.00018L21.4 7.00018V4.8002C21.4 3.36426 20.2359 2.2002 18.8 2.2002H17V3.4002H18.8C19.5732 3.4002 20.2 4.027 20.2 4.8002Z" fill="currentColor"/>
  <path d="M18.8 20.2002H17V21.4002H18.8C20.2359 21.4002 21.4 20.2361 21.4 18.8002V17.0002H20.2V18.8002C20.2 19.5734 19.5732 20.2002 18.8 20.2002Z" fill="currentColor"/>
  <path d="M3.4 18.8002V17.0002H2.2V18.8002C2.2 20.2361 3.36406 21.4002 4.8 21.4002H6.99999V20.2002H4.8C4.0268 20.2002 3.4 19.5734 3.4 18.8002Z" fill="currentColor"/>
  <path d="M22 11.2001H2V12.4001H22V11.2001Z" fill="currentColor"/>
</svg>
