<svg width="24" height="24" viewBox="0 0 24 24" fill="none" xmlns="http://www.w3.org/2000/svg" data-karrot-ui-icon="true">
  <path fill-rule="evenodd" clip-rule="evenodd" d="M12 3.79995C16.8835 3.79995 20.7 7.35812 20.7 11.5806C20.7 14.0038 19.458 16.1907 17.4684 17.6313C17.2606 17.7817 17.1375 18.0227 17.1375 18.2793V20.5712C17.0255 20.503 16.9099 20.4329 16.7928 20.3622C16.0008 19.8835 15.0576 19.3227 14.7065 19.1628C14.546 19.0897 14.3657 19.0717 14.1939 19.1117C13.494 19.2744 12.759 19.3612 12 19.3612C7.11662 19.3612 3.30005 15.8031 3.30005 11.5806C3.30005 7.35812 7.11662 3.79995 12 3.79995ZM17.5163 22.6801C17.7631 22.8329 18.0732 22.8401 18.3268 22.6989C18.5804 22.5577 18.7375 22.2902 18.7375 22V18.6773C20.904 16.9699 22.3 14.4342 22.3 11.5806C22.3 6.32515 17.61 2.19995 12 2.19995C6.39007 2.19995 1.70005 6.32515 1.70005 11.5806C1.70005 16.836 6.39007 20.9612 12 20.9612C12.7775 20.9612 13.5358 20.8827 14.2655 20.7336C14.6333 20.9345 15.2983 21.3284 15.9651 21.7315C16.3712 21.9769 16.7592 22.2142 17.0458 22.3902C17.189 22.4781 17.3068 22.5507 17.3887 22.6012L17.5163 22.6801Z" fill="currentColor"/>
</svg>
