<svg width="24" height="24" viewBox="0 0 24 24" fill="none" xmlns="http://www.w3.org/2000/svg" data-karrot-ui-icon="true">
  <path fill-rule="evenodd" clip-rule="evenodd" d="M19.64 2.3999C19.28 2.3999 18.99 2.6899 18.99 3.0499V8.4799C18.26 7.9299 17.79 7.1999 17.49 6.5199C17.29 6.0599 17.17 5.6299 17.1 5.3199C17.0874 5.25293 17.0748 5.19297 17.0638 5.14001C17.0484 5.06651 17.0358 5.00639 17.03 4.9599C17.03 4.9199 17.03 4.8899 17.02 4.8699V3.0499C17.02 2.6899 16.73 2.3999 16.37 2.3999H7.63996C7.27996 2.3999 6.98996 2.6899 6.98996 3.0499V4.8599C6.98996 4.8599 6.98996 4.9099 6.97996 4.9499C6.96996 5.0299 6.94996 5.1599 6.90996 5.3099C6.83996 5.6199 6.71996 6.0499 6.51996 6.5099C6.21996 7.1899 5.74996 7.9199 5.01996 8.4699V3.0499C5.01996 2.6899 4.71996 2.3999 4.35996 2.3999C3.99996 2.3999 3.70996 2.6899 3.70996 3.0499V10.6899C3.70996 14.0599 6.43996 16.7999 9.81996 16.7999H14.18C17.55 16.7999 20.29 14.0699 20.29 10.6899V3.0499C20.29 2.6899 20 2.3999 19.64 2.3999ZM18.28 10.4899C17.99 10.5899 17.7 10.6899 17.41 10.7499C15.72 11.1399 13.93 11.3599 12.01 11.3599C10.09 11.3599 8.10996 11.1299 6.32996 10.6999L5.81996 10.5499L4.87996 10.2299L6.06996 9.5399L6.90996 9.7499C7.21996 9.8199 7.53996 9.8799 7.84996 9.9299L7.99996 9.9599C9.27996 10.1799 10.63 10.2999 12.01 10.2999C13.39 10.2999 14.69 10.1699 15.95 9.9599L16.07 9.9399C16.3899 9.87991 16.71 9.8199 17.02 9.7499L17.86 9.5499L19.14 10.1799L18.29 10.4899H18.28Z" fill="currentColor"/>
  <path d="M1.50061 15.8555C1.59461 15.3828 2.05404 15.0758 2.52678 15.1698C3.91495 15.4458 5.23434 16.1404 6.301 17.2447C7.36538 18.3467 7.97652 19.6057 8.26541 20.9517C8.36656 21.4229 8.06653 21.887 7.59527 21.9881C7.12401 22.0893 6.65998 21.7892 6.55882 21.318C6.3325 20.2636 5.86491 19.3056 5.04554 18.4573C4.22845 17.6114 3.22938 17.0891 2.18638 16.8817C1.71364 16.7877 1.40661 16.3283 1.50061 15.8555Z" fill="currentColor"/>
  <path d="M2.44899 18.3126C1.9904 18.1643 1.49836 18.4157 1.34999 18.8743C1.20161 19.3329 1.4531 19.825 1.91169 19.9733C2.28852 20.0953 2.64072 20.3091 2.95335 20.6328C3.32378 21.0163 3.56337 21.4902 3.66848 21.996C3.76657 22.4679 4.22864 22.7709 4.70055 22.6728C5.17246 22.5748 5.4755 22.1127 5.37741 21.6408C5.20882 20.8297 4.82049 20.0534 4.2088 19.4201C3.7003 18.8937 3.10258 18.5241 2.44899 18.3126Z" fill="currentColor"/>
</svg>
