<svg width="24" height="24" viewBox="0 0 24 24" fill="none" xmlns="http://www.w3.org/2000/svg" data-karrot-ui-icon="true">
  <path d="M14.9999 2.3999C14.6685 2.3999 14.3999 2.66853 14.3999 2.9999C14.3999 3.33127 14.6685 3.5999 14.9999 3.5999H19.5514L14.0756 9.07564C13.8413 9.30995 13.8413 9.68985 14.0756 9.92417C14.31 10.1585 14.6899 10.1585 14.9242 9.92417L20.3999 4.44843V8.9999C20.3999 9.33127 20.6685 9.5999 20.9999 9.5999C21.3313 9.5999 21.5999 9.33127 21.5999 8.9999V2.9999C21.5999 2.91855 21.5837 2.84098 21.5544 2.77023C21.5258 2.70107 21.4837 2.63618 21.4281 2.57957C21.4255 2.57694 21.4229 2.57433 21.4202 2.57174C21.3636 2.51615 21.2987 2.47404 21.2296 2.44543C21.1588 2.41609 21.0813 2.3999 20.9999 2.3999H14.9999Z" fill="currentColor"/>
  <path d="M9.92417 14.9242C10.1585 14.6899 10.1585 14.31 9.92417 14.0756C9.68985 13.8413 9.30995 13.8413 9.07564 14.0756L3.5999 19.5514V14.9999C3.5999 14.6685 3.33127 14.3999 2.9999 14.3999C2.66853 14.3999 2.3999 14.6685 2.3999 14.9999V20.9999C2.3999 21.0813 2.41609 21.1588 2.44543 21.2296C2.47404 21.2987 2.51615 21.3636 2.57174 21.4202L2.57957 21.4281C2.63618 21.4837 2.70107 21.5258 2.77023 21.5544C2.84098 21.5837 2.91855 21.5999 2.9999 21.5999H8.9999C9.33127 21.5999 9.5999 21.3313 9.5999 20.9999C9.5999 20.6685 9.33127 20.3999 8.9999 20.3999H4.44843L9.92417 14.9242Z" fill="currentColor"/>
</svg>
