<svg width="24" height="24" viewBox="0 0 24 24" fill="none" xmlns="http://www.w3.org/2000/svg" data-karrot-ui-icon="true">
  <path fill-rule="evenodd" clip-rule="evenodd" d="M12 22C17.5228 22 22 17.5228 22 12C22 6.47715 17.5228 2 12 2C6.47715 2 2 6.47715 2 12C2 17.5228 6.47715 22 12 22ZM12.0524 8.84211C12.7791 8.84211 13.3682 8.25301 13.3682 7.52632C13.3682 6.79963 12.7791 6.21053 12.0524 6.21053C11.3257 6.21053 10.7366 6.79963 10.7366 7.52632C10.7366 8.25301 11.3257 8.84211 12.0524 8.84211ZM13.3178 15.9862C13.4582 15.7897 13.6827 15.7195 13.8791 15.8177C14.0896 15.93 14.1598 16.1546 14.0616 16.3651C13.9633 16.5756 13.809 16.8843 13.5704 17.1931C13.3178 17.5299 12.7846 18.1053 11.9988 18.2597C11.7883 18.3018 11.6059 18.3158 11.4234 18.3158C11.1849 18.3018 10.9604 18.2456 10.7499 18.1614C10.371 17.979 10.1324 17.6843 10.0342 17.2773C9.95 16.9264 9.9921 16.3791 10.1324 15.5792C10.1324 15.5792 10.806 12.225 10.9744 11.3409C10.9323 11.3549 10.8902 11.3655 10.8481 11.376C10.806 11.3865 10.7639 11.397 10.7218 11.4111C10.5955 11.4532 10.4832 11.4812 10.4271 11.4953C10.3148 11.5233 10.2026 11.5093 10.1044 11.4391C10.0061 11.383 9.93597 11.2707 9.9079 11.1585C9.85177 10.9339 9.97807 10.7234 10.2307 10.6532L11.3813 10.2884C11.9845 10.106 12.5881 9.92347 12.6162 9.90944C12.7846 9.86733 12.8828 9.92347 12.939 9.97961C12.9811 10.0217 13.0512 10.1059 13.0231 10.2743C12.9951 10.4427 12.1812 14.7933 11.9707 15.916C11.7602 17.0387 12.0268 17.2352 12.2935 17.151C12.662 17.0243 13.0212 16.4532 13.2156 16.1439C13.258 16.0765 13.2927 16.0213 13.3178 15.9862Z" fill="currentColor"/>
</svg>
