<svg width="24" height="24" viewBox="0 0 24 24" fill="none" xmlns="http://www.w3.org/2000/svg" data-karrot-ui-icon="true">
  <path fill-rule="evenodd" clip-rule="evenodd" d="M11.1665 1.98896C11.1294 1.93332 11.0669 1.8999 11 1.8999C10.9332 1.8999 10.8707 1.93332 10.8336 1.98896L8.83364 4.98896C8.79272 5.05033 8.78891 5.12924 8.82371 5.19427C8.85852 5.25931 8.92629 5.2999 9.00005 5.2999H10.0254C9.98604 5.61242 9.99185 5.92593 10.0467 6.22924C10.1685 6.90238 10.5644 7.43054 10.8134 7.76286L10.8365 7.79362C11.1406 8.19968 11.2678 8.3856 11.3135 8.56941C11.3501 8.71652 11.3587 8.82963 11.3429 8.92904C11.3274 9.02631 11.2862 9.12482 11.2005 9.23896C10.8688 9.68055 10.9579 10.3074 11.3995 10.6391C11.8411 10.9708 12.4679 10.8817 12.7996 10.4401C13.3972 9.6445 13.4352 8.81438 13.2545 8.08715C13.1033 7.47858 12.7311 6.98464 12.4918 6.66714L12.4372 6.59451C12.1468 6.20679 12.0432 6.03012 12.0148 5.87322C11.9874 5.72169 11.9954 5.52222 12.0647 5.2999H14.0254C13.986 5.61242 13.9919 5.92594 14.0467 6.22924C14.1685 6.90238 14.5644 7.43054 14.8134 7.76286L14.8365 7.79362C15.1406 8.19968 15.2678 8.3856 15.3135 8.56941C15.3501 8.71652 15.3587 8.82963 15.3429 8.92904C15.3274 9.02631 15.2862 9.12482 15.2005 9.23896C14.8688 9.68055 14.9579 10.3074 15.3995 10.6391C15.8411 10.9708 16.4679 10.8817 16.7996 10.4401C17.3972 9.6445 17.4352 8.81438 17.2545 8.08715C17.1033 7.47858 16.7311 6.98464 16.4918 6.66714L16.4372 6.59451C16.1468 6.20679 16.0432 6.03012 16.0148 5.87322C15.9874 5.72169 15.9954 5.52222 16.0647 5.2999H17C17.0738 5.2999 17.1416 5.25931 17.1764 5.19427C17.2112 5.12924 17.2074 5.05033 17.1665 4.98896L15.1665 1.98896C15.1294 1.93332 15.0669 1.8999 15 1.8999C14.9332 1.8999 14.8707 1.93332 14.8336 1.98896L13 4.73935L11.1665 1.98896Z" fill="currentColor"/>
  <path fill-rule="evenodd" clip-rule="evenodd" d="M8.63246 8.92173C9.08647 8.60725 9.19958 7.98427 8.8851 7.53027C8.57062 7.07626 7.94764 6.96315 7.49363 7.27763C5.38282 8.73974 4 11.2006 4 13.9841C4 18.4506 7.56625 22.0997 12 22.0997C16.4338 22.0997 20 18.4506 20 13.9841C20 12.8341 19.7637 11.7373 19.3363 10.7429C19.1182 10.2355 18.5301 10.001 18.0227 10.2191C17.5153 10.4372 17.2807 11.0253 17.4988 11.5327C17.8207 12.2816 18 13.11 18 13.9841C18 14.6325 17.9013 15.2562 17.7188 15.8411L14.9774 14.4703C14.9923 14.349 15 14.2254 15 14.1001C15 12.4432 13.6569 11.1001 12 11.1001C10.3431 11.1001 9 12.4432 9 14.1001C9 14.2254 9.00769 14.349 9.02265 14.4704L6.2812 15.8411C6.09867 15.2562 6 14.6325 6 13.9841C6 11.8756 7.04534 10.0211 8.63246 8.92173ZM12 17.1001C12.809 17.1001 13.5435 16.7796 14.0829 16.2592L16.8197 17.6276C15.7234 19.1308 13.9683 20.0997 12 20.0997C10.0317 20.0997 8.27661 19.1309 7.18032 17.6276L9.91715 16.2592C10.4565 16.7796 11.191 17.1001 12 17.1001ZM11 14.1001C11 13.5478 11.4477 13.1001 12 13.1001C12.5523 13.1001 13 13.5478 13 14.1001C13 14.6524 12.5523 15.1001 12 15.1001C11.4477 15.1001 11 14.6524 11 14.1001Z" fill="currentColor"/>
</svg>
