<svg width="24" height="24" viewBox="0 0 24 24" fill="none" xmlns="http://www.w3.org/2000/svg" data-karrot-ui-icon="true">
  <path fill-rule="evenodd" clip-rule="evenodd" d="M6.12495 9.06574C6.12495 5.82189 8.75374 3.19995 12 3.19995C15.2462 3.19995 17.875 5.82188 17.875 9.06574C17.875 10.8189 17.1037 12.3872 15.8827 13.4595C18.3653 14.8286 20.05 17.4662 20.05 20.5C20.05 20.9418 19.6918 21.2999 19.25 21.2999C18.8081 21.2999 18.45 20.9418 18.45 20.5C18.45 17.6384 16.5754 15.2096 13.98 14.3718C13.6694 14.2716 13.4509 13.9928 13.4277 13.6673C13.4046 13.3418 13.5814 13.0348 13.8746 12.8916C15.3016 12.1947 16.275 10.7438 16.275 9.06574C16.275 6.70828 14.3652 4.79995 12 4.79995C9.63466 4.79995 7.72495 6.70828 7.72495 9.06574C7.72495 10.744 8.70566 12.2014 10.124 12.891C10.4177 13.0338 10.5951 13.3408 10.5722 13.6665C10.5493 13.9923 10.3307 14.2715 10.02 14.3718C7.42409 15.2097 5.54995 17.6316 5.54995 20.5C5.54995 20.9418 5.19178 21.2999 4.74995 21.2999C4.30812 21.2999 3.94995 20.9418 3.94995 20.5C3.94995 17.4599 5.63463 14.827 8.11663 13.4594C6.89855 12.3881 6.12495 10.8168 6.12495 9.06574Z" fill="currentColor"/>
</svg>
