<svg width="24" height="24" viewBox="0 0 24 24" fill="none" xmlns="http://www.w3.org/2000/svg" data-karrot-ui-icon="true">
  <path d="M12 3.41958C7.26114 3.41958 3.41958 7.26114 3.41958 12C3.41958 16.7388 7.26114 20.5803 12 20.5803C12.5974 20.5803 13.1798 20.5194 13.7416 20.4036C14.1743 20.3144 14.5974 20.593 14.6866 21.0257C14.7757 21.4584 14.4972 21.8815 14.0645 21.9707C13.3971 22.1082 12.7065 22.1803 12 22.1803C6.37749 22.1803 1.81958 17.6224 1.81958 12C1.81958 6.37749 6.37749 1.81958 12 1.81958C17.6224 1.81958 22.1803 6.37749 22.1803 12C22.1803 12.3978 22.1575 12.7907 22.1129 13.1772C22.0623 13.6162 21.6655 13.931 21.2266 13.8804C20.7877 13.8298 20.4728 13.433 20.5234 12.9941C20.561 12.6682 20.5803 12.3365 20.5803 12C20.5803 7.26114 16.7388 3.41958 12 3.41958Z" fill="currentColor"/>
  <path d="M15.2 18.4016C15.2 17.9597 15.5581 17.6016 16 17.6016H20.0685L18.4343 15.9673C18.1218 15.6549 18.1218 15.1484 18.4343 14.836C18.7467 14.5236 19.2532 14.5236 19.5656 14.836L22.5581 17.8284C22.5901 17.8596 22.6195 17.8935 22.646 17.9296C22.6717 17.9647 22.6941 18.0013 22.7134 18.0392C22.7687 18.148 22.8 18.2711 22.8 18.4016C22.8 18.4201 22.7993 18.4385 22.7981 18.4567C22.7931 18.5303 22.7781 18.6012 22.7545 18.668C22.716 18.7773 22.6531 18.8799 22.5656 18.9673L19.5656 21.9673C19.2532 22.2798 18.7467 22.2798 18.4343 21.9673C18.1218 21.6549 18.1218 21.1484 18.4343 20.836L20.0687 19.2016H16C15.5581 19.2016 15.2 18.8434 15.2 18.4016Z" fill="currentColor"/>
  <path d="M9.77469 9.60072C9.66466 9.17281 9.22857 8.91512 8.80067 9.02515C8.37276 9.13519 8.11507 9.57127 8.22511 9.99918L8.58529 11.3999H7.99995C7.55812 11.3999 7.19995 11.7581 7.19995 12.1999C7.19995 12.6417 7.55812 12.9999 7.99995 12.9999H8.99672L9.51082 14.9992C9.59884 15.3415 9.90103 15.5854 10.2542 15.5993C10.6073 15.6132 10.9277 15.3937 11.0424 15.0594L11.7485 12.9999H12.2513L12.9574 15.0594C13.0721 15.3937 13.3925 15.6132 13.7456 15.5993C14.0988 15.5854 14.401 15.3415 14.489 14.9992L15.0031 12.9999H16C16.4418 12.9999 16.8 12.6417 16.8 12.1999C16.8 11.7581 16.4418 11.3999 16 11.3999H15.4145L15.7747 9.99918C15.8847 9.57127 15.627 9.13519 15.1991 9.02515C14.7712 8.91512 14.3351 9.17281 14.2251 9.60072L13.7625 11.3999H13.3942L12.7567 9.54049C12.6458 9.21714 12.3417 8.99995 11.9999 8.99995C11.6581 8.99995 11.354 9.21714 11.2431 9.54049L10.6056 11.3999H10.2373L9.77469 9.60072Z" fill="currentColor"/>
</svg>
