<svg width="24" height="24" viewBox="0 0 24 24" fill="none" xmlns="http://www.w3.org/2000/svg" data-karrot-ui-icon="true">
  <path fill-rule="evenodd" clip-rule="evenodd" d="M2.79995 12.0002C2.79995 6.91918 6.91893 2.8002 12 2.8002C17.081 2.8002 21.2 6.91918 21.2 12.0002C21.2 12.7457 21.0304 13.8568 20.5564 14.7503C20.0998 15.6109 19.4121 16.2002 18.3157 16.2002C17.8763 16.2002 17.447 15.9922 17.1019 15.5177C16.7485 15.0319 16.4842 14.2567 16.4842 13.1907V12.018C16.4842 12.012 16.4842 12.0061 16.4842 12.0002C16.4842 11.9943 16.4842 11.9884 16.4842 11.9825V7.0002C16.4842 6.55837 16.126 6.2002 15.6842 6.2002C15.2423 6.2002 14.8842 6.55837 14.8842 7.0002V7.9413C14.0023 7.03126 12.8149 6.46336 11.4737 6.46336C8.62045 6.46336 6.46313 9.03348 6.46313 12.0002C6.46313 14.9669 8.62045 17.537 11.4737 17.537C13.0456 17.537 14.4063 16.757 15.3114 15.5602C15.4466 15.8895 15.6127 16.1904 15.808 16.4588C16.4153 17.2939 17.3018 17.8002 18.3157 17.8002C20.1667 17.8002 21.3211 16.7228 21.9698 15.5001C22.6011 14.3102 22.8 12.9213 22.8 12.0002C22.8 6.03552 17.9646 1.2002 12 1.2002C6.03528 1.2002 1.19995 6.03552 1.19995 12.0002C1.19995 17.9649 6.03528 22.8002 12 22.8002C14.1504 22.8002 15.7202 22.5961 16.9805 22.1931C17.4013 22.0585 17.6334 21.6083 17.4988 21.1874C17.3642 20.7666 16.914 20.5345 16.4931 20.6691C15.4487 21.0031 14.06 21.2002 12 21.2002C6.91893 21.2002 2.79995 17.0812 2.79995 12.0002ZM14.8842 11.9845V12.0159C14.8767 14.2734 13.2671 15.937 11.4737 15.937C9.67606 15.937 8.06313 14.2656 8.06313 12.0002C8.06313 9.73476 9.67606 8.06336 11.4737 8.06336C13.2671 8.06336 14.8767 9.72706 14.8842 11.9845Z" fill="currentColor"/>
</svg>
