<svg width="24" height="24" viewBox="0 0 24 24" fill="none" xmlns="http://www.w3.org/2000/svg" data-karrot-ui-icon="true">
  <path fill-rule="evenodd" clip-rule="evenodd" d="M1.8892 8.67786C3.33612 8.65748 4.77981 8.87556 6.16378 9.32648C8.51921 10.0939 9.75568 11.0917 10.8337 11.9616C10.9452 12.0515 11.0549 12.1401 11.1641 12.2269L10.168 13.479C10.0551 13.3892 9.9436 13.2994 9.83224 13.2096C8.77816 12.3602 7.73832 11.5223 5.66812 10.8478C4.45144 10.4514 3.18282 10.2598 1.91173 10.2777C1.85725 10.2785 1.81315 10.3192 1.81071 10.3777C1.75613 11.6842 1.90939 12.9938 2.26698 14.255C2.73912 15.9203 3.55621 17.4613 4.66189 18.7742C5.38084 19.5881 6.48016 20.122 7.55922 20.2022C7.57479 20.2033 7.59031 20.205 7.60578 20.207L7.60679 20.2072L7.62273 20.2091C7.63739 20.2108 7.66119 20.2134 7.69317 20.2165C7.75722 20.2226 7.85351 20.2304 7.97448 20.236C8.21784 20.2473 8.5536 20.2494 8.92342 20.214C9.69714 20.1398 10.4621 19.916 10.9286 19.44L10.9342 19.4343L10.941 19.4274L10.9687 19.399C10.9936 19.3733 11.031 19.3342 11.0778 19.2838C11.1717 19.1827 11.3025 19.0373 11.4479 18.8628C11.7455 18.5057 12.0751 18.0609 12.2844 17.6422L13.7155 18.3578C13.4248 18.9391 13.0044 19.4943 12.677 19.8871C12.5099 20.0877 12.3595 20.2548 12.2502 20.3725C12.1955 20.4314 12.1508 20.4783 12.1191 20.5111L12.0816 20.5496L12.0708 20.5605L12.0675 20.5638L12.0664 20.5649C12.0664 20.5649 12.0656 20.5657 11.5 20L12.0708 20.5605C11.2035 21.4454 9.96892 21.7211 9.07611 21.8067C8.61266 21.8511 8.1985 21.8481 7.90028 21.8343C7.75045 21.8273 7.62803 21.8175 7.54106 21.8092C7.49753 21.8051 7.46275 21.8013 7.43771 21.7983L7.42028 21.7962C5.93836 21.6806 4.45294 20.9593 3.4552 19.825L3.44434 19.8124C2.18835 18.3231 1.26211 16.5765 0.727651 14.6914C0.323534 13.2661 0.150457 11.7866 0.212102 10.3109C0.249809 9.40823 0.981813 8.69064 1.8892 8.67786Z" fill="currentColor"/>
  <path fill-rule="evenodd" clip-rule="evenodd" d="M4.93427 13.4343C5.24669 13.1219 5.75322 13.1219 6.06564 13.4343L11.5656 18.9343C11.8781 19.2467 11.8781 19.7533 11.5656 20.0657C11.2532 20.3781 10.7467 20.3781 10.4343 20.0657L4.93427 14.5657C4.62185 14.2533 4.62185 13.7467 4.93427 13.4343Z" fill="currentColor"/>
  <path fill-rule="evenodd" clip-rule="evenodd" d="M21.4351 4.01743C21.4188 3.9635 21.3661 3.93004 21.3047 3.94424C19.6598 4.32472 18.0876 4.99208 16.6584 5.9205C14.8819 7.07452 13.3677 8.605 12.2191 10.4092C10.5593 13.4278 11.7135 16.7601 13.701 17.9093C14.7717 18.5253 15.9828 18.8033 17.1602 18.5074C18.3204 18.2158 19.5896 17.3311 20.7257 15.3427C21.6428 13.4059 22.1443 11.2907 22.1956 9.13868C22.2354 7.47283 21.8746 5.47096 21.4351 4.01743ZM20.9441 2.3854C21.8198 2.18284 22.7046 2.68758 22.9667 3.55435C23.4411 5.12342 23.8401 7.29852 23.7952 9.17688C23.7382 11.5627 23.18 13.9087 22.1579 16.0565C22.1496 16.074 22.1407 16.0911 22.1311 16.1079C20.8352 18.389 19.2432 19.6336 17.5502 20.0591C15.8696 20.4815 14.2317 20.0608 12.9024 19.2957L12.9012 19.295C10.0653 17.6562 8.78255 13.3085 10.831 9.61306C10.8387 9.59926 10.8467 9.58569 10.8552 9.57237C12.1274 7.56693 13.8092 5.8634 15.7868 4.57874C17.3719 3.54906 19.117 2.80804 20.9441 2.3854Z" fill="currentColor"/>
  <path fill-rule="evenodd" clip-rule="evenodd" d="M19.6657 6.93655C20.0314 7.18456 20.1267 7.68204 19.8787 8.04769L13.3288 17.7044C13.0808 18.0701 12.5833 18.1655 12.2176 17.9174C11.852 17.6694 11.7566 17.172 12.0046 16.8063L18.5546 7.14956C18.8026 6.7839 19.3001 6.68854 19.6657 6.93655Z" fill="currentColor"/>
  <path fill-rule="evenodd" clip-rule="evenodd" d="M20.4903 12.8465C20.5352 13.2861 20.2152 13.6787 19.7757 13.7236L15.399 14.1701C14.9595 14.215 14.5668 13.895 14.522 13.4555C14.4771 13.0159 14.7971 12.6233 15.2366 12.5784L19.6133 12.1319C20.0528 12.087 20.4455 12.407 20.4903 12.8465Z" fill="currentColor"/>
</svg>
