<svg width="24" height="24" viewBox="0 0 24 24" fill="none" xmlns="http://www.w3.org/2000/svg" data-karrot-ui-icon="true">
  <path fill-rule="evenodd" clip-rule="evenodd" d="M12.4999 3.5999C17.4741 3.5999 21.3999 7.22895 21.3999 11.5805C21.3999 14.0754 20.1207 16.3197 18.0855 17.7932C17.9297 17.9061 17.8374 18.0868 17.8374 18.2792V20.9272C17.6365 20.8045 17.4157 20.6702 17.1892 20.5333C16.3911 20.0509 15.461 19.4985 15.1235 19.3448C15.0031 19.29 14.8679 19.2765 14.739 19.3064C14.0244 19.4726 13.2741 19.5612 12.4999 19.5612C7.52566 19.5612 3.5999 15.9321 3.5999 11.5805C3.5999 7.22895 7.52566 3.5999 12.4999 3.5999ZM18.1215 22.51C18.3065 22.6246 18.5392 22.63 18.7293 22.5241C18.9195 22.4182 19.0374 22.2176 19.0374 21.9999V18.5796C21.2049 16.9054 22.5999 14.3991 22.5999 11.5805C22.5999 6.45422 18.0191 2.3999 12.4999 2.3999C6.98074 2.3999 2.3999 6.45422 2.3999 11.5805C2.3999 16.7069 6.98074 20.7612 12.4999 20.7612C13.289 20.7612 14.0578 20.6789 14.7961 20.5229C15.1592 20.7171 15.8696 21.1378 16.5684 21.5602C16.9751 21.806 17.3634 22.0435 17.6503 22.2197C17.7937 22.3077 17.9116 22.3804 17.9936 22.431L18.1215 22.51Z" fill="currentColor"/>
  <path fill-rule="evenodd" clip-rule="evenodd" d="M8.02489 9.9999C8.02489 9.66853 8.29352 9.3999 8.62489 9.3999H16.4999C16.8313 9.3999 17.0999 9.66853 17.0999 9.9999C17.0999 10.3313 16.8313 10.5999 16.4999 10.5999H8.62489C8.29352 10.5999 8.02489 10.3313 8.02489 9.9999Z" fill="currentColor"/>
  <path fill-rule="evenodd" clip-rule="evenodd" d="M8.02489 13.4999C8.02489 13.1685 8.29352 12.8999 8.62489 12.8999H16.4999C16.8313 12.8999 17.0999 13.1685 17.0999 13.4999C17.0999 13.8313 16.8313 14.0999 16.4999 14.0999H8.62489C8.29352 14.0999 8.02489 13.8313 8.02489 13.4999Z" fill="currentColor"/>
</svg>
