<svg width="24" height="24" viewBox="0 0 24 24" fill="none" xmlns="http://www.w3.org/2000/svg" data-karrot-ui-icon="true">
  <path d="M6.99988 8.99988V6.99988H8.99988V8.99988H6.99988Z" fill="currentColor"/>
  <path d="M6.99988 12.9999V10.9999H8.99988V12.9999H6.99988Z" fill="currentColor"/>
  <path d="M10.9999 8.99988V6.99988H12.9999V8.99988H10.9999Z" fill="currentColor"/>
  <path d="M10.9999 12.9999V10.9999H12.9999V12.9999H10.9999Z" fill="currentColor"/>
  <path fill-rule="evenodd" clip-rule="evenodd" d="M3.3999 4.9999C3.3999 3.56396 4.56396 2.3999 5.9999 2.3999H13.9999C15.4358 2.3999 16.5999 3.56396 16.5999 4.9999V8.3999H18.9999C19.8836 8.3999 20.5999 9.11625 20.5999 9.9999V21.9999C20.5999 22.3313 20.3313 22.5999 19.9999 22.5999H3.9999C3.66853 22.5999 3.3999 22.3313 3.3999 21.9999V4.9999ZM8.5999 21.3999H11.3999V17.5999H8.5999V21.3999ZM12.5999 21.3999V16.9999C12.5999 16.6685 12.3313 16.3999 11.9999 16.3999H7.9999C7.66853 16.3999 7.3999 16.6685 7.3999 16.9999V21.3999H4.5999V4.9999C4.5999 4.2267 5.2267 3.5999 5.9999 3.5999H13.9999C14.7731 3.5999 15.3999 4.2267 15.3999 4.9999V21.3999H12.5999ZM16.5999 21.3999V9.5999H18.9999C19.2208 9.5999 19.3999 9.77899 19.3999 9.9999V21.3999H16.5999Z" fill="currentColor"/>
</svg>
