<svg width="24" height="24" viewBox="0 0 24 24" fill="none" xmlns="http://www.w3.org/2000/svg" data-karrot-ui-icon="true">
  <path fill-rule="evenodd" clip-rule="evenodd" d="M1 4C1 2.34315 2.34315 1 4 1H18C19.6569 1 21 2.34315 21 4V10C21 10.5523 20.5523 11 20 11C19.4477 11 19 10.5523 19 10V4C19 3.44772 18.5523 3 18 3H4C3.44772 3 3 3.44772 3 4V20C3 20.5523 3.44772 21 4 21H10C10.5523 21 11 21.4477 11 22C11 22.5523 10.5523 23 10 23H4C2.34315 23 1 21.6569 1 20V4Z" fill="currentColor"/>
  <path fill-rule="evenodd" clip-rule="evenodd" d="M6 7C6 6.44772 6.44772 6 7 6H15C15.5523 6 16 6.44772 16 7C16 7.55228 15.5523 8 15 8H7C6.44772 8 6 7.55228 6 7Z" fill="currentColor"/>
  <path fill-rule="evenodd" clip-rule="evenodd" d="M6 11C6 10.4477 6.44772 10 7 10H15C15.5523 10 16 10.4477 16 11C16 11.5523 15.5523 12 15 12H7C6.44772 12 6 11.5523 6 11Z" fill="currentColor"/>
  <path fill-rule="evenodd" clip-rule="evenodd" d="M6 15C6 14.4477 6.44772 14 7 14H12C12.5523 14 13 14.4477 13 15C13 15.5523 12.5523 16 12 16H7C6.44772 16 6 15.5523 6 15Z" fill="currentColor"/>
  <path fill-rule="evenodd" clip-rule="evenodd" d="M19.0707 13.2929C19.4612 12.9024 20.0944 12.9024 20.4849 13.2929L22.7071 15.5151C23.0976 15.9056 23.0976 16.5388 22.7071 16.9293L16.9293 22.7071C16.7418 22.8946 16.4874 23 16.2222 23H14C13.4477 23 13 22.5523 13 22V19.7778C13 19.5126 13.1054 19.2582 13.2929 19.0707L19.0707 13.2929ZM15 20.192V21H15.808L20.5858 16.2222L19.7778 15.4142L15 20.192Z" fill="currentColor"/>
</svg>
