<svg width="24" height="24" viewBox="0 0 24 24" fill="none" xmlns="http://www.w3.org/2000/svg" data-karrot-ui-icon="true">
  <path fill-rule="evenodd" clip-rule="evenodd" d="M2 3.60005C2 2.05365 3.2536 0.800049 4.8 0.800049H18.8C20.3464 0.800049 21.6 2.05365 21.6 3.60005V12.6C21.6 13.0419 21.2418 13.4 20.8 13.4C20.3582 13.4 20 13.0419 20 12.6V3.60005C20 2.93731 19.4627 2.40005 18.8 2.40005H4.8C4.13726 2.40005 3.6 2.93731 3.6 3.60005V19.6C3.6 20.2628 4.13726 20.8 4.8 20.8H12.7C13.1418 20.8 13.5 21.1582 13.5 21.6C13.5 22.0419 13.1418 22.4 12.7 22.4H4.8C3.2536 22.4 2 21.1464 2 19.6V3.60005Z" fill="currentColor"/>
  <path fill-rule="evenodd" clip-rule="evenodd" d="M7 6.60005C7 6.15822 7.35817 5.80005 7.8 5.80005H15.8C16.2418 5.80005 16.6 6.15822 16.6 6.60005C16.6 7.04188 16.2418 7.40005 15.8 7.40005H7.8C7.35817 7.40005 7 7.04188 7 6.60005Z" fill="currentColor"/>
  <path fill-rule="evenodd" clip-rule="evenodd" d="M7 10.6C7 10.1582 7.35817 9.80005 7.8 9.80005H15.8C16.2418 9.80005 16.6 10.1582 16.6 10.6C16.6 11.0419 16.2418 11.4 15.8 11.4H7.8C7.35817 11.4 7 11.0419 7 10.6Z" fill="currentColor"/>
  <path fill-rule="evenodd" clip-rule="evenodd" d="M7 14.6C7 14.1582 7.35817 13.8 7.8 13.8H12.8C13.2418 13.8 13.6 14.1582 13.6 14.6C13.6 15.0419 13.2418 15.4 12.8 15.4H7.8C7.35817 15.4 7 15.0419 7 14.6Z" fill="currentColor"/>
  <path fill-rule="evenodd" clip-rule="evenodd" d="M14 18.6C14 18.1582 14.3582 17.8 14.8 17.8H20.8C21.2418 17.8 21.6 18.1582 21.6 18.6C21.6 19.0419 21.2418 19.4 20.8 19.4H14.8C14.3582 19.4 14 19.0419 14 18.6Z" fill="currentColor"/>
  <path fill-rule="evenodd" clip-rule="evenodd" d="M17.8 22.4001C17.3582 22.4001 17 22.042 17 21.6001V15.6001C17 15.1583 17.3582 14.8001 17.8 14.8001C18.2418 14.8001 18.6 15.1583 18.6 15.6001V21.6001C18.6 22.042 18.2418 22.4001 17.8 22.4001Z" fill="currentColor"/>
</svg>
