<svg width="24" height="24" viewBox="0 0 24 24" fill="none" xmlns="http://www.w3.org/2000/svg" data-karrot-ui-icon="true">
  <path d="M2.93994 11.9999C2.93994 7.38832 6.67836 3.6499 11.2899 3.6499C12.9359 3.6499 14.4678 4.12513 15.7596 4.94549C16.2258 5.24157 16.8438 5.10365 17.1398 4.63744C17.4359 4.17123 17.298 3.55327 16.8318 3.25718C15.229 2.23928 13.3268 1.6499 11.2899 1.6499C5.57379 1.6499 0.939941 6.28376 0.939941 11.9999C0.939941 17.7161 5.57379 22.3499 11.2899 22.3499C17.0061 22.3499 21.6399 17.7161 21.6399 11.9999C21.6399 11.6477 21.6223 11.2993 21.5878 10.9555C21.5327 10.406 21.0425 10.0052 20.493 10.0604C19.9435 10.1155 19.5427 10.6057 19.5978 11.1552C19.6257 11.4327 19.6399 11.7145 19.6399 11.9999C19.6399 16.6115 15.9015 20.3499 11.2899 20.3499C6.67836 20.3499 2.93994 16.6115 2.93994 11.9999Z" fill="currentColor"/>
  <path d="M22.7806 4.74331C23.1636 4.34542 23.1516 3.71237 22.7537 3.32935C22.3558 2.94634 21.7227 2.95841 21.3397 3.3563L11.7426 13.3263L8.06343 9.68875C7.6707 9.30044 7.03755 9.30404 6.64924 9.69677C6.26094 10.0895 6.26453 10.7227 6.65727 11.111L11.0571 15.4611C11.2473 15.6492 11.505 15.7532 11.7725 15.7499C12.04 15.7466 12.2951 15.6363 12.4806 15.4435L22.7806 4.74331Z" fill="currentColor"/>
</svg>
