<svg width="24" height="24" viewBox="0 0 24 24" fill="none" xmlns="http://www.w3.org/2000/svg" data-karrot-ui-icon="true">
  <path fill-rule="evenodd" clip-rule="evenodd" d="M18.5575 15.8989C20.1085 14.6256 21.6607 12.9326 21.875 10.2961C21.8916 10.1493 21.9001 10.0003 21.9001 9.84942L21.8961 9.6699C21.7943 7.40595 19.7756 5.59942 17.3001 5.59942C14.7596 5.59942 12.7001 7.50221 12.7001 9.84942C12.7001 12.1966 14.7596 14.0994 17.3001 14.0994C17.5988 14.0994 17.8908 14.0731 18.1736 14.0229C16.5971 15.8319 14.552 17.1564 13.2052 17.8235C13.0303 17.9102 12.9409 18.108 12.9958 18.2953C13.0564 18.5022 13.2725 18.6221 13.4785 18.5583C15.1547 18.039 17.0087 17.1704 18.5575 15.8989ZM20.2715 10.2074C20.2905 10.089 20.3001 9.96938 20.3001 9.84942C20.3001 8.50273 19.0786 7.19942 17.3001 7.19942C15.5217 7.19942 14.3001 8.50273 14.3001 9.84942C14.3001 11.1961 15.5217 12.4994 17.3001 12.4994C18.6686 12.4994 19.7073 11.7278 20.1135 10.7585C20.1733 10.5773 20.2262 10.3935 20.2715 10.2074ZM7.95749 15.7194C9.50848 14.4461 11.0607 12.7532 11.275 10.1166C11.2916 9.96985 11.3001 9.82083 11.3001 9.66998L11.2961 9.49045C11.1943 7.22651 9.17556 5.41998 6.70015 5.41997C4.15964 5.41997 2.10015 7.32276 2.10015 9.66997C2.10015 12.0172 4.15964 13.92 6.70015 13.92C6.99879 13.92 7.2908 13.8937 7.57359 13.8435C5.99709 15.6524 3.95203 16.977 2.60524 17.6441C2.43034 17.7307 2.34088 17.9286 2.39577 18.1159C2.45642 18.3228 2.6725 18.4426 2.87846 18.3788C4.55474 17.8596 6.40872 16.9909 7.95749 15.7194ZM9.67154 10.0279C9.69045 9.90956 9.70015 9.78994 9.70015 9.66998C9.70015 8.32329 8.47858 7.01997 6.70015 7.01997C4.92171 7.01997 3.70015 8.32329 3.70015 9.66997C3.70015 11.0167 4.92171 12.32 6.70015 12.32C8.06856 12.32 9.10729 11.5483 9.5135 10.5791C9.57328 10.3978 9.62616 10.2141 9.67154 10.0279Z" fill="currentColor"/>
</svg>
