<svg width="24" height="24" viewBox="0 0 24 24" fill="none" xmlns="http://www.w3.org/2000/svg" data-karrot-ui-icon="true">
  <path fill-rule="evenodd" clip-rule="evenodd" d="M10.909 17.2363C6.8121 17.2363 3.49091 13.9152 3.49079 9.81831C3.49079 9.81823 3.49079 9.81838 3.49079 9.81831V3.27263C3.49079 2.79064 3.88152 2.3999 4.36352 2.3999C4.84551 2.3999 5.23624 2.79064 5.23624 3.27263V8.22006C5.73209 7.74721 6.07392 7.1858 6.31028 6.6484C6.50633 6.20265 6.62234 5.78874 6.68881 5.48747C6.72187 5.33763 6.7422 5.21785 6.75396 5.13874C6.75841 5.10876 6.76162 5.08473 6.76381 5.06724V3.27306C6.76381 2.79106 7.15454 2.40033 7.63654 2.40033C8.11853 2.40033 8.50926 2.79106 8.50926 3.27306V5.11608C8.50926 5.14257 8.50806 5.16904 8.50565 5.19542L8.50551 5.19696L8.50533 5.19883L8.50488 5.20353L8.50354 5.21672L8.49895 5.2578C8.49495 5.29153 8.48899 5.33783 8.48046 5.39527C8.46341 5.51001 8.43599 5.66995 8.39327 5.86355C8.30818 6.24919 8.16049 6.77711 7.90802 7.35113C7.6138 8.02008 7.16692 8.77281 6.49601 9.43032C8.42339 9.82175 10.4763 10.0363 12.6055 10.0363C14.7185 10.0363 16.7113 9.81509 18.5945 9.42955C17.924 8.77221 17.4774 8.01981 17.1833 7.35113C16.9308 6.77711 16.7831 6.24919 16.698 5.86355C16.6553 5.66995 16.6279 5.51001 16.6108 5.39527C16.6023 5.33783 16.5963 5.29153 16.5923 5.2578L16.5878 5.21672L16.5864 5.20353L16.586 5.19883L16.5858 5.19696L16.5856 5.19542C16.5832 5.16904 16.582 5.14257 16.582 5.11608V3.27306C16.582 2.79106 16.9728 2.40033 17.4548 2.40033C17.9368 2.40033 18.3275 2.79106 18.3275 3.27306V5.06724C18.3297 5.08473 18.3329 5.10876 18.3373 5.13874C18.3491 5.21785 18.3694 5.33763 18.4025 5.48747C18.469 5.78874 18.585 6.20265 18.781 6.6484C19.0173 7.18557 19.3589 7.74674 19.8544 8.21946V3.27263C19.8544 2.79064 20.2452 2.3999 20.7272 2.3999C21.2091 2.3999 21.5999 2.79064 21.5999 3.27263V9.78772C21.6006 9.80911 21.6006 9.83058 21.5998 9.8521C21.5815 13.9334 18.2673 17.2363 14.1817 17.2363H10.909ZM19.7381 10.9666C19.2071 13.5489 16.9212 15.4908 14.1817 15.4908H10.909C8.17009 15.4908 5.88456 13.5498 5.35292 10.9683C7.62424 11.4926 10.0664 11.7817 12.6055 11.7817C15.1424 11.7817 17.5155 11.4803 19.7381 10.9666Z" fill="currentColor"/>
  <path d="M2.52678 15.1699C2.05404 15.0759 1.59461 15.3829 1.50061 15.8557C1.40661 16.3284 1.71364 16.7879 2.18638 16.8819C3.22938 17.0892 4.22845 17.6115 5.04554 18.4575C5.86491 19.3058 6.3325 20.2637 6.55882 21.3181C6.65998 21.7894 7.12401 22.0894 7.59527 21.9883C8.06653 21.8871 8.36656 21.4231 8.26541 20.9518C7.97652 19.6059 7.36538 18.3468 6.301 17.2449C5.23434 16.1405 3.91495 15.4459 2.52678 15.1699Z" fill="currentColor"/>
  <path d="M1.34999 18.8745C1.49836 18.4159 1.9904 18.1644 2.44899 18.3128C3.10258 18.5243 3.7003 18.8938 4.2088 19.4203C4.82049 20.0536 5.20882 20.8298 5.37741 21.6409C5.4755 22.1128 5.17246 22.5749 4.70055 22.673C4.22864 22.7711 3.76657 22.468 3.66848 21.9961C3.56337 21.4904 3.32378 21.0164 2.95335 20.6329C2.64072 20.3092 2.28852 20.0954 1.91169 19.9735C1.4531 19.8251 1.20161 19.3331 1.34999 18.8745Z" fill="currentColor"/>
</svg>
