<svg width="24" height="24" viewBox="0 0 24 24" fill="none" xmlns="http://www.w3.org/2000/svg" data-karrot-ui-icon="true">
  <path fill-rule="evenodd" clip-rule="evenodd" d="M22.4759 3.56763C22.7147 3.79744 22.7219 4.17727 22.4921 4.41601L12.1921 15.1162C12.0808 15.2318 11.9277 15.2981 11.7672 15.3001C11.6067 15.302 11.4521 15.2396 11.338 15.1268L6.93816 10.7766C6.70252 10.5436 6.70036 10.1637 6.93334 9.9281C7.16633 9.69246 7.54622 9.69031 7.78186 9.92329L11.7493 13.8459L21.6275 3.5838C21.8574 3.34506 22.2372 3.33782 22.4759 3.56763Z" fill="currentColor"/>
  <path fill-rule="evenodd" clip-rule="evenodd" d="M11.2901 3.2C6.4576 3.2 2.54009 7.11751 2.54009 11.95C2.54009 16.7825 6.4576 20.7 11.2901 20.7C16.1226 20.7 20.0401 16.7825 20.0401 11.95C20.0401 11.6512 20.0251 11.3561 19.996 11.0654C19.9629 10.7356 20.2034 10.4415 20.5331 10.4085C20.8628 10.3754 21.1569 10.6159 21.19 10.9456C21.2231 11.2761 21.2401 11.6111 21.2401 11.95C21.2401 17.4452 16.7853 21.9 11.2901 21.9C5.79486 21.9 1.34009 17.4452 1.34009 11.95C1.34009 6.45477 5.79486 2 11.2901 2C13.2487 2 15.0769 2.56655 16.6175 3.54494C16.8972 3.72259 16.98 4.09337 16.8023 4.3731C16.6247 4.65282 16.2539 4.73557 15.9742 4.55793C14.6202 3.69806 13.0142 3.2 11.2901 3.2Z" fill="currentColor"/>
</svg>
