<svg width="24" height="24" viewBox="0 0 24 24" fill="none" xmlns="http://www.w3.org/2000/svg" data-karrot-ui-icon="true">
  <path fill-rule="evenodd" clip-rule="evenodd" d="M15.8857 17.3678C16.1069 17.9829 16.052 18.6584 15.8795 19.2567C15.7052 19.861 15.3953 20.4438 15.0298 20.9101C14.6758 21.3617 14.2134 21.7748 13.7013 21.9327C13.4327 22.0154 13.1249 22.0346 12.8213 21.9172C12.5158 21.7992 12.2849 21.5701 12.1225 21.2859C12.115 21.2728 12.108 21.2594 12.1015 21.2457C10.3162 17.4861 8.54401 15.1258 7.76077 14.2653L3.15005 14.2653C2.81868 14.2653 2.55005 13.9967 2.55005 13.6653L2.55005 2.92494C2.55005 2.59357 2.81868 2.32494 3.15005 2.32494L15.8079 2.32494C17.2222 2.32494 18.0771 2.64198 18.667 3.23356C19.9751 4.54534 20.8372 6.69875 21.4139 8.60104C21.7327 9.65277 22.0742 11.0026 22.0504 12.2024C22.0385 12.806 21.9339 13.4163 21.6509 13.9421C21.3588 14.4847 20.8921 14.907 20.2273 15.1315C20.071 15.1843 19.9186 15.2193 19.7773 15.237C19.7526 15.2401 19.7276 15.2417 19.7027 15.2417L14.8302 15.2417L15.8581 17.3031C15.8685 17.3241 15.8778 17.3457 15.8857 17.3678ZM8.5999 13.4051C9.47274 14.3479 11.3291 16.8276 13.1741 20.707C13.199 20.7478 13.2198 20.7707 13.2327 20.7826C13.2461 20.795 13.2539 20.7979 13.2539 20.7979C13.2539 20.7979 13.2592 20.8 13.2714 20.8C13.285 20.8 13.31 20.7975 13.3479 20.7859C13.5227 20.732 13.7978 20.5367 14.0854 20.1698C14.3615 19.8176 14.5974 19.3718 14.7265 18.9242C14.853 18.4854 14.8627 18.0971 14.7667 17.8036L13.3236 14.9094C13.2309 14.7234 13.241 14.5027 13.3504 14.326C13.4597 14.1492 13.6527 14.0417 13.8606 14.0417L19.6599 14.0417C19.7104 14.0333 19.7727 14.0184 19.8433 13.9946C20.2126 13.8698 20.4426 13.6551 20.5942 13.3734C20.7549 13.0749 20.8409 12.6736 20.8507 12.1786C20.8704 11.1814 20.58 9.98655 20.2655 8.9492C19.6938 7.06356 18.8992 5.16579 17.8173 4.08091C17.535 3.79783 17.0431 3.52494 15.8079 3.52494L8.5999 3.52494L8.5999 13.4051ZM7.3999 13.0653L3.75005 13.0653L3.75005 3.52494L7.3999 3.52494L7.3999 13.0653Z" fill="currentColor"/>
</svg>
