<svg width="24" height="24" viewBox="0 0 24 24" fill="none" xmlns="http://www.w3.org/2000/svg" data-karrot-ui-icon="true">
  <path fill-rule="evenodd" clip-rule="evenodd" d="M1.19995 9.4998C1.19995 5.40202 5.33219 2.2998 9.99995 2.2998C12.6172 2.2998 15.0661 3.27514 16.7126 4.85443C20.086 5.74204 22.8 8.35491 22.8 11.7001C22.8 14.1966 21.3033 16.5331 19.0555 17.8513C19.4536 18.6436 19.8064 19.2126 20.0708 19.5956C20.2384 19.8383 20.3707 20.0066 20.4568 20.1098L20.5691 20.2379C20.7986 20.4701 20.864 20.8187 20.7339 21.1185C20.6032 21.4198 20.3016 21.6106 19.9733 21.5997L19.9701 21.5996L19.7926 21.5872C19.6885 21.5778 19.5424 21.5612 19.3602 21.5326C18.9959 21.4754 18.4862 21.3695 17.8796 21.1741C16.7236 20.8015 15.2141 20.1029 13.6937 18.7961C12.007 18.7511 10.4572 18.3351 9.11593 17.5993C8.01184 18.3358 6.96208 18.7714 6.10483 19.0286C5.49567 19.2113 4.98367 19.304 4.61759 19.3511C4.43445 19.3746 4.28746 19.3868 4.18263 19.3931L3.99995 19.3998C3.66781 19.3998 3.37021 19.1946 3.25217 18.8841C3.13517 18.5764 3.21872 18.2287 3.46196 18.0077C3.46366 18.0061 3.46808 18.0019 3.47509 17.9949C3.49083 17.9791 3.51968 17.9493 3.56029 17.9037C3.64147 17.8126 3.76983 17.6579 3.93432 17.4253C4.1968 17.0542 4.55179 16.4841 4.95394 15.6566C2.70087 14.3394 1.19995 11.9998 1.19995 9.4998ZM10.9005 16.6612C11.8344 17.0107 12.8743 17.2001 14 17.2001C14.1976 17.2001 14.3883 17.2733 14.5352 17.4055C15.8514 18.5901 17.1616 19.2347 18.174 19.5855C17.8985 19.1116 17.5929 18.5319 17.2727 17.8334C17.0886 17.4318 17.265 16.957 17.6667 16.7729C19.823 15.7846 21.2 13.7449 21.2 11.7001C21.2 9.92986 20.1141 8.2941 18.3642 7.254C18.6461 7.95544 18.7999 8.70909 18.7999 9.4998C18.7999 13.3318 15.1864 16.2932 10.9005 16.6612ZM5.81831 17.4421C6.09822 16.9587 6.40815 16.3587 6.7323 15.622C6.90833 15.2219 6.7307 14.7546 6.33337 14.5725C4.17706 13.5842 2.80005 11.5446 2.80005 9.49978C2.80005 6.59757 5.86781 3.89978 10 3.89978C14.1323 3.89978 17.2 6.59757 17.2 9.49978C17.2 12.402 14.1323 15.0998 10 15.0998C9.80242 15.0998 9.61178 15.1729 9.46488 15.3051C8.14291 16.4949 6.82838 17.1165 5.81831 17.4421Z" fill="currentColor"/>
</svg>
