<svg width="16" height="16" viewBox="0 0 16 16" fill="none" xmlns="http://www.w3.org/2000/svg">
<g clip-path="url(#clip0_1844_19824)">
<path d="M5.5067 14.7084C5.88508 14.8477 6.24236 14.8151 6.57856 14.6106C6.91475 14.4061 7.16154 14.0902 7.31893 13.6628C7.49483 13.1852 7.57626 12.4016 7.56321 11.3119C7.55941 10.1971 7.73341 9.16208 8.08522 8.2068C8.43858 8.62242 8.73558 9.02441 8.9762 9.41279C9.21683 9.80117 9.41691 10.1746 9.57645 10.5331C9.78468 11.0095 9.99753 11.4733 10.215 11.9245C10.4371 12.3632 10.6801 12.7453 10.9438 13.0708C11.2076 13.3963 11.5152 13.6238 11.8665 13.7532C12.1908 13.8726 12.5049 13.8741 12.8087 13.7576C13.1171 13.6285 13.3222 13.4257 13.4241 13.1491C13.5398 12.8349 13.5067 12.4873 13.3247 12.1062C13.1474 11.7126 12.7892 11.3309 12.2502 10.9611C11.9807 10.7762 11.6977 10.5863 11.4011 10.3915C11.0957 10.1791 10.7653 9.97177 10.4101 9.76957C9.73131 9.36257 9.0428 8.77356 8.34459 8.00256C9.37609 7.86856 10.3115 7.87047 11.1508 8.00828C11.9631 8.13614 12.6876 8.23165 13.3242 8.29481C13.952 8.34043 14.4519 8.27474 14.824 8.09774C15.2007 7.90818 15.447 7.65628 15.5627 7.34204C15.6692 7.05294 15.649 6.77431 15.5022 6.50614C15.3419 6.23299 15.0861 6.03172 14.7348 5.90233C14.3699 5.76796 13.952 5.7568 13.481 5.86884C13.0147 5.96831 12.5343 6.12684 12.0398 6.34442C11.5454 6.56199 11.0916 6.77316 10.6786 6.97791C10.0386 7.29891 9.23895 7.53257 8.27964 7.67888L8.36991 7.43377C8.50878 7.05669 8.65403 6.72478 8.80567 6.43804C8.94842 6.13375 9.102 5.88342 9.2664 5.68703C9.48561 5.42517 9.73221 5.13058 10.0062 4.80327C10.2667 4.47097 10.5091 4.14627 10.7333 3.82916C10.9621 3.49948 11.1159 3.2278 11.1946 3.01412C11.3566 2.57419 11.3736 2.17365 11.2458 1.81252C11.109 1.43384 10.8582 1.17732 10.4933 1.04295C10.142 0.913557 9.79374 0.942335 9.44866 1.12928C9.10358 1.31623 8.84772 1.63596 8.68107 2.08846C8.51442 2.54096 8.42837 3.33718 8.42291 4.47711C8.42208 5.60447 8.2527 6.62693 7.91478 7.54451C7.6958 7.26403 7.52144 7.04993 7.39168 6.90223C7.26655 6.74195 7.16382 6.6042 7.08349 6.48897C7.00778 6.36117 6.9232 6.21582 6.82972 6.05293C6.74088 5.87747 6.6165 5.63182 6.45658 5.31599C5.86708 3.99977 5.42712 3.15258 5.13669 2.77441C4.84627 2.39625 4.49836 2.13251 4.09296 1.98321C3.76863 1.86377 3.46365 1.85851 3.178 1.96743C2.89235 2.07634 2.69629 2.27535 2.58982 2.56445C2.4741 2.87869 2.50045 3.22384 2.66888 3.5999C2.82842 3.95842 3.17309 4.33515 3.70287 4.73009C3.95425 4.92259 4.23497 5.11875 4.54503 5.31859C4.84157 5.51344 5.16515 5.71825 5.51575 5.93302C6.20344 6.35757 6.91666 6.96281 7.65541 7.74875C7.13966 7.81575 6.65806 7.8525 6.21063 7.85901C5.7543 7.84798 5.32307 7.81049 4.91692 7.74656C4.11813 7.62368 3.39812 7.53695 2.75686 7.48635C2.10672 7.41821 1.58884 7.47015 1.20322 7.64217C0.817604 7.81419 0.566931 8.05732 0.451205 8.37156C0.349366 8.64809 0.373964 8.93549 0.524999 9.23378C0.667148 9.51452 0.913897 9.71958 1.26525 9.84898C1.56254 9.95846 1.90807 9.97865 2.30182 9.90955C2.69558 9.84045 3.09647 9.73115 3.50449 9.58165C3.91713 9.41959 4.30044 9.25385 4.6544 9.08445C4.99485 8.91007 5.26718 8.77483 5.47137 8.67874C5.88439 8.47399 6.63406 8.27189 7.72036 8.07243L7.63009 8.31753C7.33846 9.10941 6.83181 9.94343 6.11014 10.8196C5.38847 11.6958 4.95357 12.335 4.80544 12.7372C4.64342 13.1771 4.63312 13.5801 4.77452 13.9462C4.91129 14.3249 5.15535 14.579 5.5067 14.7084Z" fill="white"/>
</g>
<defs>
<clipPath id="clip0_1844_19824">
<rect width="16" height="16" fill="white"/>
</clipPath>
</defs>
</svg>
